<?xml version="1.0" encoding="UTF-8" standalone="no"?>
<svg
   xmlns:dc="http://purl.org/dc/elements/1.1/"
   xmlns:cc="http://creativecommons.org/ns#"
   xmlns:rdf="http://www.w3.org/1999/02/22-rdf-syntax-ns#"
   xmlns:svg="http://www.w3.org/2000/svg"
   xmlns="http://www.w3.org/2000/svg"
   xmlns:sodipodi="http://sodipodi.sourceforge.net/DTD/sodipodi-0.dtd"
   xmlns:inkscape="http://www.inkscape.org/namespaces/inkscape"
   height="32"
   aria-hidden="true"
   viewBox="0 0 16 16"
   version="1.1"
   width="32"
   data-view-component="true"
   class="v-align-middle"
   id="svg12"
   sodipodi:docname="favicon.svg"
   inkscape:version="1.0.1 (c497b03c, 2020-09-10)"
   inkscape:export-filename="favicon.png"
   inkscape:export-xdpi="144.59"
   inkscape:export-ydpi="144.59">
  <metadata
     id="metadata18">
    <rdf:RDF>
      <cc:Work
         rdf:about="">
        <dc:format>image/svg+xml</dc:format>
        <dc:type
           rdf:resource="http://purl.org/dc/dcmitype/StillImage" />
        <dc:title></dc:title>
      </cc:Work>
    </rdf:RDF>
  </metadata>
  <defs
     id="defs16" />
  <sodipodi:namedview
     pagecolor="#ffffff"
     bordercolor="#666666"
     borderopacity="1"
     objecttolerance="10"
     gridtolerance="10"
     guidetolerance="10"
     inkscape:pageopacity="0"
     inkscape:pageshadow="2"
     inkscape:window-width="1492"
     inkscape:window-height="907"
     id="namedview14"
     showgrid="false"
     inkscape:zoom="22.96875"
     inkscape:cx="5.0557392"
     inkscape:cy="16.942642"
     inkscape:window-x="4"
     inkscape:window-y="26"
     inkscape:window-maximized="0"
     inkscape:current-layer="svg12"
     inkscape:document-rotation="0" />
  <ellipse
     style="fill:#000000;stroke-width:0.36667"
     id="path497"
     cx="7.9891148"
     cy="7.999999"
     rx="7.9673471"
     ry="7.9782314" />
  <path
     fill-rule="evenodd"
     d="m 7.9891155,0.26122449 c -4.2576325,0 -7.7061223,3.46513931 -7.7061223,7.74332791 0,3.4264226 2.2058775,6.3204926 5.2690613,7.3464836 0.385306,0.06775 0.5297959,-0.164546 0.5297959,-0.367809 0,-0.183903 -0.00963,-0.793691 -0.00963,-1.442195 C 4.1360525,13.899162 3.6351546,13.066754 3.4810321,12.631191 3.3943381,12.408571 3.0186647,11.72135 2.6911545,11.537447 2.4214403,11.392259 2.0361341,11.03413 2.6815145,11.024451 c 0.6068572,-0.0097 1.0403266,0.561391 1.1848164,0.79369 0.6935509,1.171179 1.8013061,0.842088 2.2444081,0.638825 0.067428,-0.503315 0.2697143,-0.842086 0.4912654,-1.035669 -1.714606,-0.193583 -3.5062795,-0.861446 -3.5062795,-3.8232693 0,-0.8420869 0.2986122,-1.5389864 0.7898776,-2.0810194 -0.077061,-0.1935832 -0.3467756,-0.9872742 0.077061,-2.0519818 0,0 0.6453878,-0.2032624 2.1191838,0.7936911 0.6164897,-0.1742249 1.2715101,-0.2613374 1.9265305,-0.2613374 0.6550205,0 1.3100408,0.087113 1.9265302,0.2613374 1.473796,-1.0066327 2.119183,-0.7936911 2.119183,-0.7936911 0.423838,1.0647076 0.154123,1.8583986 0.07706,2.0519818 0.491266,0.542033 0.789878,1.2292533 0.789878,2.0810194 0,2.9715023 -1.801306,3.6296863 -3.5159174,3.8232693 0.279347,0.241979 0.5201631,0.706578 0.5201631,1.432515 0,1.03567 -0.0096,1.868077 -0.0096,2.129415 0,0.203263 0.1444893,0.445241 0.5297953,0.367809 a 7.7186449,7.7559106 0 0 0 5.249763,-7.3464836 c 0,-4.2781886 -3.44849,-7.74332791 -7.7061211,-7.74332791 z"
     id="path10"
     style="fill:#ffffff;stroke-width:0.965588" />
  <path
     id="path2601"
     class="st4"
     d="M 8.4024497,7.9649656 C 8.6985136,7.888379 8.9604161,7.8336742 9.2109316,7.7680285 9.4614472,7.7023829 9.7233498,7.6148555 9.9738647,7.5273279 10.463508,7.3522729 10.918991,7.122513 11.328926,6.8052256 c 0.19358,-0.1422322 0.38716,-0.2844646 0.58074,-0.4266969 0.04556,-0.032822 0.07971,-0.076587 0.136645,-0.065645 0.02276,0.032823 0.01139,0.065645 0,0.098468 -0.159419,0.4048152 -0.318838,0.80963 -0.535192,1.1925632 -0.136645,0.251641 -0.296064,0.4814011 -0.478256,0.7002199 -0.15942,0.1750551 -0.330226,0.3282284 -0.535194,0.4376378 C 10.133283,8.9496507 9.7575111,8.9387098 9.3817377,8.7527138 9.3589636,8.7417728 9.3361895,8.7308319 9.3248024,8.7198908 8.9945774,8.522954 8.7099006,8.2494303 8.4024497,7.9649656 Z"
     style="fill:#00ff00;stroke-width:0.111618" />
  <path
     id="path2603"
     class="st4"
     d="m 7.5269775,8.0367664 c -0.010987,0.022314 -0.010987,0.044627 -0.032961,0.066941 C 7.2632938,8.3491551 7.010597,8.5834466 6.7139529,8.7619544 6.5052033,8.8846786 6.2964539,8.9739325 6.0437571,8.9739325 5.8240207,8.9739325 5.6372449,8.9181485 5.4614558,8.7954248 5.2966535,8.6838573 5.1538249,8.5276629 5.0439566,8.3603118 4.8461939,8.0590799 4.659418,7.7355343 4.5275762,7.4008321 4.3957344,7.0772867 4.2858663,6.7425843 4.175998,6.4078823 c -0.010987,-0.044626 -0.03296,-0.089254 0,-0.1338809 0.076909,0.022314 0.131842,0.089253 0.1977629,0.1338809 0.1538153,0.122724 0.2966439,0.2454482 0.4394727,0.3681723 0.4065122,0.3458589 0.8569718,0.6024641 1.3403917,0.8032855 0.3735518,0.1561942 0.7580904,0.2677617 1.1536159,0.3793291 0.076909,0.022314 0.1538153,0.033471 0.2197363,0.078097 z"
     style="fill:#00ff00;stroke-width:0.110715" />
  <path
     id="path2595"
     class="st3"
     d="m 9.3411082,5.0819134 c -0.038802,0 -0.06036,-0.019657 -0.086228,-0.033699 C 9.1729622,4.9976688 9.0867335,4.9499303 8.9961936,4.9078078 8.8797845,4.8572611 8.7504415,4.8263716 8.6124756,4.8095225 8.509001,4.79829 8.4012151,4.7898656 8.2934291,4.7842491 c -0.09054,-0.00562 -0.1767689,-0.00562 -0.2673094,-0.00842 -0.012935,0 -0.030182,0 -0.043114,0 -0.021558,0 -0.043114,0.00281 -0.051737,0.014041 -0.00861,0.016849 0.012935,0.022466 0.030181,0.030889 0.1638347,0.081437 0.3233578,0.1684891 0.4699468,0.2667744 0.1120975,0.073012 0.1983263,0.1572565 0.2802437,0.2443093 0.1034742,0.1067096 0.1853915,0.2218437 0.2457516,0.3425943 0.043114,0.087052 0.077607,0.1769137 0.094851,0.2695827 0.017245,0.073012 0.034492,0.148832 0.030181,0.2246519 -0.00432,0.109518 -0.021558,0.2218441 -0.06036,0.3285539 -0.051737,0.1572565 -0.1120974,0.3145128 -0.1853916,0.4689614 -0.012935,0.030889 -0.030181,0.06178 -0.047426,0.089861 -0.00432,0.011232 -0.012935,0.025273 -0.017246,0.036505 -0.00861,0.028081 0.012935,0.039314 0.056048,0.025273 0.09054,-0.025273 0.1810803,-0.050546 0.2716209,-0.07582 0.2285059,-0.06178 0.4354552,-0.148832 0.6337814,-0.2415011 0.04743,-0.022465 0.09054,-0.044931 0.137966,-0.067396 0.00861,-0.00281 0.012936,-0.00562 0.021553,-0.00842 0.00431,0 0.012936,0 0.017234,0.00281 0.00431,0.00281 0.00431,0.00842 0.00431,0.011233 -0.021552,0.036506 -0.056052,0.064588 -0.090542,0.095477 C 9.7334815,6.9128234 9.634319,6.985836 9.5222217,7.0532316 9.3282019,7.171174 9.104007,7.2582267 8.8582554,7.3256222 8.6599292,7.3817856 8.4529803,7.4210996 8.2374081,7.4519891 c -0.064672,0.00842 -0.1293432,0.016849 -0.1940147,0.019657 -0.056048,0.00281 -0.1077858,0.014041 -0.1638348,0.011233 -0.017246,0 -0.034491,0 -0.051736,-0.00281 -0.012935,0 -0.025869,-0.011233 -0.017246,-0.022466 0.012935,-0.016849 0.030182,-0.030889 0.051736,-0.04493 0.038803,-0.028081 0.077606,-0.053355 0.1164089,-0.084245 0.030181,-0.025273 0.043114,-0.053355 0.047426,-0.081436 0,-0.00281 0,-0.00842 0,-0.011233 -0.00432,-0.1123261 0.021558,-0.221844 0.017246,-0.3341701 0,-0.1095178 0,-0.2190358 0,-0.3285538 0,-0.058971 0,-0.1179423 0,-0.1741052 C 8.0390553,6.3006506 8.0390553,6.2023653 8.0218094,6.1068882 8.0088746,6.0254518 7.9959401,5.9468236 7.9786946,5.8653871 7.9614485,5.7895672 7.9398919,5.713747 7.9097116,5.637927 7.8795309,5.5621069 7.8321058,5.4919031 7.7760572,5.4245075 7.6984511,5.3262221 7.5949767,5.2419778 7.4828795,5.1605412 7.4138966,5.1099945 7.3406021,5.0622559 7.271619,5.0117091 7.2198821,4.9752033 7.1638331,4.9386975 7.1164074,4.8993832 7.0646705,4.8600691 7.0301792,4.8151384 7.0388016,4.7589755 c 0.00432,-0.030889 0,-0.064588 0.017245,-0.095477 0.038803,-0.078627 0.1164089,-0.129175 0.2285062,-0.1572567 0.051736,-0.014041 0.1120975,-0.019656 0.1681464,-0.025273 0.094851,-0.011232 0.1940146,-0.00842 0.2931777,-0.016849 0.073295,-0.00562 0.1509,-0.00842 0.2241949,0.00281 0.051737,0.00842 0.1077857,0.00562 0.1638345,0.011233 0.1897033,0.022466 0.3621609,0.073013 0.5259955,0.1375994 0.12072,0.047739 0.2285063,0.1067098 0.3319805,0.1712972 0.1293432,0.078628 0.2414404,0.165681 0.3362922,0.2639662 0.00861,0.00842 0.017247,0.019657 0.021558,0.03089 -0.00432,-0.00281 -0.00432,-0.00281 -0.00861,0 z"
     style="fill:#999999;stroke-width:0.0347954" />
  <path
     id="path2597"
     class="st3"
     d="m 10.03794,9.9964846 c -0.0057,0.01188 -0.0057,0.0297 -0.01741,0.04159 -0.087027,0.130705 -0.1972751,0.243586 -0.3191205,0.344586 -0.040611,0.0297 -0.08123,0.04159 -0.1276481,0.04159 -0.1566587,0 -0.313318,0.01189 -0.464175,-0.0058 -0.3423298,-0.0297 -0.6846597,-0.0058 -1.0269886,-0.01783 -0.034813,0 -0.069626,0 -0.1044393,-0.0058 -0.063828,-0.0058 -0.087034,-0.03565 -0.087034,-0.101001 0,-0.04752 0,-0.09506 0,-0.142588 0,-0.3089387 0.00583,-0.6238206 0.00583,-0.9327608 0,-0.047525 0,-0.095058 0,-0.1425879 -0.00583,-0.06535 -0.029014,-0.095058 -0.087033,-0.1069406 -0.052215,-0.011883 -0.1102413,-0.011883 -0.1624613,0.00593 -0.034813,0.011883 -0.075432,0.017826 -0.1160434,0.029708 -0.01741,0.00593 -0.029014,-0.00593 -0.040619,-0.017825 -0.011604,-0.017826 -0.00583,-0.03565 0.00583,-0.053467 0.1044399,-0.118823 0.2843076,-0.1663525 0.4235605,-0.1069406 0.1334505,0.053467 0.2669003,0.1128815 0.3945489,0.1782341 0.2320877,0.1188239 0.4815818,0.2079412 0.7310767,0.2732939 0.069626,0.017826 0.1334506,0.041591 0.2030762,0.065349 0.01741,0.00593 0.046416,0.00593 0.040619,0.03565 -0.00583,0.023767 -0.029014,0.017825 -0.046416,0.023767 -0.034813,0.011883 -0.069626,0.017826 -0.104439,0.00593 -0.08123,-0.023767 -0.1624615,-0.00593 -0.243692,-0.029709 -0.023209,-0.00593 -0.046417,0.00593 -0.069626,0.011883 -0.040618,0.011883 -0.063828,0.041591 -0.063828,0.083177 0,0.047533 -0.00583,0.095058 0,0.1425876 0.01741,0.1307056 0.029014,0.2673518 0.087034,0.3921173 0.05802,0.112882 0.1334508,0.172292 0.2552963,0.196057 0.1682642,0.0297 0.3423299,0.02376 0.510593,0.01783 0.098637,0 0.1798687,-0.06535 0.2611002,-0.124764 0.040608,-0.0297 0.081228,-0.06536 0.1160421,-0.09506 0.011609,-0.0059 0.029012,-0.01189 0.040611,-0.01783 -0.0057,0.0058 0.0057,0.01189 0.0057,0.01189 z"
     style="fill:#999999;stroke-width:0.0587126" />
  <path
     id="path2609"
     class="st3"
     d="m 8.1530652,12.814992 c -0.081572,-0.06076 -0.1685857,-0.125576 -0.250157,-0.186337 -0.090663,-0.07876 -0.2500867,-0.15254 -0.3787439,-0.225879 -0.016304,-0.01215 -0.050732,-0.02655 -0.099607,-0.0292 -0.018116,-0.0022 -0.030772,-4.21e-4 -0.056113,0.0033 -0.02534,0.0037 -0.019891,0.0077 -0.027124,0.01355 -0.0072,0.0058 -0.00179,0.0098 0.00908,0.01802 0.1105481,0.07109 0.1704365,0.149441 0.2429925,0.225982 0.081643,0.09456 0.1632858,0.189117 0.2268254,0.281437 0.036279,0.03827 0.047225,0.08017 0.088941,0.12249 0.1325169,0.188692 0.1293095,0.377502 0.1387565,0.564497 0.013032,0.167163 0.026056,0.334332 0.033644,0.497445 0.0076,0.163114 0.00252,0.328044 -0.00799,0.488922 -0.00142,0.178894 -0.00287,0.357788 0.00839,0.534869 -0.00179,0.0098 0.00187,0.02387 0.00551,0.03783 0.012721,0.03197 0.06347,0.05852 0.1014645,0.05308 0.075991,-0.01089 0.056031,-0.037 0.059608,-0.05683 0.037641,-0.174421 0.03907,-0.353313 0.033265,-0.526344 -2.188e-4,-0.101393 -0.013113,-0.200963 -6.569e-4,-0.304163 0.012464,-0.103194 0.068328,-0.207792 0.080776,-0.310991 0.035828,-0.164508 0.107894,-0.324536 0.1926086,-0.486379 0.046873,-0.08881 0.039425,-0.184333 0.050089,-0.27762 0.010753,-0.05949 -0.021962,-0.117592 -0.1107627,-0.172489 C 8.392323,12.993292 8.2726825,12.904165 8.1530426,12.815048 Z"
     style="fill:#999999;stroke-width:0.078208"
     inkscape:export-filename="faviconcat.png"
     inkscape:export-xdpi="1823.3657"
     inkscape:export-ydpi="1823.3657" />
</svg>
