<?xml version="1.0" standalone="no"?>
<!DOCTYPE svg PUBLIC "-//W3C//DTD SVG 1.1//EN" "http://www.w3.org/Graphics/SVG/1.1/DTD/svg11.dtd" >
<svg xmlns="http://www.w3.org/2000/svg" xmlns:xlink="http://www.w3.org/1999/xlink" version="1.1">
<metadata>
Created by FontForge 20200427 at Thu Dec  7 20:07:21 2017
 By www
Copyright (c) 2017 by Val Kalinic. All rights reserved.
</metadata>
<defs>
<font id="VPPixel-Simplified" horiz-adv-x="500" >
  <font-face 
    font-family="VPPixel-Simplified"
    font-weight="400"
    font-stretch="normal"
    units-per-em="1000"
    panose-1="0 0 5 0 0 0 0 0 0 0"
    ascent="800"
    descent="-200"
    x-height="500"
    cap-height="750"
    bbox="-550 -300 1300 1150"
    underline-thickness="50"
    underline-position="-100"
    unicode-range="U+0020-FB02"
  />
<missing-glyph horiz-adv-x="550" 
d="M250 400v50h150v-50h-150zM300 250v-50h-50v-50h-100v-50h-100v50h50v50h50v50h50v150h50v-150h50zM300 300v50h50v-50h-50zM500 350v-50h-50v-50h-50v100h100zM350 250h50v-150h-50v150zM200 100h50v-100h-50v100zM300 100h50v-100h-50v100z" />
    <glyph glyph-name="fi" unicode="fi" horiz-adv-x="575" 
d="M375 800v-100h-150v100h150zM125 700h100v-200h100v-100h-100v-400h-100v400h-100v100h100v200zM525 650v-100h-100v100h100zM425 500h100v-500h-100v500z" />
    <glyph glyph-name="fl" unicode="fl" horiz-adv-x="600" 
d="M375 800v-100h-150v100h150zM550 800v-800h-100v800h100zM125 700h100v-200h100v-100h-100v-400h-100v400h-100v100h100v200z" />
    <glyph glyph-name="colon_parenleft.liga" unicode="&#x3a;&#x28;" horiz-adv-x="525" 
d="M475 750v-150h-100v150h100zM50 600h100v-100h-100v100zM275 600h100v-500h-100v500zM50 200h100v-100h-100v100zM375 100h100v-150h-100v150z" />
    <glyph glyph-name="colon_parenright.liga" unicode="&#x3a;&#x29;" horiz-adv-x="525" 
d="M375 600h-100v150h100v-150zM50 600h100v-100h-100v100zM475 600v-500h-100v500h100zM50 200h100v-100h-100v100zM275 100h100v-150h-100v150z" />
    <glyph glyph-name="semicolon_parenright.liga" unicode="&#x3b;&#x29;" horiz-adv-x="625" 
d="M475 600h-100v150h100v-150zM150 600h100v-100h-100v100zM575 600v-500h-100v500h100zM150 200h100v-150h-100v150zM375 100h100v-150h-100v150zM50 50h100v-100h-100v100z" />
    <glyph glyph-name=".notdef" horiz-adv-x="550" 
d="M250 400v50h150v-50h-150zM300 250v-50h-50v-50h-100v-50h-100v50h50v50h50v50h50v150h50v-150h50zM300 300v50h50v-50h-50zM500 350v-50h-50v-50h-50v100h100zM350 250h50v-150h-50v150zM200 100h50v-100h-50v100zM300 100h50v-100h-50v100z" />
    <glyph glyph-name=".null" horiz-adv-x="0" 
 />
    <glyph glyph-name="nonmarkingreturn" horiz-adv-x="333" 
 />
    <glyph glyph-name="space" unicode=" " horiz-adv-x="350" 
 />
    <glyph glyph-name="exclam" unicode="!" horiz-adv-x="200" 
d="M150 750v-550h-100v550h100zM50 100h100v-100h-100v100z" />
    <glyph glyph-name="quotedbl" unicode="&#x22;" horiz-adv-x="350" 
d="M25 700h100v-200h-100v200zM325 700v-200h-100v200h100z" />
    <glyph glyph-name="numbersign" unicode="#" horiz-adv-x="600" 
d="M550 450v-100h-100v-100h100v-100h-100v-100h-100v100h-100v-100h-100v100h-100v100h100v100h-100v100h100v100h100v-100h100v100h100v-100h100zM350 350h-100v-100h100v100z" />
    <glyph glyph-name="dollar" unicode="$" horiz-adv-x="600" 
d="M350 100h100v-100h-100v-100h-100v100h-150v100h150v250h-100v100h100v200h-100v100h100v100h100v-100h150v-100h-150v-200h100v-100h-100v-250zM150 450h-100v200h100v-200zM550 350v-250h-100v250h100z" />
    <glyph glyph-name="percent" unicode="%" horiz-adv-x="800" 
d="M250 650h-100v100h100v-100zM650 600h-100v150h100v-150zM150 500h-100v150h100v-150zM250 650h100v-150h-100v150zM550 450h-100v150h100v-150zM150 500h100v-100h-100v100zM450 300h-100v150h100v-150zM650 250h-100v100h100v-100zM250 300h100v-150h-100v150zM550 100
h-100v150h100v-150zM750 250v-150h-100v150h100zM150 150h100v-150h-100v150zM550 100h100v-100h-100v100z" />
    <glyph glyph-name="ampersand" unicode="&#x26;" horiz-adv-x="675" 
d="M150 650v100h200v-100h-200zM150 450h-100v200h100v-200zM350 650h100v-200h-100v200zM150 350v100h200v-100h-200zM150 100h-100v250h100v-250zM350 250v100h100v-100h-100zM650 350v-100h-100v100h100zM450 250h100v-150h-100v150zM450 100v-100h-300v100h300zM550 0
v100h100v-100h-100z" />
    <glyph glyph-name="quotesingle" unicode="'" horiz-adv-x="150" 
d="M125 700v-200h-100v200h100z" />
    <glyph glyph-name="parenleft" unicode="(" horiz-adv-x="300" 
d="M250 800v-150h-100v150h100zM50 650h100v-600h-100v600zM150 50h100v-150h-100v150z" />
    <glyph glyph-name="parenright" unicode=")" horiz-adv-x="300" 
d="M150 650h-100v150h100v-150zM250 650v-600h-100v600h100zM50 50h100v-150h-100v150z" />
    <glyph glyph-name="asterisk" unicode="*" horiz-adv-x="350" 
d="M125 750v-100h-100v100h100zM325 750v-100h-100v100h100zM125 650h100v-100h-100v100zM25 550h100v-100h-100v100zM225 450v100h100v-100h-100z" />
    <glyph glyph-name="plus" unicode="+" 
d="M450 400v-100h-150v-150h-100v150h-150v100h150v150h100v-150h150z" />
    <glyph glyph-name="comma" unicode="," horiz-adv-x="225" 
d="M175 50v-150h-100v150h100zM-25 -100h100v-100h-100v100z" />
    <glyph glyph-name="hyphen" unicode="-" horiz-adv-x="400" 
d="M350 400v-100h-300v100h300z" />
    <glyph glyph-name="period" unicode="." horiz-adv-x="200" 
d="M150 100v-100h-100v100h100z" />
    <glyph glyph-name="slash" unicode="/" 
d="M450 750v-200h-100v200h100zM250 550h100v-150h-100v150zM150 400h100v-200h-100v200zM50 200h100v-200h-100v200z" />
    <glyph glyph-name="zero" unicode="0" 
d="M150 650v100h200v-100h-200zM150 100h-100v550h100v-550zM450 650v-550h-100v550h100zM350 100v-100h-200v100h200z" />
    <glyph glyph-name="one" unicode="1" horiz-adv-x="200" 
d="M150 750v-750h-100v750h100z" />
    <glyph glyph-name="two" unicode="2" 
d="M350 750v-100h-250v100h250zM450 650v-250h-100v250h100zM250 400h100v-100h-100v100zM150 300h100v-100h-100v100zM50 200h100v-100h300v-100h-400v200z" />
    <glyph glyph-name="three" unicode="3" horiz-adv-x="425" 
d="M275 750v-100h-250v100h250zM375 650v-200h-100v200h100zM175 450h100v-100h-100v100zM275 350h100v-250h-100v250zM275 100v-100h-250v100h250z" />
    <glyph glyph-name="four" unicode="4" horiz-adv-x="475" 
d="M425 750v-750h-100v250h-300v200h100v-100h200v200h-100v100h100v100h100zM225 450h-100v100h100v-100z" />
    <glyph glyph-name="five" unicode="5" 
d="M350 450v-100h-300v400h350v-100h-250v-200h200zM450 350v-250h-100v250h100zM150 100h-100v150h100v-150zM350 100v-100h-200v100h200z" />
    <glyph glyph-name="six" unicode="6" 
d="M150 650v100h250v-100h-250zM150 100h-100v550h100v-200h200v-100h-200v-250zM450 350v-250h-100v250h100zM350 100v-100h-200v100h200z" />
    <glyph glyph-name="seven" unicode="7" horiz-adv-x="525" 
d="M475 750v-250h-100v150h-350v100h450zM275 500h100v-150h-100v150zM175 350h100v-350h-100v350z" />
    <glyph glyph-name="eight" unicode="8" 
d="M150 650v100h200v-100h-200zM150 450h-100v200h100v-200zM450 650v-200h-100v200h100zM350 450v-100h-200v100h200zM150 100h-100v250h100v-250zM350 350h100v-250h-100v250zM350 100v-100h-200v100h200z" />
    <glyph glyph-name="nine" unicode="9" 
d="M150 650v100h200v-100h-200zM150 400h-100v250h100v-250zM450 650v-550h-100v200h-200v100h200v250h100zM350 100v-100h-250v100h250z" />
    <glyph glyph-name="colon" unicode=":" horiz-adv-x="200" 
d="M150 500v-100h-100v100h100zM50 100h100v-100h-100v100z" />
    <glyph glyph-name="semicolon" unicode=";" horiz-adv-x="225" 
d="M175 500v-100h-100v100h100zM75 100h100v-200h-100v200zM-25 -100h100v-100h-100v100z" />
    <glyph glyph-name="less" unicode="&#x3c;" horiz-adv-x="600" 
d="M550 600v-100h-200v100h200zM350 500v-100h-200v100h200zM50 400h100v-100h-100v100zM150 200v100h200v-100h-200zM350 100v100h200v-100h-200z" />
    <glyph glyph-name="equal" unicode="=" 
d="M450 500v-100h-400v100h400zM450 300v-100h-400v100h400z" />
    <glyph glyph-name="greater" unicode="&#x3e;" horiz-adv-x="600" 
d="M250 600v-100h-200v100h200zM450 500v-100h-200v100h200zM550 400v-100h-100v100h100zM450 300v-100h-200v100h200zM250 200v-100h-200v100h200z" />
    <glyph glyph-name="question" unicode="?" horiz-adv-x="425" 
d="M275 750v-100h-250v100h250zM375 650v-200h-100v200h100zM175 450h100v-100h-100v100zM75 350h100v-150h-100v150zM75 100h100v-100h-100v100z" />
    <glyph glyph-name="at" unicode="@" horiz-adv-x="900" 
d="M650 700v-100h-400v100h400zM150 600h100v-100h-100v100zM750 600v-100h-100v100h100zM50 500h100v-450h-100v450zM850 500v-350h-100v350h100zM650 150h-100v200h-200v100h300v-300zM350 150h-100v200h100v-200zM550 150v-100h-200v100h200zM650 150h100v-100h-100v100z
M150 -50v100h100v-100h-100zM250 -150v100h450v-100h-450z" />
    <glyph glyph-name="A" unicode="A" horiz-adv-x="600" 
d="M150 650v100h300v-100h-300zM550 650v-650h-100v250h-300v-250h-100v650h100v-300h300v300h100z" />
    <glyph glyph-name="B" unicode="B" horiz-adv-x="600" 
d="M450 450v-100h-300v-250h300v-100h-400v750h400v-100h-300v-200h300zM550 650v-200h-100v200h100zM450 350h100v-250h-100v250z" />
    <glyph glyph-name="C" unicode="C" horiz-adv-x="550" 
d="M500 750v-100h-350v100h350zM50 650h100v-550h-100v550zM150 0v100h350v-100h-350z" />
    <glyph glyph-name="D" unicode="D" horiz-adv-x="600" 
d="M450 100v-100h-400v750h400v-100h-300v-550h300zM550 650v-550h-100v550h100z" />
    <glyph glyph-name="E" unicode="E" 
d="M450 750v-100h-300v-200h300v-100h-300v-250h300v-100h-400v750h400z" />
    <glyph glyph-name="F" unicode="F" 
d="M450 750v-100h-300v-200h300v-100h-300v-350h-100v750h400z" />
    <glyph glyph-name="G" unicode="G" horiz-adv-x="600" 
d="M150 650v100h350v-100h-350zM150 100h-100v550h100v-550zM550 450v-350h-100v250h-100v100h200zM450 100v-100h-300v100h300z" />
    <glyph glyph-name="H" unicode="H" horiz-adv-x="600" 
d="M550 750v-750h-100v350h-300v-350h-100v750h100v-300h300v300h100z" />
    <glyph glyph-name="I" unicode="I" horiz-adv-x="200" 
d="M150 750v-750h-100v750h100z" />
    <glyph glyph-name="J" unicode="J" horiz-adv-x="400" 
d="M350 750v-650h-100v650h100zM250 100v-100h-200v100h200z" />
    <glyph glyph-name="K" unicode="K" horiz-adv-x="550" 
d="M400 450v-100h-250v-350h-100v750h100v-300h250zM500 750v-300h-100v300h100zM400 350h100v-350h-100v350z" />
    <glyph glyph-name="L" unicode="L" horiz-adv-x="475" 
d="M450 100v-100h-400v750h100v-650h300z" />
    <glyph glyph-name="M" unicode="M" horiz-adv-x="800" 
d="M250 450h-100v-450h-100v750h100v-150h100v-150zM750 750v-750h-100v450h-100v150h100v150h100zM350 250h-100v200h100v-200zM450 450h100v-200h-100v200zM350 250h100v-150h-100v150z" />
    <glyph glyph-name="N" unicode="N" horiz-adv-x="600" 
d="M250 475h-100v-475h-100v750h100v-125h100v-150zM550 750v-750h-100v125h-100v150h100v475h100zM350 275h-100v200h100v-200z" />
    <glyph glyph-name="O" unicode="O" horiz-adv-x="600" 
d="M150 650v100h300v-100h-300zM150 100h-100v550h100v-550zM550 650v-550h-100v550h100zM450 100v-100h-300v100h300z" />
    <glyph glyph-name="P" unicode="P" horiz-adv-x="600" 
d="M450 450v-100h-300v-350h-100v750h400v-100h-300v-200h300zM550 650v-200h-100v200h100z" />
    <glyph glyph-name="Q" unicode="Q" horiz-adv-x="600" 
d="M150 650v100h300v-100h-300zM150 100h-100v550h100v-550zM550 650v-550h-100v550h100zM350 100h100v-100h-100v-100h-100v100h-100v100h100v100h100v-100z" />
    <glyph glyph-name="R" unicode="R" horiz-adv-x="600" 
d="M450 450v-100h-300v-350h-100v750h400v-100h-300v-200h300zM550 650v-200h-100v200h100zM450 350h100v-350h-100v350z" />
    <glyph glyph-name="S" unicode="S" horiz-adv-x="600" 
d="M150 650v100h350v-100h-350zM150 450h-100v200h100v-200zM450 450v-100h-300v100h300zM550 350v-250h-100v250h100zM450 100v-100h-350v100h350z" />
    <glyph glyph-name="T" unicode="T" horiz-adv-x="550" 
d="M525 750v-100h-200v-650h-100v650h-200v100h500z" />
    <glyph glyph-name="U" unicode="U" horiz-adv-x="600" 
d="M150 100h-100v650h100v-650zM550 750v-650h-100v650h100zM450 100v-100h-300v100h300z" />
    <glyph glyph-name="V" unicode="V" horiz-adv-x="600" 
d="M150 300h-100v450h100v-450zM550 750v-450h-100v450h100zM250 150h-100v150h100v-150zM350 300h100v-150h-100v150zM250 150h100v-150h-100v150z" />
    <glyph glyph-name="W" unicode="W" horiz-adv-x="700" 
d="M150 100h-100v650h100v-650zM650 750v-650h-100v650h100zM400 100h-100v150h100v-150zM300 100v-100h-150v100h150zM550 100v-100h-150v100h150z" />
    <glyph glyph-name="X" unicode="X" horiz-adv-x="600" 
d="M150 450h-100v300h100v-300zM550 750v-300h-100v300h100zM450 450v-100h-300v100h300zM50 350h100v-350h-100v350zM450 350h100v-350h-100v350z" />
    <glyph glyph-name="Y" unicode="Y" horiz-adv-x="550" 
d="M150 450h-100v300h100v-300zM500 750v-750h-100v350h-250v100h250v300h100z" />
    <glyph glyph-name="Z" unicode="Z" horiz-adv-x="600" 
d="M550 750v-200h-100v100h-400v100h500zM350 550h100v-100h-100v100zM250 450h100v-150h-100v150zM150 300h100v-100h-100v100zM50 200h100v-100h400v-100h-500v200z" />
    <glyph glyph-name="bracketleft" unicode="[" horiz-adv-x="300" 
d="M250 800v-100h-100v-700h100v-100h-200v900h200z" />
    <glyph glyph-name="backslash" unicode="\" 
d="M150 550h-100v200h100v-200zM250 400h-100v150h100v-150zM350 200h-100v200h100v-200zM450 200v-200h-100v200h100z" />
    <glyph glyph-name="bracketright" unicode="]" horiz-adv-x="300" 
d="M250 800v-900h-200v100h100v700h-100v100h200z" />
    <glyph glyph-name="asciicircum" unicode="^" horiz-adv-x="550" 
d="M325 750v-100h-100v100h100zM125 650h100v-150h-100v150zM425 500h-100v150h100v-150zM25 500h100v-100h-100v100zM525 500v-100h-100v100h100z" />
    <glyph glyph-name="underscore" unicode="_" horiz-adv-x="600" 
d="M550 -50v-100h-500v100h500z" />
    <glyph glyph-name="grave" unicode="`" horiz-adv-x="200" 
d="M100 750v-100h-100v100h100zM200 650v-100h-100v100h100z" />
    <glyph glyph-name="a" unicode="a" horiz-adv-x="475" 
d="M325 500v-100h-250v100h250zM425 400v-400h-300v100h200v100h-200v100h200v100h100zM125 200v-100h-100v100h100z" />
    <glyph glyph-name="b" unicode="b" 
d="M350 100v-100h-300v800h100v-300h200v-100h-200v-300h200zM450 400v-300h-100v300h100z" />
    <glyph glyph-name="c" unicode="c" horiz-adv-x="450" 
d="M400 500v-100h-250v100h250zM50 400h100v-300h-100v300zM150 0v100h250v-100h-250z" />
    <glyph glyph-name="d" unicode="d" 
d="M450 800v-800h-300v100h200v300h-200v100h200v300h100zM150 100h-100v300h100v-300z" />
    <glyph glyph-name="e" unicode="e" 
d="M150 400v100h200v-100h-200zM450 400v-200h-300v-100h-100v300h100v-100h200v100h100zM150 0v100h250v-100h-250z" />
    <glyph glyph-name="f" unicode="f" horiz-adv-x="400" 
d="M375 800v-100h-150v100h150zM125 700h100v-200h100v-100h-100v-400h-100v400h-100v100h100v200z" />
    <glyph glyph-name="g" unicode="g" 
d="M450 500v-600h-100v200h-200v100h200v200h-200v100h300zM150 200h-100v200h100v-200zM150 0v-100h-100v100h100zM350 -100v-100h-200v100h200z" />
    <glyph glyph-name="h" unicode="h" 
d="M350 500v-100h-200v-400h-100v800h100v-300h200zM450 400v-400h-100v400h100z" />
    <glyph glyph-name="i" unicode="i" horiz-adv-x="200" 
d="M150 650v-100h-100v100h100zM50 500h100v-500h-100v500z" />
    <glyph glyph-name="j" unicode="j" horiz-adv-x="325" 
d="M275 650v-100h-100v100h100zM175 500h100v-600h-100v600zM175 -100v-100h-150v100h150z" />
    <glyph glyph-name="k" unicode="k" horiz-adv-x="450" 
d="M300 300v-100h-150v-200h-100v800h100v-500h150zM400 500v-200h-100v200h100zM300 200h100v-200h-100v200z" />
    <glyph glyph-name="l" unicode="l" horiz-adv-x="200" 
d="M150 800v-800h-100v800h100z" />
    <glyph glyph-name="m" unicode="m" horiz-adv-x="800" 
d="M350 500v-100h-200v-400h-100v500h300zM650 500v-100h-200v100h200zM350 400h100v-400h-100v400zM750 400v-400h-100v400h100z" />
    <glyph glyph-name="n" unicode="n" 
d="M350 500v-100h-200v-400h-100v500h300zM450 400v-400h-100v400h100z" />
    <glyph glyph-name="o" unicode="o" 
d="M150 400v100h200v-100h-200zM150 100h-100v300h100v-300zM450 400v-300h-100v300h100zM350 100v-100h-200v100h200z" />
    <glyph glyph-name="p" unicode="p" 
d="M350 200v-100h-200v-300h-100v700h300v-100h-200v-200h200zM450 400v-200h-100v200h100z" />
    <glyph glyph-name="q" unicode="q" horiz-adv-x="475" 
d="M425 500v-700h-100v300h-200v100h200v200h-200v100h300zM125 200h-100v200h100v-200z" />
    <glyph glyph-name="r" unicode="r" horiz-adv-x="375" 
d="M350 500v-100h-200v-400h-100v500h300z" />
    <glyph glyph-name="s" unicode="s" horiz-adv-x="450" 
d="M125 400v100h250v-100h-250zM125 400v-100h-100v100h100zM325 300v-100h-200v100h200zM425 200v-100h-100v100h100zM325 100v-100h-250v100h250z" />
    <glyph glyph-name="t" unicode="t" horiz-adv-x="350" 
d="M325 500v-100h-100v-400h-100v400h-100v100h100v100h100v-100h100z" />
    <glyph glyph-name="u" unicode="u" 
d="M150 100h-100v400h100v-400zM450 500v-500h-300v100h200v400h100z" />
    <glyph glyph-name="v" unicode="v" horiz-adv-x="600" 
d="M150 200h-100v300h100v-300zM550 500v-300h-100v300h100zM250 200v-100h-100v100h100zM350 200h100v-100h-100v100zM250 100h100v-100h-100v100z" />
    <glyph glyph-name="w" unicode="w" horiz-adv-x="800" 
d="M150 100h-100v400h100v-400zM450 100h-100v400h100v-400zM750 500v-500h-300v100h200v400h100zM350 100v-100h-200v100h200z" />
    <glyph glyph-name="x" unicode="x" 
d="M150 300h-100v200h100v-200zM450 500v-200h-100v200h100zM350 300v-100h-200v100h200zM50 200h100v-200h-100v200zM350 200h100v-200h-100v200z" />
    <glyph glyph-name="y" unicode="y" 
d="M150 200h-100v300h100v-300zM450 500v-600h-100v200h-200v100h200v300h100zM350 -100v-100h-250v100h250z" />
    <glyph glyph-name="z" unicode="z" horiz-adv-x="450" 
d="M400 500v-200h-100v100h-250v100h350zM300 300v-100h-150v100h150zM50 200h100v-100h250v-100h-350v200z" />
    <glyph glyph-name="braceleft" unicode="{" horiz-adv-x="400" 
d="M350 800v-100h-100v100h100zM150 700h100v-300h-100v300zM50 400h100v-100h-100v100zM150 300h100v-300h-100v300zM250 -100v100h100v-100h-100z" />
    <glyph glyph-name="bar" unicode="|" horiz-adv-x="200" 
d="M150 800v-900h-100v900h100z" />
    <glyph glyph-name="braceright" unicode="}" horiz-adv-x="400" 
d="M150 800v-100h-100v100h100zM250 400h-100v300h100v-300zM350 400v-100h-100v100h100zM150 300h100v-300h-100v300zM50 0h100v-100h-100v100z" />
    <glyph glyph-name="asciitilde" unicode="~" horiz-adv-x="550" 
d="M525 500v-100h-100v100h100zM425 400v-100h-300v100h300zM25 300h100v-100h-100v100z" />
    <glyph glyph-name="exclamdown" unicode="&#xa1;" horiz-adv-x="200" 
d="M150 550v-100h-100v100h100zM50 350h100v-550h-100v550z" />
    <glyph glyph-name="cent" unicode="&#xa2;" 
d="M450 600v-100h-300v100h100v100h100v-100h100zM50 500h100v-300h-100v300zM150 100v100h300v-100h-100v-100h-100v100h-100z" />
    <glyph glyph-name="sterling" unicode="&#xa3;" horiz-adv-x="600" 
d="M450 750v-100h-200v100h200zM150 650h100v-250h150v-100h-150v-200h300v-100h-500v100h100v200h-100v100h100v250zM550 650v-100h-100v100h100z" />
    <glyph glyph-name="currency" unicode="&#xa4;" horiz-adv-x="600" 
d="M150 600v-100h-100v100h100zM550 600v-100h-100v100h100zM450 500v-300h-300v300h300zM350 400h-100v-100h100v100zM50 200h100v-100h-100v100zM450 100v100h100v-100h-100z" />
    <glyph glyph-name="yen" unicode="&#xa5;" horiz-adv-x="600" 
d="M150 600h-100v150h100v-150zM550 750v-150h-100v150h100zM250 450h-100v150h100v-150zM350 600h100v-150h-100v150zM250 450h100v-100h150v-100h-150v-50h150v-100h-150v-100h-100v100h-150v100h150v50h-150v100h150v100z" />
    <glyph glyph-name="brokenbar" unicode="&#xa6;" horiz-adv-x="200" 
d="M150 800v-350h-100v350h100zM50 250h100v-350h-100v350z" />
    <glyph glyph-name="section" unicode="&#xa7;" 
d="M350 700v-100h-200v100h200zM50 600h100v-150h-100v150zM450 600v-100h-100v100h100zM150 350v100h200v-100h-200zM150 200h-100v150h100v-150zM350 350h100v-150h-100v150zM350 200v-100h-200v100h200zM350 100h100v-150h-100v150zM150 50v-100h-100v100h100zM350 -50
v-100h-200v100h200z" />
    <glyph glyph-name="dieresis" unicode="&#xa8;" horiz-adv-x="300" 
d="M0 650h100v-100h-100v100zM300 650v-100h-100v100h100z" />
    <glyph glyph-name="copyright" unicode="&#xa9;" horiz-adv-x="900" 
d="M250 600v100h400v-100h-400zM250 500h-100v100h100v-100zM650 500v100h100v-100h-100zM150 50h-100v450h100v-450zM600 500v-100h-250v100h250zM850 500v-450h-100v450h100zM250 400h100v-250h-100v250zM350 50v100h250v-100h-250zM250 50v-100h-100v100h100zM650 50h100
v-100h-100v100zM650 -50v-100h-400v100h400z" />
    <glyph glyph-name="ordfeminine" unicode="&#xaa;" horiz-adv-x="475" 
d="M325 900v-100h-250v100h250zM425 800v-400h-300v100h200v100h-200v100h200v100h100zM125 600v-100h-100v100h100z" />
    <glyph glyph-name="guillemotleft" unicode="&#xab;" horiz-adv-x="700" 
d="M350 400h-100v100h100v-100zM650 500v-100h-100v100h100zM250 300h-100v100h100v-100zM450 400h100v-100h-100v100zM150 300v-100h-100v100h100zM350 300h100v-100h-100v100zM250 200v-100h-100v100h100zM450 100v100h100v-100h-100zM250 100h100v-100h-100v100zM550 0
v100h100v-100h-100z" />
    <glyph glyph-name="logicalnot" unicode="&#xac;" horiz-adv-x="600" 
d="M550 400v-300h-100v200h-400v100h500z" />
    <glyph glyph-name="uni00AD" unicode="&#xad;" horiz-adv-x="400" 
d="M350 400v-100h-300v100h300z" />
    <glyph glyph-name="registered" unicode="&#xae;" horiz-adv-x="900" 
d="M250 600v100h400v-100h-400zM250 500h-100v100h100v-100zM650 500v100h100v-100h-100zM150 50h-100v450h100v-450zM850 500v-450h-100v450h100zM400 275h100v-100h-100v-100h-100v400h200v-100h-100v-100zM500 375h100v-100h-100v100zM500 75v100h100v-100h-100zM250 50
v-100h-100v100h100zM650 50h100v-100h-100v100zM650 -50v-100h-400v100h400z" />
    <glyph glyph-name="macron" unicode="&#xaf;" horiz-adv-x="300" 
d="M300 650v-100h-300v100h300z" />
    <glyph glyph-name="degree" unicode="&#xb0;" horiz-adv-x="425" 
d="M125 650v100h150v-100h-150zM125 500h-100v150h100v-150zM375 650v-150h-100v150h100zM275 500v-100h-150v100h150z" />
    <glyph glyph-name="plusminus" unicode="&#xb1;" 
d="M450 500v-100h-150v-100h-100v100h-150v100h150v100h100v-100h150zM450 200v-100h-400v100h400z" />
    <glyph glyph-name="uni00B2" unicode="&#xb2;" horiz-adv-x="325" 
d="M275 900v-300h-150v-100h150v-100h-250v300h150v100h-150v100h250z" />
    <glyph glyph-name="uni00B3" unicode="&#xb3;" horiz-adv-x="325" 
d="M275 900v-500h-250v100h150v100h-100v100h100v100h-150v100h250z" />
    <glyph glyph-name="acute" unicode="&#xb4;" horiz-adv-x="200" 
d="M200 750v-100h-100v100h100zM0 650h100v-100h-100v100z" />
    <glyph glyph-name="uni00B5" unicode="&#xb5;" horiz-adv-x="575" 
d="M350 100v-100h-200v-200h-100v700h100v-400h200zM450 100h-100v400h100v-400zM550 100v-100h-100v100h100z" />
    <glyph glyph-name="paragraph" unicode="&#xb6;" horiz-adv-x="575" 
d="M525 700v-800h-100v700h-250v100h350zM75 600h100v-300h-100v300zM175 200v100h200v-400h-100v300h-100z" />
    <glyph glyph-name="periodcentered" unicode="&#xb7;" horiz-adv-x="200" 
d="M150 450v-100h-100v100h100z" />
    <glyph glyph-name="cedilla" unicode="&#xb8;" horiz-adv-x="200" 
d="M100 0v-100h-100v100h100zM200 -100v-100h-100v100h100zM0 -200h100v-100h-100v100z" />
    <glyph glyph-name="uni00B9" unicode="&#xb9;" horiz-adv-x="275" 
d="M225 900v-500h-100v300h-100v100h100v100h100z" />
    <glyph glyph-name="ordmasculine" unicode="&#xba;" 
d="M150 800v100h200v-100h-200zM150 500h-100v300h100v-300zM450 800v-300h-100v300h100zM350 500v-100h-200v100h200z" />
    <glyph glyph-name="guillemotright" unicode="&#xbb;" horiz-adv-x="700" 
d="M150 500v-100h-100v100h100zM450 500v-100h-100v100h100zM250 400v-100h-100v100h100zM550 400v-100h-100v100h100zM350 200h-100v100h100v-100zM650 300v-100h-100v100h100zM150 200h100v-100h-100v100zM450 200h100v-100h-100v100zM50 100h100v-100h-100v100zM350 100
h100v-100h-100v100z" />
    <glyph glyph-name="onequarter" unicode="&#xbc;" horiz-adv-x="1050" 
d="M250 250h-100v300h-100v100h100v100h100v-500zM750 600h-100v150h100v-150zM550 600h100v-150h-100v150zM1000 300v-300h-100v200h-150v300h100v-200h150zM450 450h100v-150h-100v150zM350 300h100v-150h-100v150zM250 150h100v-150h-100v150z" />
    <glyph glyph-name="onehalf" unicode="&#xbd;" horiz-adv-x="1050" 
d="M250 250h-100v300h-100v100h100v100h100v-500zM750 600h-100v150h100v-150zM550 600h100v-150h-100v150zM1000 500v-300h-150v-100h150v-100h-250v300h150v100h-150v100h250zM450 450h100v-150h-100v150zM350 300h100v-150h-100v150zM250 150h100v-150h-100v150z" />
    <glyph glyph-name="threequarters" unicode="&#xbe;" horiz-adv-x="1100" 
d="M300 250h-250v100h150v100h-100v100h100v100h-150v100h250v-500zM800 600h-100v150h100v-150zM600 600h100v-150h-100v150zM1050 300v-300h-100v200h-150v300h100v-200h150zM500 450h100v-150h-100v150zM400 300h100v-150h-100v150zM300 150h100v-150h-100v150z" />
    <glyph glyph-name="questiondown" unicode="&#xbf;" horiz-adv-x="425" 
d="M350 450h-100v100h100v-100zM350 200h-100v150h100v-150zM250 100h-100v100h100v-100zM150 -100h-100v200h100v-200zM400 -100v-100h-250v100h250z" />
    <glyph glyph-name="Agrave" unicode="&#xc0;" horiz-adv-x="600" 
d="M250 900h-100v100h100v-100zM250 800v100h100v-100h-100zM150 650v100h300v-100h-300zM550 650v-650h-100v250h-300v-250h-100v650h100v-300h300v300h100z" />
    <glyph glyph-name="Aacute" unicode="&#xc1;" horiz-adv-x="600" 
d="M450 900h-100v100h100v-100zM350 800h-100v100h100v-100zM150 650v100h300v-100h-300zM550 650v-650h-100v250h-300v-250h-100v650h100v-300h300v300h100z" />
    <glyph glyph-name="Acircumflex" unicode="&#xc2;" horiz-adv-x="600" 
d="M350 900h-100v100h100v-100zM250 800h-100v100h100v-100zM350 800v100h100v-100h-100zM150 650v100h300v-100h-300zM550 650v-650h-100v250h-300v-250h-100v650h100v-300h300v300h100z" />
    <glyph glyph-name="Atilde" unicode="&#xc3;" horiz-adv-x="600" 
d="M300 900h-100v100h100v-100zM500 900h-100v100h100v-100zM200 800h-100v100h100v-100zM300 800v100h100v-100h-100zM150 650v100h300v-100h-300zM550 650v-650h-100v250h-300v-250h-100v650h100v-300h300v300h100z" />
    <glyph glyph-name="Adieresis" unicode="&#xc4;" horiz-adv-x="600" 
d="M250 800h-100v100h100v-100zM450 800h-100v100h100v-100zM150 650v100h300v-100h-300zM550 650v-650h-100v250h-300v-250h-100v650h100v-300h300v300h100z" />
    <glyph glyph-name="Aring" unicode="&#xc5;" horiz-adv-x="600" 
d="M350 1000h-100v100h100v-100zM250 900h-100v100h100v-100zM350 900v100h100v-100h-100zM250 900h100v-100h-100v100zM150 650v100h300v-100h-300zM550 650v-650h-100v250h-300v-250h-100v650h100v-300h300v300h100z" />
    <glyph glyph-name="AE" unicode="&#xc6;" horiz-adv-x="750" 
d="M350 650h-100v100h100v-100zM700 750v-100h-250v100h250zM350 650h100v-200h250v-100h-250v-250h250v-100h-350v250h-200v-250h-100v500h100v-150h200v300zM250 500h-100v150h100v-150z" />
    <glyph glyph-name="Ccedilla" unicode="&#xc7;" horiz-adv-x="550" 
d="M500 750v-100h-350v100h350zM50 650h100v-550h-100v550zM150 0v100h350v-100h-150v-100h-100v100h-100zM350 -200v100h100v-100h-100zM250 -200h100v-100h-100v100z" />
    <glyph glyph-name="Egrave" unicode="&#xc8;" 
d="M200 900h-100v100h100v-100zM200 800v100h100v-100h-100zM450 750v-100h-300v-200h300v-100h-300v-250h300v-100h-400v750h400z" />
    <glyph glyph-name="Eacute" unicode="&#xc9;" 
d="M400 900h-100v100h100v-100zM300 800h-100v100h100v-100zM450 750v-100h-300v-200h300v-100h-300v-250h300v-100h-400v750h400z" />
    <glyph glyph-name="Ecircumflex" unicode="&#xca;" 
d="M300 900h-100v100h100v-100zM200 800h-100v100h100v-100zM300 800v100h100v-100h-100zM450 750v-100h-300v-200h300v-100h-300v-250h300v-100h-400v750h400z" />
    <glyph glyph-name="Edieresis" unicode="&#xcb;" 
d="M200 800h-100v100h100v-100zM400 800h-100v100h100v-100zM450 750v-100h-300v-200h300v-100h-300v-250h300v-100h-400v750h400z" />
    <glyph glyph-name="Igrave" unicode="&#xcc;" horiz-adv-x="275" 
d="M125 1000v-100h-100v100h100zM225 900v-100h-100v100h100zM125 750h100v-750h-100v750z" />
    <glyph glyph-name="Iacute" unicode="&#xcd;" horiz-adv-x="275" 
d="M250 1000v-100h-100v100h100zM50 900h100v-100h-100v100zM50 750h100v-750h-100v750z" />
    <glyph glyph-name="Icircumflex" unicode="&#xce;" horiz-adv-x="350" 
d="M225 1000v-100h-100v100h100zM25 900h100v-100h-100v100zM325 900v-100h-100v100h100zM125 750h100v-750h-100v750z" />
    <glyph glyph-name="Idieresis" unicode="&#xcf;" horiz-adv-x="350" 
d="M125 800h-100v100h100v-100zM325 900v-100h-100v100h100zM125 750h100v-750h-100v750z" />
    <glyph glyph-name="Eth" unicode="&#xd0;" horiz-adv-x="675" 
d="M525 100v-100h-400v325h-100v100h100v325h400v-100h-300v-225h100v-100h-100v-225h300zM625 650v-550h-100v550h100z" />
    <glyph glyph-name="Ntilde" unicode="&#xd1;" horiz-adv-x="600" 
d="M300 900h-100v100h100v-100zM500 900h-100v100h100v-100zM200 800h-100v100h100v-100zM300 800v100h100v-100h-100zM250 475h-100v-475h-100v750h100v-125h100v-150zM550 750v-750h-100v125h-100v150h100v475h100zM350 275h-100v200h100v-200z" />
    <glyph glyph-name="Ograve" unicode="&#xd2;" horiz-adv-x="600" 
d="M250 900h-100v100h100v-100zM250 800v100h100v-100h-100zM150 650v100h300v-100h-300zM150 100h-100v550h100v-550zM550 650v-550h-100v550h100zM450 100v-100h-300v100h300z" />
    <glyph glyph-name="Oacute" unicode="&#xd3;" horiz-adv-x="600" 
d="M450 900h-100v100h100v-100zM350 800h-100v100h100v-100zM150 650v100h300v-100h-300zM150 100h-100v550h100v-550zM550 650v-550h-100v550h100zM450 100v-100h-300v100h300z" />
    <glyph glyph-name="Ocircumflex" unicode="&#xd4;" horiz-adv-x="600" 
d="M350 900h-100v100h100v-100zM250 800h-100v100h100v-100zM350 800v100h100v-100h-100zM150 650v100h300v-100h-300zM150 100h-100v550h100v-550zM550 650v-550h-100v550h100zM450 100v-100h-300v100h300z" />
    <glyph glyph-name="Otilde" unicode="&#xd5;" horiz-adv-x="600" 
d="M300 900h-100v100h100v-100zM500 900h-100v100h100v-100zM200 800h-100v100h100v-100zM300 800v100h100v-100h-100zM150 650v100h300v-100h-300zM150 100h-100v550h100v-550zM550 650v-550h-100v550h100zM450 100v-100h-300v100h300z" />
    <glyph glyph-name="Odieresis" unicode="&#xd6;" horiz-adv-x="600" 
d="M250 800h-100v100h100v-100zM450 800h-100v100h100v-100zM150 650v100h300v-100h-300zM150 100h-100v550h100v-550zM550 650v-550h-100v550h100zM450 100v-100h-300v100h300z" />
    <glyph glyph-name="multiply" unicode="&#xd7;" 
d="M200 500v-100h-150v100h150zM450 500v-100h-150v100h150zM200 400h100v-100h-100v100zM200 300v-100h-150v100h150zM300 200v100h150v-100h-150z" />
    <glyph glyph-name="Oslash" unicode="&#xd8;" horiz-adv-x="600" 
d="M550 650v-550h-100v400h-100v150h-200v100h300v-100h100zM450 100v-100h-300v100h-100v550h100v-400h100v-150h200zM250 500h100v-250h-100v250z" />
    <glyph glyph-name="Ugrave" unicode="&#xd9;" horiz-adv-x="600" 
d="M250 900h-100v100h100v-100zM250 800v100h100v-100h-100zM150 100h-100v650h100v-650zM550 750v-650h-100v650h100zM450 100v-100h-300v100h300z" />
    <glyph glyph-name="Uacute" unicode="&#xda;" horiz-adv-x="600" 
d="M450 900h-100v100h100v-100zM350 800h-100v100h100v-100zM150 100h-100v650h100v-650zM550 750v-650h-100v650h100zM450 100v-100h-300v100h300z" />
    <glyph glyph-name="Ucircumflex" unicode="&#xdb;" horiz-adv-x="600" 
d="M350 900h-100v100h100v-100zM250 800h-100v100h100v-100zM350 800v100h100v-100h-100zM150 100h-100v650h100v-650zM550 750v-650h-100v650h100zM450 100v-100h-300v100h300z" />
    <glyph glyph-name="Udieresis" unicode="&#xdc;" horiz-adv-x="600" 
d="M250 800h-100v100h100v-100zM450 800h-100v100h100v-100zM150 100h-100v650h100v-650zM550 750v-650h-100v650h100zM450 100v-100h-300v100h300z" />
    <glyph glyph-name="Yacute" unicode="&#xdd;" horiz-adv-x="550" 
d="M425 900h-100v100h100v-100zM325 800h-100v100h100v-100zM150 450h-100v300h100v-300zM500 750v-750h-100v350h-250v100h250v300h100z" />
    <glyph glyph-name="Thorn" unicode="&#xde;" horiz-adv-x="600" 
d="M450 300v-100h-300v-200h-100v750h100v-150h300v-100h-300v-200h300zM550 500v-200h-100v200h100z" />
    <glyph glyph-name="germandbls" unicode="&#xdf;" horiz-adv-x="550" 
d="M400 800v-100h-250v100h250zM50 700h100v-700h-100v700zM500 700v-200h-100v200h100zM400 500v-100h-150v100h150zM400 400h100v-300h-100v300zM400 100v-100h-150v100h150z" />
    <glyph glyph-name="agrave" unicode="&#xe0;" horiz-adv-x="475" 
d="M175 650h-100v100h100v-100zM175 550v100h100v-100h-100zM325 500v-100h-250v100h250zM425 400v-400h-300v100h200v100h-200v100h200v100h100zM125 200v-100h-100v100h100z" />
    <glyph glyph-name="aacute" unicode="&#xe1;" horiz-adv-x="475" 
d="M375 650h-100v100h100v-100zM275 550h-100v100h100v-100zM325 500v-100h-250v100h250zM425 400v-400h-300v100h200v100h-200v100h200v100h100zM125 200v-100h-100v100h100z" />
    <glyph glyph-name="acircumflex" unicode="&#xe2;" horiz-adv-x="475" 
d="M275 650h-100v100h100v-100zM175 550h-100v100h100v-100zM275 550v100h100v-100h-100zM325 500v-100h-250v100h250zM425 400v-400h-300v100h200v100h-200v100h200v100h100zM125 200v-100h-100v100h100z" />
    <glyph glyph-name="atilde" unicode="&#xe3;" horiz-adv-x="475" 
d="M225 750v-100h-100v100h100zM425 750v-100h-100v100h100zM25 650h100v-100h-100v100zM225 650h100v-100h-100v100zM325 500v-100h-250v100h250zM325 400h100v-400h-300v100h200v100h-200v100h200v100zM125 200v-100h-100v100h100z" />
    <glyph glyph-name="adieresis" unicode="&#xe4;" horiz-adv-x="475" 
d="M175 550h-100v100h100v-100zM375 550h-100v100h100v-100zM325 500v-100h-250v100h250zM425 400v-400h-300v100h200v100h-200v100h200v100h100zM125 200v-100h-100v100h100z" />
    <glyph glyph-name="aring" unicode="&#xe5;" horiz-adv-x="475" 
d="M275 750h-100v100h100v-100zM175 650h-100v100h100v-100zM275 650v100h100v-100h-100zM175 650h100v-100h-100v100zM325 500v-100h-250v100h250zM425 400v-400h-300v100h200v100h-200v100h200v100h100zM125 200v-100h-100v100h100z" />
    <glyph glyph-name="ae" unicode="&#xe6;" horiz-adv-x="775" 
d="M325 500v-100h-250v100h250zM425 400v100h200v-100h-200zM725 400v-200h-300v-100h-100v100h-200v100h200v100h100v-100h200v100h100zM125 200v-100h-100v100h100zM325 100v-100h-200v100h200zM425 0v100h250v-100h-250z" />
    <glyph glyph-name="ccedilla" unicode="&#xe7;" horiz-adv-x="450" 
d="M400 500v-100h-250v100h250zM50 400h100v-300h-100v300zM150 0v100h250v-200h-100v100h-150zM200 -100h100v-100h-100v100z" />
    <glyph glyph-name="egrave" unicode="&#xe8;" 
d="M200 650h-100v100h100v-100zM200 550v100h100v-100h-100zM150 400v100h200v-100h-200zM450 400v-200h-300v-100h-100v300h100v-100h200v100h100zM150 0v100h250v-100h-250z" />
    <glyph glyph-name="eacute" unicode="&#xe9;" 
d="M400 650h-100v100h100v-100zM300 550h-100v100h100v-100zM150 400v100h200v-100h-200zM450 400v-200h-300v-100h-100v300h100v-100h200v100h100zM150 0v100h250v-100h-250z" />
    <glyph glyph-name="ecircumflex" unicode="&#xea;" 
d="M300 650h-100v100h100v-100zM200 550h-100v100h100v-100zM300 550v100h100v-100h-100zM150 400v100h200v-100h-200zM450 400v-200h-300v-100h-100v300h100v-100h200v100h100zM150 0v100h250v-100h-250z" />
    <glyph glyph-name="edieresis" unicode="&#xeb;" 
d="M200 550h-100v100h100v-100zM400 550h-100v100h100v-100zM150 400v100h200v-100h-200zM450 400v-200h-300v-100h-100v300h100v-100h200v100h100zM150 0v100h250v-100h-250z" />
    <glyph glyph-name="igrave" unicode="&#xec;" horiz-adv-x="275" 
d="M125 750v-100h-100v100h100zM225 650v-100h-100v100h100zM125 500h100v-500h-100v500z" />
    <glyph glyph-name="iacute" unicode="&#xed;" horiz-adv-x="275" 
d="M250 750v-100h-100v100h100zM50 650h100v-100h-100v100zM50 500h100v-500h-100v500z" />
    <glyph glyph-name="icircumflex" unicode="&#xee;" horiz-adv-x="350" 
d="M225 750v-100h-100v100h100zM25 650h100v-100h-100v100zM325 650v-100h-100v100h100zM125 500h100v-500h-100v500z" />
    <glyph glyph-name="idieresis" unicode="&#xef;" horiz-adv-x="350" 
d="M125 550h-100v100h100v-100zM325 650v-100h-100v100h100zM125 500h100v-500h-100v500z" />
    <glyph glyph-name="eth" unicode="&#xf0;" horiz-adv-x="575" 
d="M550 700v-100h-100v-600h-300v100h200v300h-200v100h200v100h-100v100h100v100h100v-100h100zM150 100h-100v300h100v-300z" />
    <glyph glyph-name="ntilde" unicode="&#xf1;" 
d="M250 750v-100h-100v100h100zM450 750v-100h-100v100h100zM50 650h100v-100h-100v100zM250 650h100v-100h-100v100zM350 500v-100h-200v-400h-100v500h300zM350 400h100v-400h-100v400z" />
    <glyph glyph-name="ograve" unicode="&#xf2;" 
d="M200 650h-100v100h100v-100zM200 550v100h100v-100h-100zM150 400v100h200v-100h-200zM150 100h-100v300h100v-300zM450 400v-300h-100v300h100zM350 100v-100h-200v100h200z" />
    <glyph glyph-name="oacute" unicode="&#xf3;" 
d="M400 650h-100v100h100v-100zM300 550h-100v100h100v-100zM150 400v100h200v-100h-200zM150 100h-100v300h100v-300zM450 400v-300h-100v300h100zM350 100v-100h-200v100h200z" />
    <glyph glyph-name="ocircumflex" unicode="&#xf4;" 
d="M300 650h-100v100h100v-100zM200 550h-100v100h100v-100zM300 550v100h100v-100h-100zM150 400v100h200v-100h-200zM150 100h-100v300h100v-300zM450 400v-300h-100v300h100zM350 100v-100h-200v100h200z" />
    <glyph glyph-name="otilde" unicode="&#xf5;" 
d="M250 750v-100h-100v100h100zM450 750v-100h-100v100h100zM50 650h100v-100h-100v100zM250 650h100v-100h-100v100zM150 400v100h200v-100h-200zM150 100h-100v300h100v-300zM350 400h100v-300h-100v300zM350 100v-100h-200v100h200z" />
    <glyph glyph-name="odieresis" unicode="&#xf6;" 
d="M200 550h-100v100h100v-100zM400 550h-100v100h100v-100zM150 400v100h200v-100h-200zM150 100h-100v300h100v-300zM450 400v-300h-100v300h100zM350 100v-100h-200v100h200z" />
    <glyph glyph-name="divide" unicode="&#xf7;" 
d="M300 450h-100v100h100v-100zM450 400v-100h-400v100h400zM200 250h100v-100h-100v100z" />
    <glyph glyph-name="oslash" unicode="&#xf8;" 
d="M450 400v-300h-100v150h-100v150h-100v100h200v-100h100zM250 100h100v-100h-200v100h-100v300h100v-150h100v-150z" />
    <glyph glyph-name="ugrave" unicode="&#xf9;" 
d="M200 650h-100v100h100v-100zM200 550v100h100v-100h-100zM150 100h-100v400h100v-400zM450 500v-500h-300v100h200v400h100z" />
    <glyph glyph-name="uacute" unicode="&#xfa;" 
d="M400 650h-100v100h100v-100zM300 550h-100v100h100v-100zM150 100h-100v400h100v-400zM450 500v-500h-300v100h200v400h100z" />
    <glyph glyph-name="ucircumflex" unicode="&#xfb;" 
d="M300 650h-100v100h100v-100zM200 550h-100v100h100v-100zM300 550v100h100v-100h-100zM150 100h-100v400h100v-400zM450 500v-500h-300v100h200v400h100z" />
    <glyph glyph-name="udieresis" unicode="&#xfc;" 
d="M200 550h-100v100h100v-100zM400 550h-100v100h100v-100zM150 100h-100v400h100v-400zM450 500v-500h-300v100h200v400h100z" />
    <glyph glyph-name="yacute" unicode="&#xfd;" 
d="M400 650h-100v100h100v-100zM300 550h-100v100h100v-100zM150 200h-100v300h100v-300zM450 500v-600h-100v200h-200v100h200v300h100zM350 -100v-100h-250v100h250z" />
    <glyph glyph-name="thorn" unicode="&#xfe;" 
d="M350 150v-100h-200v-250h-100v1000h100v-250h200v-100h-200v-300h200zM450 450v-300h-100v300h100z" />
    <glyph glyph-name="ydieresis" unicode="&#xff;" 
d="M200 550h-100v100h100v-100zM400 550h-100v100h100v-100zM150 200h-100v300h100v-300zM450 500v-600h-100v200h-200v100h200v300h100zM350 -100v-100h-250v100h250z" />
    <glyph glyph-name="Amacron" unicode="&#x100;" horiz-adv-x="600" 
d="M150 800v100h300v-100h-300zM150 650v100h300v-100h-300zM550 650v-650h-100v250h-300v-250h-100v650h100v-300h300v300h100z" />
    <glyph glyph-name="amacron" unicode="&#x101;" horiz-adv-x="475" 
d="M75 550v100h300v-100h-300zM325 500v-100h-250v100h250zM425 400v-400h-300v100h200v100h-200v100h200v100h100zM125 200v-100h-100v100h100z" />
    <glyph glyph-name="Abreve" unicode="&#x102;" horiz-adv-x="600" 
d="M200 900h-100v100h100v-100zM500 900h-100v100h100v-100zM200 800v100h200v-100h-200zM150 650v100h300v-100h-300zM550 650v-650h-100v250h-300v-250h-100v650h100v-300h300v300h100z" />
    <glyph glyph-name="abreve" unicode="&#x103;" horiz-adv-x="475" 
d="M125 750v-100h-100v100h100zM425 750v-100h-100v100h100zM325 650v-100h-200v100h200zM325 500v-100h-250v100h250zM325 400h100v-400h-300v100h200v100h-200v100h200v100zM125 200v-100h-100v100h100z" />
    <glyph glyph-name="Aogonek" unicode="&#x104;" horiz-adv-x="600" 
d="M150 650v100h300v-100h-300zM550 650v-750h-100v350h-300v-250h-100v650h100v-300h300v300h100zM350 -100h100v-100h-100v100zM450 -300v100h100v-100h-100z" />
    <glyph glyph-name="aogonek" unicode="&#x105;" horiz-adv-x="475" 
d="M325 500v-100h-250v100h250zM425 400v-400h-200v-100h-100v200h200v100h-200v100h200v100h100zM125 200v-100h-100v100h100zM225 -200v100h100v-100h-100z" />
    <glyph glyph-name="Cacute" unicode="&#x106;" horiz-adv-x="550" 
d="M475 900h-100v100h100v-100zM375 800h-100v100h100v-100zM500 750v-100h-350v100h350zM50 650h100v-550h-100v550zM150 0v100h350v-100h-350z" />
    <glyph glyph-name="cacute" unicode="&#x107;" horiz-adv-x="450" 
d="M425 750v-100h-100v100h100zM225 650h100v-100h-100v100zM400 500v-100h-250v100h250zM50 400h100v-300h-100v300zM150 0v100h250v-100h-250z" />
    <glyph glyph-name="Cdotaccent" unicode="&#x10a;" horiz-adv-x="550" 
d="M375 800h-100v100h100v-100zM500 750v-100h-350v100h350zM50 650h100v-550h-100v550zM150 0v100h350v-100h-350z" />
    <glyph glyph-name="cdotaccent" unicode="&#x10b;" horiz-adv-x="450" 
d="M325 550h-100v100h100v-100zM400 500v-100h-250v100h250zM50 400h100v-300h-100v300zM150 0v100h250v-100h-250z" />
    <glyph glyph-name="Ccaron" unicode="&#x10c;" horiz-adv-x="550" 
d="M275 900h-100v100h100v-100zM475 900h-100v100h100v-100zM275 800v100h100v-100h-100zM500 750v-100h-350v100h350zM50 650h100v-550h-100v550zM150 0v100h350v-100h-350z" />
    <glyph glyph-name="ccaron" unicode="&#x10d;" horiz-adv-x="450" 
d="M225 750v-100h-100v100h100zM425 750v-100h-100v100h100zM225 650h100v-100h-100v100zM400 500v-100h-250v100h250zM50 400h100v-300h-100v300zM150 0v100h250v-100h-250z" />
    <glyph glyph-name="Dcaron" unicode="&#x10e;" horiz-adv-x="600" 
d="M250 900h-100v100h100v-100zM450 900h-100v100h100v-100zM250 800v100h100v-100h-100zM450 100v-100h-400v750h400v-100h-300v-550h300zM550 650v-550h-100v550h100z" />
    <glyph glyph-name="dcaron" unicode="&#x10f;" horiz-adv-x="625" 
d="M350 800h100v-800h-300v100h200v300h-200v100h200v300zM600 800v-200h-100v200h100zM150 100h-100v300h100v-300z" />
    <glyph glyph-name="Dcroat" unicode="&#x110;" horiz-adv-x="675" 
d="M525 100v-100h-400v325h-100v100h100v325h400v-100h-300v-225h100v-100h-100v-225h300zM625 650v-550h-100v550h100z" />
    <glyph glyph-name="dcroat" unicode="&#x111;" horiz-adv-x="575" 
d="M550 700v-100h-100v-600h-300v100h200v300h-200v100h200v100h-100v100h100v100h100v-100h100zM150 100h-100v300h100v-300z" />
    <glyph glyph-name="Emacron" unicode="&#x112;" 
d="M100 800v100h300v-100h-300zM450 750v-100h-300v-200h300v-100h-300v-250h300v-100h-400v750h400z" />
    <glyph glyph-name="emacron" unicode="&#x113;" 
d="M100 550v100h300v-100h-300zM150 400v100h200v-100h-200zM450 400v-200h-300v-100h-100v300h100v-100h200v100h100zM150 0v100h250v-100h-250z" />
    <glyph glyph-name="Edotaccent" unicode="&#x116;" 
d="M300 800h-100v100h100v-100zM450 750v-100h-300v-200h300v-100h-300v-250h300v-100h-400v750h400z" />
    <glyph glyph-name="edotaccent" unicode="&#x117;" 
d="M300 550h-100v100h100v-100zM150 400v100h200v-100h-200zM450 400v-200h-300v-100h-100v300h100v-100h200v100h100zM150 0v100h250v-100h-250z" />
    <glyph glyph-name="Eogonek" unicode="&#x118;" 
d="M450 750v-100h-300v-200h300v-100h-300v-250h300v-200h-100v100h-300v750h400zM250 -100h100v-100h-100v100zM350 -300v100h100v-100h-100z" />
    <glyph glyph-name="eogonek" unicode="&#x119;" 
d="M150 400v100h200v-100h-200zM450 400v-200h-300v-100h-100v300h100v-100h200v100h100zM150 100h250v-100h-150v-100h-100v200zM250 -200v100h100v-100h-100z" />
    <glyph glyph-name="Ecaron" unicode="&#x11a;" 
d="M200 900h-100v100h100v-100zM400 900h-100v100h100v-100zM200 800v100h100v-100h-100zM450 750v-100h-300v-200h300v-100h-300v-250h300v-100h-400v750h400z" />
    <glyph glyph-name="ecaron" unicode="&#x11b;" 
d="M200 650h-100v100h100v-100zM400 650h-100v100h100v-100zM200 550v100h100v-100h-100zM150 400v100h200v-100h-200zM450 400v-200h-300v-100h-100v300h100v-100h200v100h100zM150 0v100h250v-100h-250z" />
    <glyph glyph-name="Gbreve" unicode="&#x11e;" horiz-adv-x="600" 
d="M200 900h-100v100h100v-100zM500 900h-100v100h100v-100zM200 800v100h200v-100h-200zM150 650v100h350v-100h-350zM150 100h-100v550h100v-550zM550 450v-350h-100v250h-100v100h200zM450 100v-100h-300v100h300z" />
    <glyph glyph-name="gbreve" unicode="&#x11f;" 
d="M150 750v-100h-100v100h100zM450 750v-100h-100v100h100zM350 650v-100h-200v100h200zM450 500v-600h-100v200h-200v100h200v200h-200v100h300zM150 200h-100v200h100v-200zM150 0v-100h-100v100h100zM350 -100v-100h-200v100h200z" />
    <glyph glyph-name="Gdotaccent" unicode="&#x120;" horiz-adv-x="600" 
d="M375 800h-100v100h100v-100zM150 650v100h350v-100h-350zM150 100h-100v550h100v-550zM550 450v-350h-100v250h-100v100h200zM450 100v-100h-300v100h300z" />
    <glyph glyph-name="gdotaccent" unicode="&#x121;" 
d="M300 550h-100v100h100v-100zM450 500v-600h-100v200h-200v100h200v200h-200v100h300zM150 200h-100v200h100v-200zM150 0v-100h-100v100h100zM350 -100v-100h-200v100h200z" />
    <glyph glyph-name="Gcommaaccent" unicode="&#x122;" horiz-adv-x="600" 
d="M150 650v100h350v-100h-350zM150 100h-100v550h100v-550zM550 450v-350h-100v250h-100v100h200zM450 100v-100h-300v100h300zM250 -50h100v-150h-100v150zM150 -200h100v-100h-100v100z" />
    <glyph glyph-name="gcommaaccent" unicode="&#x123;" 
d="M400 650h-100v100h100v-100zM300 550h-100v100h100v-100zM450 500v-600h-100v200h-200v100h200v200h-200v100h300zM150 200h-100v200h100v-200zM150 0v-100h-100v100h100zM350 -100v-100h-200v100h200z" />
    <glyph glyph-name="Hbar" unicode="&#x126;" horiz-adv-x="750" 
d="M725 650v-100h-100v-550h-100v350h-300v-350h-100v550h-100v100h100v100h100v-100h300v100h100v-100h100zM525 550h-300v-100h300v100z" />
    <glyph glyph-name="hbar" unicode="&#x127;" horiz-adv-x="575" 
d="M425 500v-100h-200v-400h-100v600h-100v100h100v100h100v-100h100v-100h-100v-100h200zM525 400v-400h-100v400h100z" />
    <glyph glyph-name="Itilde" unicode="&#x128;" horiz-adv-x="450" 
d="M225 1000v-100h-100v100h100zM425 1000v-100h-100v100h100zM25 900h100v-100h-100v100zM225 900h100v-100h-100v100zM175 750h100v-750h-100v750z" />
    <glyph glyph-name="itilde" unicode="&#x129;" horiz-adv-x="400" 
d="M200 750v-100h-100v100h100zM400 750v-100h-100v100h100zM0 650h100v-100h-100v100zM200 650h100v-100h-100v100zM150 500h100v-500h-100v500z" />
    <glyph glyph-name="Imacron" unicode="&#x12a;" horiz-adv-x="350" 
d="M325 900v-100h-300v100h300zM125 750h100v-750h-100v750z" />
    <glyph glyph-name="imacron" unicode="&#x12b;" horiz-adv-x="350" 
d="M325 650v-100h-300v100h300zM125 500h100v-500h-100v500z" />
    <glyph glyph-name="Iogonek" unicode="&#x12e;" horiz-adv-x="275" 
d="M225 750v-850h-100v850h100zM25 -100h100v-100h-100v100zM125 -300v100h100v-100h-100z" />
    <glyph glyph-name="iogonek" unicode="&#x12f;" horiz-adv-x="275" 
d="M225 650v-100h-100v100h100zM125 500h100v-500h-100v500zM25 0h100v-100h-100v100zM125 -200v100h100v-100h-100z" />
    <glyph glyph-name="Idotaccent" unicode="&#x130;" horiz-adv-x="200" 
d="M150 900v-100h-100v100h100zM50 750h100v-750h-100v750z" />
    <glyph glyph-name="dotlessi" unicode="&#x131;" horiz-adv-x="200" 
d="M150 500v-500h-100v500h100z" />
    <glyph glyph-name="Kcommaaccent" unicode="&#x136;" horiz-adv-x="550" 
d="M400 450v-100h-250v-350h-100v750h100v-300h250zM500 750v-300h-100v300h100zM400 350h100v-350h-100v350zM225 -50h100v-150h-100v150zM125 -200h100v-100h-100v100z" />
    <glyph glyph-name="kcommaaccent" unicode="&#x137;" horiz-adv-x="450" 
d="M300 300v-100h-150v-200h-100v800h100v-500h150zM400 500v-200h-100v200h100zM300 200h100v-200h-100v200zM200 -50h100v-150h-100v150zM100 -200h100v-100h-100v100z" />
    <glyph glyph-name="Lacute" unicode="&#x139;" horiz-adv-x="475" 
d="M250 900h-100v100h100v-100zM150 800h-100v100h100v-100zM450 100v-100h-400v750h100v-650h300z" />
    <glyph glyph-name="lacute" unicode="&#x13a;" horiz-adv-x="275" 
d="M250 1050v-100h-100v100h100zM50 950h100v-100h-100v100zM50 800h100v-800h-100v800z" />
    <glyph glyph-name="Lcommaaccent" unicode="&#x13b;" horiz-adv-x="475" 
d="M450 100v-100h-400v750h100v-650h300zM200 -50h100v-150h-100v150zM100 -200h100v-100h-100v100z" />
    <glyph glyph-name="lcommaaccent" unicode="&#x13c;" horiz-adv-x="275" 
d="M225 800v-800h-100v800h100zM125 -50h100v-150h-100v150zM25 -200h100v-100h-100v100z" />
    <glyph glyph-name="Lcaron" unicode="&#x13d;" horiz-adv-x="475" 
d="M450 100v-100h-400v750h100v-650h300zM350 550h-100v200h100v-200z" />
    <glyph glyph-name="lcaron" unicode="&#x13e;" horiz-adv-x="325" 
d="M50 800h100v-800h-100v800zM300 800v-200h-100v200h100z" />
    <glyph glyph-name="Lslash" unicode="&#x141;" horiz-adv-x="550" 
d="M525 100v-100h-400v350h-100v100h100v300h100v-300h100v-100h-100v-250h300z" />
    <glyph glyph-name="lslash" unicode="&#x142;" horiz-adv-x="350" 
d="M325 500v-100h-100v-400h-100v300h-100v100h100v400h100v-300h100z" />
    <glyph glyph-name="Nacute" unicode="&#x143;" horiz-adv-x="600" 
d="M450 900h-100v100h100v-100zM350 800h-100v100h100v-100zM250 475h-100v-475h-100v750h100v-125h100v-150zM550 750v-750h-100v125h-100v150h100v475h100zM350 275h-100v200h100v-200z" />
    <glyph glyph-name="nacute" unicode="&#x144;" 
d="M400 650h-100v100h100v-100zM300 550h-100v100h100v-100zM350 500v-100h-200v-400h-100v500h300zM450 400v-400h-100v400h100z" />
    <glyph glyph-name="Ncommaaccent" unicode="&#x145;" horiz-adv-x="600" 
d="M250 475h-100v-475h-100v750h100v-125h100v-150zM550 750v-750h-100v125h-100v150h100v475h100zM350 275h-100v200h100v-200zM250 -50h100v-150h-100v150zM150 -200h100v-100h-100v100z" />
    <glyph glyph-name="ncommaaccent" unicode="&#x146;" 
d="M350 500v-100h-200v-400h-100v500h300zM450 400v-400h-100v400h100zM200 -50h100v-150h-100v150zM100 -200h100v-100h-100v100z" />
    <glyph glyph-name="Ncaron" unicode="&#x147;" horiz-adv-x="600" 
d="M250 900h-100v100h100v-100zM450 900h-100v100h100v-100zM250 800v100h100v-100h-100zM250 475h-100v-475h-100v750h100v-125h100v-150zM550 750v-750h-100v125h-100v150h100v475h100zM350 275h-100v200h100v-200z" />
    <glyph glyph-name="ncaron" unicode="&#x148;" 
d="M200 650h-100v100h100v-100zM400 650h-100v100h100v-100zM200 550v100h100v-100h-100zM350 500v-100h-200v-400h-100v500h300zM450 400v-400h-100v400h100z" />
    <glyph glyph-name="Eng" unicode="&#x14a;" horiz-adv-x="600" 
d="M250 475h-100v-475h-100v750h100v-125h100v-150zM550 750v-850h-100v225h-100v150h100v475h100zM350 275h-100v200h100v-200zM450 -100v-100h-150v100h150z" />
    <glyph glyph-name="eng" unicode="&#x14b;" 
d="M350 500v-100h-200v-400h-100v500h300zM450 400v-500h-100v500h100zM350 -100v-100h-150v100h150z" />
    <glyph glyph-name="Omacron" unicode="&#x14c;" horiz-adv-x="600" 
d="M150 800v100h300v-100h-300zM150 650v100h300v-100h-300zM150 100h-100v550h100v-550zM550 650v-550h-100v550h100zM450 100v-100h-300v100h300z" />
    <glyph glyph-name="omacron" unicode="&#x14d;" 
d="M100 550v100h300v-100h-300zM150 400v100h200v-100h-200zM150 100h-100v300h100v-300zM450 400v-300h-100v300h100zM350 100v-100h-200v100h200z" />
    <glyph glyph-name="Ohungarumlaut" unicode="&#x150;" horiz-adv-x="600" 
d="M250 800h-100v200h100v-200zM450 800h-100v200h100v-200zM150 650v100h300v-100h-300zM150 100h-100v550h100v-550zM550 650v-550h-100v550h100zM450 100v-100h-300v100h300z" />
    <glyph glyph-name="ohungarumlaut" unicode="&#x151;" 
d="M200 550h-100v200h100v-200zM400 550h-100v200h100v-200zM150 400v100h200v-100h-200zM150 100h-100v300h100v-300zM450 400v-300h-100v300h100zM350 100v-100h-200v100h200z" />
    <glyph glyph-name="OE" unicode="&#x152;" horiz-adv-x="900" 
d="M150 650v100h300v-100h-300zM850 750v-100h-300v100h300zM150 100h-100v550h100v-550zM450 650h100v-200h300v-100h-300v-250h-100v550zM450 100v-100h-300v100h300zM550 0v100h300v-100h-300z" />
    <glyph glyph-name="oe" unicode="&#x153;" horiz-adv-x="800" 
d="M150 400v100h200v-100h-200zM450 400v100h200v-100h-200zM150 100h-100v300h100v-300zM750 400v-200h-300v-100h-100v300h100v-100h200v100h100zM350 100v-100h-200v100h200zM450 0v100h250v-100h-250z" />
    <glyph glyph-name="Racute" unicode="&#x154;" horiz-adv-x="600" 
d="M425 900h-100v100h100v-100zM325 800h-100v100h100v-100zM450 450v-100h-300v-350h-100v750h400v-100h-300v-200h300zM550 650v-200h-100v200h100zM450 350h100v-350h-100v350z" />
    <glyph glyph-name="racute" unicode="&#x155;" horiz-adv-x="375" 
d="M350 750v-100h-100v100h100zM150 650h100v-100h-100v100zM350 500v-100h-200v-400h-100v500h300z" />
    <glyph glyph-name="Rcommaaccent" unicode="&#x156;" horiz-adv-x="600" 
d="M450 450v-100h-300v-350h-100v750h400v-100h-300v-200h300zM550 650v-200h-100v200h100zM450 350h100v-350h-100v350zM250 -50h100v-150h-100v150zM150 -200h100v-100h-100v100z" />
    <glyph glyph-name="rcommaaccent" unicode="&#x157;" horiz-adv-x="450" 
d="M425 500v-100h-200v-400h-100v500h300zM125 -50h100v-150h-100v150zM25 -200h100v-100h-100v100z" />
    <glyph glyph-name="Rcaron" unicode="&#x158;" horiz-adv-x="600" 
d="M225 900h-100v100h100v-100zM425 900h-100v100h100v-100zM225 800v100h100v-100h-100zM450 450v-100h-300v-350h-100v750h400v-100h-300v-200h300zM550 650v-200h-100v200h100zM450 350h100v-350h-100v350z" />
    <glyph glyph-name="rcaron" unicode="&#x159;" horiz-adv-x="400" 
d="M150 750v-100h-100v100h100zM350 750v-100h-100v100h100zM150 650h100v-100h-100v100zM350 500v-100h-200v-400h-100v500h300z" />
    <glyph glyph-name="Sacute" unicode="&#x15a;" horiz-adv-x="600" 
d="M450 900h-100v100h100v-100zM350 800h-100v100h100v-100zM150 650v100h350v-100h-350zM150 450h-100v200h100v-200zM450 450v-100h-300v100h300zM550 350v-250h-100v250h100zM450 100v-100h-350v100h350z" />
    <glyph glyph-name="sacute" unicode="&#x15b;" horiz-adv-x="450" 
d="M375 650h-100v100h100v-100zM275 550h-100v100h100v-100zM125 400v100h250v-100h-250zM125 400v-100h-100v100h100zM325 300v-100h-200v100h200zM425 200v-100h-100v100h100zM325 100v-100h-250v100h250z" />
    <glyph glyph-name="Scedilla" unicode="&#x15e;" horiz-adv-x="600" 
d="M150 650v100h350v-100h-350zM150 450h-100v200h100v-200zM450 450v-100h-300v100h300zM550 350v-250h-100v250h100zM450 100v-100h-100v-100h-100v100h-150v100h350zM350 -200v100h100v-100h-100zM250 -200h100v-100h-100v100z" />
    <glyph glyph-name="scedilla" unicode="&#x15f;" horiz-adv-x="450" 
d="M125 400v100h250v-100h-250zM125 400v-100h-100v100h100zM325 300v-100h-200v100h200zM425 200v-100h-100v100h100zM325 100v-200h-100v100h-150v100h250zM125 -100h100v-100h-100v100z" />
    <glyph glyph-name="Scaron" unicode="&#x160;" horiz-adv-x="600" 
d="M250 900h-100v100h100v-100zM450 900h-100v100h100v-100zM250 800v100h100v-100h-100zM150 650v100h350v-100h-350zM150 450h-100v200h100v-200zM450 450v-100h-300v100h300zM550 350v-250h-100v250h100zM450 100v-100h-350v100h350z" />
    <glyph glyph-name="scaron" unicode="&#x161;" horiz-adv-x="450" 
d="M175 650h-100v100h100v-100zM375 650h-100v100h100v-100zM175 550v100h100v-100h-100zM125 400v100h250v-100h-250zM125 400v-100h-100v100h100zM325 300v-100h-200v100h200zM425 200v-100h-100v100h100zM325 100v-100h-250v100h250z" />
    <glyph glyph-name="uni0162" unicode="&#x162;" horiz-adv-x="550" 
d="M525 750v-100h-200v-750h-100v750h-200v100h500zM325 -200v100h100v-100h-100zM225 -200h100v-100h-100v100z" />
    <glyph glyph-name="uni0163" unicode="&#x163;" horiz-adv-x="375" 
d="M325 500v-100h-100v-300h100v-200h-100v100h-100v400h-100v100h100v100h100v-100h100zM125 -100h100v-100h-100v100z" />
    <glyph glyph-name="Tcaron" unicode="&#x164;" horiz-adv-x="550" 
d="M225 900h-100v100h100v-100zM425 900h-100v100h100v-100zM225 800v100h100v-100h-100zM525 750v-100h-200v-650h-100v650h-200v100h500z" />
    <glyph glyph-name="tcaron" unicode="&#x165;" horiz-adv-x="400" 
d="M375 800v-200h-100v200h100zM225 500h100v-100h-100v-400h-100v400h-100v100h100v100h100v-100z" />
    <glyph glyph-name="Tbar" unicode="&#x166;" horiz-adv-x="550" 
d="M525 750v-100h-200v-200h150v-100h-150v-350h-100v350h-150v100h150v200h-200v100h500z" />
    <glyph glyph-name="tbar" unicode="&#x167;" horiz-adv-x="400" 
d="M350 500v-100h-100v-100h100v-100h-100v-200h-100v200h-100v100h100v100h-100v100h100v100h100v-100h100z" />
    <glyph glyph-name="Utilde" unicode="&#x168;" horiz-adv-x="600" 
d="M300 900h-100v100h100v-100zM500 900h-100v100h100v-100zM200 800h-100v100h100v-100zM300 800v100h100v-100h-100zM150 100h-100v650h100v-650zM550 750v-650h-100v650h100zM450 100v-100h-300v100h300z" />
    <glyph glyph-name="utilde" unicode="&#x169;" 
d="M250 750v-100h-100v100h100zM450 750v-100h-100v100h100zM50 650h100v-100h-100v100zM250 650h100v-100h-100v100zM150 100h-100v400h100v-400zM350 500h100v-500h-300v100h200v400z" />
    <glyph glyph-name="Umacron" unicode="&#x16a;" horiz-adv-x="600" 
d="M150 800v100h300v-100h-300zM150 100h-100v650h100v-650zM550 750v-650h-100v650h100zM450 100v-100h-300v100h300z" />
    <glyph glyph-name="umacron" unicode="&#x16b;" 
d="M100 550v100h300v-100h-300zM150 100h-100v400h100v-400zM450 500v-500h-300v100h200v400h100z" />
    <glyph glyph-name="Uring" unicode="&#x16e;" horiz-adv-x="600" 
d="M350 1000h-100v100h100v-100zM250 900h-100v100h100v-100zM350 900v100h100v-100h-100zM250 900h100v-100h-100v100zM150 100h-100v650h100v-650zM550 750v-650h-100v650h100zM450 100v-100h-300v100h300z" />
    <glyph glyph-name="uring" unicode="&#x16f;" 
d="M300 750h-100v100h100v-100zM200 650h-100v100h100v-100zM300 650v100h100v-100h-100zM200 650h100v-100h-100v100zM150 100h-100v400h100v-400zM450 500v-500h-300v100h200v400h100z" />
    <glyph glyph-name="Uhungarumlaut" unicode="&#x170;" horiz-adv-x="600" 
d="M250 800h-100v200h100v-200zM450 800h-100v200h100v-200zM150 100h-100v650h100v-650zM550 750v-650h-100v650h100zM450 100v-100h-300v100h300z" />
    <glyph glyph-name="uhungarumlaut" unicode="&#x171;" 
d="M200 550h-100v200h100v-200zM400 550h-100v200h100v-200zM150 100h-100v400h100v-400zM450 500v-500h-300v100h200v400h100z" />
    <glyph glyph-name="Uogonek" unicode="&#x172;" horiz-adv-x="600" 
d="M150 100h-100v650h100v-650zM550 750v-650h-100v650h100zM450 100v-100h-100v-100h-100v100h-100v100h300zM150 -100h100v-100h-100v100zM250 -300v100h100v-100h-100z" />
    <glyph glyph-name="uogonek" unicode="&#x173;" 
d="M150 100h-100v400h100v-400zM450 500v-500h-300v100h200v400h100zM50 0h100v-100h-100v100zM150 -200v100h100v-100h-100z" />
    <glyph glyph-name="Wcircumflex" unicode="&#x174;" horiz-adv-x="700" 
d="M400 900h-100v100h100v-100zM300 800h-100v100h100v-100zM400 800v100h100v-100h-100zM150 100h-100v650h100v-650zM650 750v-650h-100v650h100zM400 100h-100v150h100v-150zM300 100v-100h-150v100h150zM550 100v-100h-150v100h150z" />
    <glyph glyph-name="wcircumflex" unicode="&#x175;" horiz-adv-x="800" 
d="M450 650h-100v100h100v-100zM350 550h-100v100h100v-100zM450 550v100h100v-100h-100zM150 100h-100v400h100v-400zM450 100h-100v400h100v-400zM750 500v-500h-300v100h200v400h100zM350 100v-100h-200v100h200z" />
    <glyph glyph-name="Ycircumflex" unicode="&#x176;" horiz-adv-x="550" 
d="M325 900h-100v100h100v-100zM225 800h-100v100h100v-100zM325 800v100h100v-100h-100zM150 450h-100v300h100v-300zM500 750v-750h-100v350h-250v100h250v300h100z" />
    <glyph glyph-name="ycircumflex" unicode="&#x177;" 
d="M300 650h-100v100h100v-100zM200 550h-100v100h100v-100zM300 550v100h100v-100h-100zM150 200h-100v300h100v-300zM450 500v-600h-100v200h-200v100h200v300h100zM350 -100v-100h-250v100h250z" />
    <glyph glyph-name="Ydieresis" unicode="&#x178;" horiz-adv-x="550" 
d="M225 800h-100v100h100v-100zM425 800h-100v100h100v-100zM150 450h-100v300h100v-300zM500 750v-750h-100v350h-250v100h250v300h100z" />
    <glyph glyph-name="Zacute" unicode="&#x179;" horiz-adv-x="600" 
d="M450 900h-100v100h100v-100zM350 800h-100v100h100v-100zM550 750v-200h-100v100h-400v100h500zM350 550h100v-100h-100v100zM250 450h100v-150h-100v150zM150 300h100v-100h-100v100zM50 200h100v-100h400v-100h-500v200z" />
    <glyph glyph-name="zacute" unicode="&#x17a;" horiz-adv-x="450" 
d="M375 650h-100v100h100v-100zM275 550h-100v100h100v-100zM400 500v-200h-100v100h-250v100h350zM300 300v-100h-150v100h150zM50 200h100v-100h250v-100h-350v200z" />
    <glyph glyph-name="Zdotaccent" unicode="&#x17b;" horiz-adv-x="600" 
d="M350 800h-100v100h100v-100zM550 750v-200h-100v100h-400v100h500zM350 550h100v-100h-100v100zM250 450h100v-150h-100v150zM150 300h100v-100h-100v100zM50 200h100v-100h400v-100h-500v200z" />
    <glyph glyph-name="zdotaccent" unicode="&#x17c;" horiz-adv-x="450" 
d="M275 550h-100v100h100v-100zM400 500v-200h-100v100h-250v100h350zM300 300v-100h-150v100h150zM50 200h100v-100h250v-100h-350v200z" />
    <glyph glyph-name="Zcaron" unicode="&#x17d;" horiz-adv-x="600" 
d="M250 900h-100v100h100v-100zM450 900h-100v100h100v-100zM250 800v100h100v-100h-100zM550 750v-200h-100v100h-400v100h500zM350 550h100v-100h-100v100zM250 450h100v-150h-100v150zM150 300h100v-100h-100v100zM50 200h100v-100h400v-100h-500v200z" />
    <glyph glyph-name="zcaron" unicode="&#x17e;" horiz-adv-x="450" 
d="M175 650h-100v100h100v-100zM375 650h-100v100h100v-100zM175 550v100h100v-100h-100zM400 500v-200h-100v100h-250v100h350zM300 300v-100h-150v100h150zM50 200h100v-100h250v-100h-350v200z" />
    <glyph glyph-name="uni0181" unicode="&#x181;" horiz-adv-x="725" 
d="M175 750v-100h-150v100h150zM275 650v100h300v-100h-300zM575 450v-100h-300v-250h300v-100h-400v650h100v-200h300zM675 650v-200h-100v200h100zM575 350h100v-250h-100v250z" />
    <glyph glyph-name="uni0186" unicode="&#x186;" horiz-adv-x="550" 
d="M400 750v-100h-350v100h350zM500 650v-550h-100v550h100zM400 100v-100h-350v100h350z" />
    <glyph glyph-name="uni0187" unicode="&#x187;" horiz-adv-x="650" 
d="M600 900v-150h-100v150h100zM500 750v-100h-350v100h350zM50 650h100v-550h-100v550zM150 0v100h350v-100h-350z" />
    <glyph glyph-name="uni0188" unicode="&#x188;" horiz-adv-x="525" 
d="M500 650v-150h-100v150h100zM400 500v-100h-250v100h250zM50 400h100v-300h-100v300zM150 0v100h250v-100h-250z" />
    <glyph glyph-name="uni0189" unicode="&#x189;" horiz-adv-x="675" 
d="M525 100v-100h-400v325h-100v100h100v325h400v-100h-300v-225h100v-100h-100v-225h300zM625 650v-550h-100v550h100z" />
    <glyph glyph-name="uni018A" unicode="&#x18a;" horiz-adv-x="725" 
d="M175 750v-100h-150v100h150zM275 650v100h300v-100h-300zM575 100v-100h-400v650h100v-550h300zM675 650v-550h-100v550h100z" />
    <glyph glyph-name="uni018E" unicode="&#x18e;" 
d="M450 750v-750h-400v100h300v250h-300v100h300v200h-300v100h400z" />
    <glyph glyph-name="uni018F" unicode="&#x18f;" horiz-adv-x="600" 
d="M450 750v-100h-350v100h350zM550 650v-550h-100v200h-300v-200h-100v300h400v250h100zM450 100v-100h-300v100h300z" />
    <glyph glyph-name="uni0190" unicode="&#x190;" horiz-adv-x="450" 
d="M400 750v-100h-250v100h250zM50 650h100v-200h-100v200zM150 350v100h150v-100h-150zM50 350h100v-250h-100v250zM150 0v100h250v-100h-250z" />
    <glyph glyph-name="uni0191" unicode="&#x191;" horiz-adv-x="625" 
d="M575 750v-100h-300v-200h300v-100h-300v-450h-100v850h400zM175 -100v-100h-150v100h150z" />
    <glyph glyph-name="florin" unicode="&#x192;" horiz-adv-x="425" 
d="M400 800v-100h-150v100h150zM150 700h100v-200h100v-100h-100v-350h-100v350h-100v100h100v200zM50 50h100v-100h-100v100z" />
    <glyph glyph-name="uni0193" unicode="&#x193;" horiz-adv-x="600" 
d="M550 900v-150h-100v150h100zM450 750v-100h-300v100h300zM50 650h100v-550h-100v550zM550 100h-100v250h-100v100h200v-350zM150 0v100h300v-100h-300z" />
    <glyph glyph-name="uni0194" unicode="&#x194;" horiz-adv-x="600" 
d="M150 350h-100v400h100v-400zM550 750v-400h-100v400h100zM250 150h-100v200h100v-200zM350 350h100v-200h-100v200zM250 150h100v-150h-100v150zM250 0v-100h-100v100h100zM350 -100v100h100v-100h-100zM250 -100h100v-100h-100v100z" />
    <glyph glyph-name="uni0196" unicode="&#x196;" horiz-adv-x="375" 
d="M150 100h-100v650h100v-650zM350 100v-100h-200v100h200z" />
    <glyph glyph-name="uni0197" unicode="&#x197;" horiz-adv-x="350" 
d="M325 450v-100h-100v-350h-100v350h-100v100h100v300h100v-300h100z" />
    <glyph glyph-name="uni0198" unicode="&#x198;" horiz-adv-x="675" 
d="M400 450v-100h-250v-350h-100v750h100v-300h250zM650 750v-100h-150v100h150zM400 650h100v-200h-100v200zM400 350h100v-350h-100v350z" />
    <glyph glyph-name="uni0199" unicode="&#x199;" 
d="M150 700v100h150v-100h-150zM150 300h100v-100h-100v-200h-100v700h100v-400zM450 500v-100h-100v100h100zM250 400h100v-100h-100v100zM250 100v100h100v-100h-100zM350 0v100h100v-100h-100z" />
    <glyph glyph-name="uni019D" unicode="&#x19d;" horiz-adv-x="725" 
d="M375 475h-100v-575h-100v850h100v-125h100v-150zM675 750v-750h-100v125h-100v150h100v475h100zM475 275h-100v200h100v-200zM175 -100v-100h-150v100h150z" />
    <glyph glyph-name="Ohorn" unicode="&#x1a0;" horiz-adv-x="725" 
d="M150 650v100h300v-100h-300zM700 750v-100h-150v100h150zM150 100h-100v550h100v-550zM450 650h100v-550h-100v550zM450 100v-100h-300v100h300z" />
    <glyph glyph-name="ohorn" unicode="&#x1a1;" 
d="M450 650v-150h-100v150h100zM350 500v-100h-200v100h200zM150 100h-100v300h100v-300zM350 400h100v-300h-100v300zM350 100v-100h-200v100h200z" />
    <glyph glyph-name="uni01A4" unicode="&#x1a4;" horiz-adv-x="725" 
d="M175 750v-100h-150v100h150zM275 650v100h300v-100h-300zM575 450v-100h-300v-350h-100v650h100v-200h300zM675 650v-200h-100v200h100z" />
    <glyph glyph-name="uni01A5" unicode="&#x1a5;" 
d="M150 600v100h150v-100h-150zM350 200v-100h-200v-300h-100v800h100v-100h200v-100h-200v-200h200zM450 400v-200h-100v200h100z" />
    <glyph glyph-name="uni01A9" unicode="&#x1a9;" horiz-adv-x="550" 
d="M500 750v-100h-350v-100h-100v200h450zM150 450v100h100v-100h-100zM250 450h100v-150h-100v150zM150 300h100v-100h-100v100zM50 200h100v-100h350v-100h-450v200z" />
    <glyph glyph-name="uni01AC" unicode="&#x1ac;" horiz-adv-x="650" 
d="M625 750v-100h-200v-650h-100v650h-200v100h500zM25 650h100v-150h-100v150z" />
    <glyph glyph-name="uni01AD" unicode="&#x1ad;" horiz-adv-x="400" 
d="M325 750v-150h-100v150h100zM125 600h100v-100h100v-100h-100v-400h-100v400h-100v100h100v100z" />
    <glyph glyph-name="uni01AE" unicode="&#x1ae;" horiz-adv-x="550" 
d="M525 750v-100h-200v-750h-100v750h-200v100h500zM325 -200v100h150v-100h-150z" />
    <glyph glyph-name="Uhorn" unicode="&#x1af;" horiz-adv-x="725" 
d="M150 100h-100v650h100v-650zM700 750v-100h-150v100h150zM450 650h100v-550h-100v550zM450 100v-100h-300v100h300z" />
    <glyph glyph-name="uhorn" unicode="&#x1b0;" horiz-adv-x="575" 
d="M550 650v-150h-100v150h100zM150 100h-100v400h100v-400zM350 500h100v-500h-300v100h200v400z" />
    <glyph glyph-name="uni01B1" unicode="&#x1b1;" horiz-adv-x="750" 
d="M325 550h-100v100h-150v100h250v-200zM525 650v-100h-100v200h250v-100h-150zM225 400h-100v150h100v-150zM625 400h-100v150h100v-150zM125 250h-100v150h100v-150zM725 400v-150h-100v150h100zM225 100h-100v150h100v-150zM525 250h100v-150h-100v150zM525 100v-100
h-300v100h300z" />
    <glyph glyph-name="uni01B2" unicode="&#x1b2;" horiz-adv-x="675" 
d="M150 350h-100v400h100v-400zM550 750v-100h-150v100h150zM650 650v-150h-100v150h100zM450 500h100v-200h-100v200zM250 150h-100v200h100v-200zM350 300h100v-150h-100v150zM250 150h100v-150h-100v150z" />
    <glyph glyph-name="uni01B3" unicode="&#x1b3;" horiz-adv-x="625" 
d="M150 450h-100v300h100v-300zM600 750v-100h-150v100h150zM350 650h100v-650h-100v350h-200v100h200v200z" />
    <glyph glyph-name="uni01B4" unicode="&#x1b4;" horiz-adv-x="625" 
d="M600 700v-100h-150v100h150zM350 600h100v-700h-100v200h-200v100h200v400zM150 200h-100v300h100v-300zM350 -100v-100h-250v100h250z" />
    <glyph glyph-name="uni01B7" unicode="&#x1b7;" 
d="M450 750v-200h-100v100h-300v100h400zM250 550h100v-200h-200v100h100v100zM350 350h100v-250h-100v250zM350 100v-100h-300v100h300z" />
    <glyph glyph-name="uni01C0" unicode="&#x1c0;" horiz-adv-x="200" 
d="M150 800v-1000h-100v1000h100z" />
    <glyph glyph-name="uni01C1" unicode="&#x1c1;" horiz-adv-x="400" 
d="M50 800h100v-1000h-100v1000zM350 800v-1000h-100v1000h100z" />
    <glyph glyph-name="uni01C2" unicode="&#x1c2;" horiz-adv-x="450" 
d="M425 500v-100h-150v-100h150v-100h-150v-400h-100v400h-150v100h150v100h-150v100h150v300h100v-300h150z" />
    <glyph glyph-name="uni01C3" unicode="&#x1c3;" horiz-adv-x="200" 
d="M150 750v-550h-100v550h100zM50 100h100v-100h-100v100z" />
    <glyph glyph-name="uni01CD" unicode="&#x1cd;" horiz-adv-x="600" 
d="M250 900h-100v100h100v-100zM450 900h-100v100h100v-100zM250 800v100h100v-100h-100zM150 650v100h300v-100h-300zM550 650v-650h-100v250h-300v-250h-100v650h100v-300h300v300h100z" />
    <glyph glyph-name="uni01CE" unicode="&#x1ce;" horiz-adv-x="475" 
d="M175 650h-100v100h100v-100zM375 650h-100v100h100v-100zM175 550v100h100v-100h-100zM325 500v-100h-250v100h250zM425 400v-400h-300v100h200v100h-200v100h200v100h100zM125 200v-100h-100v100h100z" />
    <glyph glyph-name="uni01CF" unicode="&#x1cf;" horiz-adv-x="350" 
d="M125 1000v-100h-100v100h100zM325 1000v-100h-100v100h100zM125 900h100v-100h-100v100zM125 750h100v-750h-100v750z" />
    <glyph glyph-name="uni01D0" unicode="&#x1d0;" horiz-adv-x="350" 
d="M125 750v-100h-100v100h100zM325 750v-100h-100v100h100zM125 650h100v-100h-100v100zM125 500h100v-500h-100v500z" />
    <glyph glyph-name="uni01D1" unicode="&#x1d1;" horiz-adv-x="600" 
d="M250 900h-100v100h100v-100zM450 900h-100v100h100v-100zM250 800v100h100v-100h-100zM150 650v100h300v-100h-300zM150 100h-100v550h100v-550zM550 650v-550h-100v550h100zM450 100v-100h-300v100h300z" />
    <glyph glyph-name="uni01D2" unicode="&#x1d2;" 
d="M200 650h-100v100h100v-100zM400 650h-100v100h100v-100zM200 550v100h100v-100h-100zM150 400v100h200v-100h-200zM150 100h-100v300h100v-300zM450 400v-300h-100v300h100zM350 100v-100h-200v100h200z" />
    <glyph glyph-name="uni01D3" unicode="&#x1d3;" horiz-adv-x="600" 
d="M250 900h-100v100h100v-100zM450 900h-100v100h100v-100zM250 800v100h100v-100h-100zM150 100h-100v650h100v-650zM550 750v-650h-100v650h100zM450 100v-100h-300v100h300z" />
    <glyph glyph-name="uni01D4" unicode="&#x1d4;" 
d="M200 650h-100v100h100v-100zM400 650h-100v100h100v-100zM200 550v100h100v-100h-100zM150 100h-100v400h100v-400zM450 500v-500h-300v100h200v400h100z" />
    <glyph glyph-name="uni01D5" unicode="&#x1d5;" horiz-adv-x="600" 
d="M150 950v100h300v-100h-300zM250 800h-100v100h100v-100zM350 900h100v-100h-100v100zM150 100h-100v650h100v-650zM550 750v-650h-100v650h100zM450 100v-100h-300v100h300z" />
    <glyph glyph-name="uni01D6" unicode="&#x1d6;" 
d="M100 700v100h300v-100h-300zM200 550h-100v100h100v-100zM300 650h100v-100h-100v100zM150 100h-100v400h100v-400zM450 500v-500h-300v100h200v400h100z" />
    <glyph glyph-name="uni01D7" unicode="&#x1d7;" horiz-adv-x="600" 
d="M450 1050h-100v100h100v-100zM350 950h-100v100h100v-100zM250 800h-100v100h100v-100zM350 900h100v-100h-100v100zM150 100h-100v650h100v-650zM550 750v-650h-100v650h100zM450 100v-100h-300v100h300z" />
    <glyph glyph-name="uni01D8" unicode="&#x1d8;" 
d="M400 800h-100v100h100v-100zM300 700h-100v100h100v-100zM200 550h-100v100h100v-100zM300 650h100v-100h-100v100zM150 100h-100v400h100v-400zM450 500v-500h-300v100h200v400h100z" />
    <glyph glyph-name="uni01D9" unicode="&#x1d9;" horiz-adv-x="600" 
d="M250 1050h-100v100h100v-100zM450 1050h-100v100h100v-100zM250 950v100h100v-100h-100zM250 800h-100v100h100v-100zM350 900h100v-100h-100v100zM150 100h-100v650h100v-650zM550 750v-650h-100v650h100zM450 100v-100h-300v100h300z" />
    <glyph glyph-name="uni01DA" unicode="&#x1da;" 
d="M200 800h-100v100h100v-100zM400 800h-100v100h100v-100zM200 700v100h100v-100h-100zM200 550h-100v100h100v-100zM300 650h100v-100h-100v100zM150 100h-100v400h100v-400zM450 500v-500h-300v100h200v400h100z" />
    <glyph glyph-name="uni01DB" unicode="&#x1db;" horiz-adv-x="600" 
d="M250 1050h-100v100h100v-100zM250 950v100h100v-100h-100zM250 800h-100v100h100v-100zM350 900h100v-100h-100v100zM150 100h-100v650h100v-650zM550 750v-650h-100v650h100zM450 100v-100h-300v100h300z" />
    <glyph glyph-name="uni01DC" unicode="&#x1dc;" 
d="M200 800h-100v100h100v-100zM200 700v100h100v-100h-100zM200 550h-100v100h100v-100zM300 650h100v-100h-100v100zM150 100h-100v400h100v-400zM450 500v-500h-300v100h200v400h100z" />
    <glyph glyph-name="uni01DD" unicode="&#x1dd;" 
d="M350 500v-100h-250v100h250zM450 400v-300h-100v100h-200v-100h-100v200h300v100h100zM350 100v-100h-200v100h200z" />
    <glyph glyph-name="uni01DE" unicode="&#x1de;" horiz-adv-x="600" 
d="M150 950v100h300v-100h-300zM250 800h-100v100h100v-100zM350 900h100v-100h-100v100zM150 650v100h300v-100h-300zM550 650v-650h-100v250h-300v-250h-100v650h100v-300h300v300h100z" />
    <glyph glyph-name="uni01DF" unicode="&#x1df;" horiz-adv-x="475" 
d="M75 700v100h300v-100h-300zM175 550h-100v100h100v-100zM275 650h100v-100h-100v100zM325 500v-100h-250v100h250zM425 400v-400h-300v100h200v100h-200v100h200v100h100zM125 200v-100h-100v100h100z" />
    <glyph glyph-name="Gcaron" unicode="&#x1e6;" horiz-adv-x="600" 
d="M275 900h-100v100h100v-100zM475 900h-100v100h100v-100zM275 800v100h100v-100h-100zM150 650v100h350v-100h-350zM150 100h-100v550h100v-550zM550 450v-350h-100v250h-100v100h200zM450 100v-100h-300v100h300z" />
    <glyph glyph-name="gcaron" unicode="&#x1e7;" 
d="M200 650h-100v100h100v-100zM400 650h-100v100h100v-100zM200 550v100h100v-100h-100zM450 500v-600h-100v200h-200v100h200v200h-200v100h300zM150 200h-100v200h100v-200zM150 0v-100h-100v100h100zM350 -100v-100h-200v100h200z" />
    <glyph glyph-name="Oslashacute" unicode="&#x1fe;" horiz-adv-x="600" 
d="M450 900h-100v100h100v-100zM350 800h-100v100h100v-100zM550 650v-550h-100v400h-100v150h-200v100h300v-100h100zM450 100v-100h-300v100h-100v550h100v-400h100v-150h200zM250 500h100v-250h-100v250z" />
    <glyph glyph-name="oslashacute" unicode="&#x1ff;" 
d="M400 650h-100v100h100v-100zM300 550h-100v100h100v-100zM450 400v-300h-100v150h-100v150h-100v100h200v-100h100zM250 100h100v-100h-200v100h-100v300h100v-150h100v-150z" />
    <glyph glyph-name="Scommaaccent" unicode="&#x218;" horiz-adv-x="600" 
d="M150 650v100h350v-100h-350zM150 450h-100v200h100v-200zM450 450v-100h-300v100h300zM550 350v-250h-100v250h100zM450 100v-100h-100v-150h-100v150h-150v100h350zM150 -150h100v-100h-100v100z" />
    <glyph glyph-name="scommaaccent" unicode="&#x219;" horiz-adv-x="450" 
d="M125 400v100h250v-100h-250zM125 400v-100h-100v100h100zM325 300v-100h-200v100h200zM425 200v-100h-100v100h100zM325 100v-100h-250v100h250zM175 -50h100v-150h-100v150zM75 -200h100v-100h-100v100z" />
    <glyph glyph-name="uni021A" unicode="&#x21a;" horiz-adv-x="550" 
d="M525 750v-100h-200v-650h-100v650h-200v100h500zM225 -50h100v-150h-100v150zM125 -200h100v-100h-100v100z" />
    <glyph glyph-name="uni021B" unicode="&#x21b;" horiz-adv-x="350" 
d="M325 500v-100h-100v-400h-100v400h-100v100h100v100h100v-100h100zM125 -50h100v-150h-100v150zM25 -200h100v-100h-100v100z" />
    <glyph glyph-name="uni0228" unicode="&#x228;" 
d="M450 750v-100h-300v-200h300v-100h-300v-250h300v-100h-150v-100h-100v100h-150v750h400zM300 -200v100h100v-100h-100zM200 -200h100v-100h-100v100z" />
    <glyph glyph-name="uni0229" unicode="&#x229;" 
d="M150 400v100h200v-100h-200zM450 400v-200h-300v-100h-100v300h100v-100h200v100h100zM150 0v100h250v-200h-100v100h-150zM200 -100h100v-100h-100v100z" />
    <glyph glyph-name="uni022A" unicode="&#x22a;" horiz-adv-x="600" 
d="M150 950v100h300v-100h-300zM250 800h-100v100h100v-100zM350 900h100v-100h-100v100zM150 650v100h300v-100h-300zM150 100h-100v550h100v-550zM550 650v-550h-100v550h100zM450 100v-100h-300v100h300z" />
    <glyph glyph-name="uni022B" unicode="&#x22b;" 
d="M100 700v100h300v-100h-300zM200 550h-100v100h100v-100zM300 650h100v-100h-100v100zM150 400v100h200v-100h-200zM150 100h-100v300h100v-300zM450 400v-300h-100v300h100zM350 100v-100h-200v100h200z" />
    <glyph glyph-name="uni0242" unicode="&#x242;" 
d="M350 550v-100h-200v100h200zM50 450h100v-100h-100v100zM450 450v-200h-100v200h100zM250 250h100v-100h-100v100zM150 150h100v-150h-100v150z" />
    <glyph glyph-name="uni0243" unicode="&#x243;" horiz-adv-x="675" 
d="M525 450v-100h-300v-75h100v-100h-100v-75h300v-100h-400v175h-100v100h100v475h400v-100h-300v-200h300zM625 650v-200h-100v200h100zM525 350h100v-250h-100v250z" />
    <glyph glyph-name="uni0244" unicode="&#x244;" horiz-adv-x="750" 
d="M725 450v-100h-100v-250h-100v250h-300v-250h-100v250h-100v100h100v300h100v-300h300v300h100v-300h100zM525 100v-100h-300v100h300z" />
    <glyph glyph-name="uni0245" unicode="&#x245;" horiz-adv-x="600" 
d="M350 600h-100v150h100v-150zM150 600h100v-150h-100v150zM450 450h-100v150h100v-150zM50 450h100v-450h-100v450zM550 450v-450h-100v450h100z" />
    <glyph glyph-name="uni024B" unicode="&#x24b;" horiz-adv-x="600" 
d="M425 -100h-100v200h-200v100h200v200h-200v100h300v-600zM125 200h-100v200h100v-200zM575 -100v-100h-150v100h150z" />
    <glyph glyph-name="uni024C" unicode="&#x24c;" horiz-adv-x="675" 
d="M525 450v-100h-300v-350h-100v350h-100v100h100v300h400v-100h-300v-200h300zM625 650v-200h-100v200h100zM525 350h100v-350h-100v350z" />
    <glyph glyph-name="uni0250" unicode="&#x250;" horiz-adv-x="475" 
d="M350 300v-100h-200v-100h-100v400h300v-100h-200v-100h200zM450 400v-100h-100v100h100zM150 0v100h250v-100h-250z" />
    <glyph glyph-name="uni0251" unicode="&#x251;" 
d="M150 400v100h200v-100h-200zM150 100h-100v300h100v-300zM450 400v-400h-300v100h200v300h100z" />
    <glyph glyph-name="uni0252" unicode="&#x252;" 
d="M150 400v100h200v-100h-200zM350 100v-100h-300v400h100v-300h200zM450 400v-300h-100v300h100z" />
    <glyph glyph-name="uni0253" unicode="&#x253;" 
d="M150 700v100h150v-100h-150zM350 100v-100h-300v700h100v-200h200v-100h-200v-300h200zM450 400v-300h-100v300h100z" />
    <glyph glyph-name="uni0254" unicode="&#x254;" horiz-adv-x="450" 
d="M300 500v-100h-250v100h250zM400 400v-300h-100v300h100zM300 100v-100h-250v100h250z" />
    <glyph glyph-name="uni0255" unicode="&#x255;" horiz-adv-x="675" 
d="M150 400v100h250v-100h-250zM150 100h-100v300h100v-300zM550 200h-100v100h100v-100zM450 100h100v-100h-150v-200h-100v200h-150v100h200v100h100v-100zM650 200v-100h-100v100h100z" />
    <glyph glyph-name="uni0256" unicode="&#x256;" horiz-adv-x="625" 
d="M450 100h-100v300h-200v100h200v300h100v-700zM150 100h-100v300h100v-300zM350 100v-100h-200v100h200zM600 100v-100h-150v100h150z" />
    <glyph glyph-name="uni0257" unicode="&#x257;" horiz-adv-x="625" 
d="M600 800v-100h-150v100h150zM350 700h100v-700h-300v100h200v300h-200v100h200v200zM150 100h-100v300h100v-300z" />
    <glyph glyph-name="uni0258" unicode="&#x258;" 
d="M150 400v100h200v-100h-200zM450 400v-300h-100v100h-300v200h100v-100h200v100h100zM350 100v-100h-250v100h250z" />
    <glyph glyph-name="uni0259" unicode="&#x259;" 
d="M350 500v-100h-250v100h250zM450 400v-300h-100v100h-200v-100h-100v200h300v100h100zM350 100v-100h-200v100h200z" />
    <glyph glyph-name="uni025A" unicode="&#x25a;" horiz-adv-x="575" 
d="M350 500v-100h-250v100h250zM550 300v-100h-100v-100h-100v100h-200v-100h-100v200h300v100h100v-100h100zM350 100v-100h-200v100h200z" />
    <glyph glyph-name="uni025B" unicode="&#x25b;" horiz-adv-x="450" 
d="M400 500v-100h-250v100h250zM50 400h100v-100h-100v100zM150 200v100h200v-100h-200zM50 200h100v-100h-100v100zM150 0v100h250v-100h-250z" />
    <glyph glyph-name="uni025C" unicode="&#x25c;" horiz-adv-x="450" 
d="M300 500v-100h-250v100h250zM400 400v-100h-100v100h100zM300 300v-100h-200v100h200zM300 100v100h100v-100h-100zM300 100v-100h-250v100h250z" />
    <glyph glyph-name="uni025D" unicode="&#x25d;" 
d="M450 600v-100h-150v100h150zM300 500v-100h-250v100h250zM300 300v100h100v-100h-100zM300 300v-100h-200v100h200zM300 100v100h100v-100h-100zM300 100v-100h-250v100h250z" />
    <glyph glyph-name="uni025E" unicode="&#x25e;" horiz-adv-x="550" 
d="M150 400v100h250v-100h-250zM150 100h-100v300h100v-300zM500 400v-100h-100v100h100zM400 300v-100h-150v100h150zM400 100v100h100v-100h-100zM400 100v-100h-250v100h250z" />
    <glyph glyph-name="uni025F" unicode="&#x25f;" horiz-adv-x="425" 
d="M400 200v-100h-100v-200h-100v200h-100v100h100v300h100v-300h100zM200 -100v-100h-150v100h150z" />
    <glyph glyph-name="uni0260" unicode="&#x260;" horiz-adv-x="625" 
d="M600 600v-100h-150v100h150zM450 500v-600h-100v200h-200v100h200v200h-200v100h300zM150 200h-100v200h100v-200zM150 0v-100h-100v100h100zM350 -100v-100h-200v100h200z" />
    <glyph glyph-name="uni0261" unicode="&#x261;" 
d="M450 500v-600h-100v200h-200v100h200v200h-200v100h300zM150 200h-100v200h100v-200zM350 -100v-100h-250v100h250z" />
    <glyph glyph-name="uni0262" unicode="&#x262;" 
d="M150 450v100h200v-100h-200zM150 100h-100v350h100v-350zM450 350v-250h-100v150h-100v100h200zM350 100v-100h-200v100h200z" />
    <glyph glyph-name="uni0263" unicode="&#x263;" horiz-adv-x="600" 
d="M150 300h-100v200h100v-200zM550 500v-200h-100v200h100zM250 150h-100v150h100v-150zM350 300h100v-150h-100v150zM250 150h100v-100h-100v100zM250 -100h-100v150h100v-150zM350 50h100v-150h-100v150zM250 -100h100v-100h-100v100z" />
    <glyph glyph-name="uni0264" unicode="&#x264;" horiz-adv-x="600" 
d="M150 400h-100v150h100v-150zM550 550v-150h-100v150h100zM250 400v-100h-100v100h100zM350 400h100v-100h-100v100zM250 300h100v-100h-100v100zM250 200v-100h-100v100h100zM350 100v100h100v-100h-100zM250 100h100v-100h-100v100z" />
    <glyph glyph-name="uni0265" unicode="&#x265;" 
d="M150 100h-100v400h100v-400zM450 500v-800h-100v300h-200v100h200v400h100z" />
    <glyph glyph-name="uni0266" unicode="&#x266;" 
d="M150 700v100h150v-100h-150zM350 500v-100h-200v-400h-100v700h100v-200h200zM450 400v-400h-100v400h100z" />
    <glyph glyph-name="uni0267" unicode="&#x267;" 
d="M150 700v100h250v-100h-250zM350 500v-100h-200v-400h-100v700h100v-200h200zM450 400v-500h-100v500h100zM350 -100v-100h-150v100h150z" />
    <glyph glyph-name="uni0268" unicode="&#x268;" horiz-adv-x="400" 
d="M250 550h-100v100h100v-100zM350 350v-100h-100v-250h-100v250h-100v100h100v150h100v-150h100z" />
    <glyph glyph-name="uni0269" unicode="&#x269;" horiz-adv-x="275" 
d="M150 100h-100v400h100v-400zM250 100v-100h-100v100h100z" />
    <glyph glyph-name="uni026A" unicode="&#x26a;" horiz-adv-x="200" 
d="M150 550v-550h-100v550h100z" />
    <glyph glyph-name="uni026B" unicode="&#x26b;" horiz-adv-x="550" 
d="M325 400h100v-100h-100v-300h-100v400h-100v100h100v300h100v-400zM525 500v-100h-100v100h100zM25 400h100v-100h-100v100z" />
    <glyph glyph-name="uni026C" unicode="&#x26c;" horiz-adv-x="450" 
d="M425 400v-100h-100v-300h-100v300h-100v100h100v100h-100v100h100v200h100v-400h100zM125 500v-100h-100v100h100z" />
    <glyph glyph-name="uni026D" unicode="&#x26d;" horiz-adv-x="325" 
d="M150 -100h-100v900h100v-900zM300 -100v-100h-150v100h150z" />
    <glyph glyph-name="uni026E" unicode="&#x26e;" horiz-adv-x="600" 
d="M550 500v-200h-100v100h-300v-400h-100v800h100v-300h400zM350 300h100v-200h-200v100h100v100zM450 100h100v-200h-100v200zM450 -100v-100h-300v100h300z" />
    <glyph glyph-name="uni026F" unicode="&#x26f;" horiz-adv-x="800" 
d="M150 100h-100v400h100v-400zM450 100h-100v400h100v-400zM750 500v-500h-300v100h200v400h100zM350 100v-100h-200v100h200z" />
    <glyph glyph-name="uni0270" unicode="&#x270;" horiz-adv-x="800" 
d="M150 100h-100v400h100v-400zM450 100h-100v400h100v-400zM750 500v-700h-100v200h-200v100h200v400h100zM350 100v-100h-200v100h200z" />
    <glyph glyph-name="uni0271" unicode="&#x271;" horiz-adv-x="800" 
d="M350 500v-100h-200v-400h-100v500h300zM650 500v-100h-200v100h200zM350 400h100v-400h-100v400zM750 400v-500h-100v500h100zM650 -100v-100h-150v100h150z" />
    <glyph glyph-name="uni0272" unicode="&#x272;" horiz-adv-x="625" 
d="M475 500v-100h-200v-500h-100v600h300zM575 400v-400h-100v400h100zM175 -100v-100h-150v100h150z" />
    <glyph glyph-name="uni0273" unicode="&#x273;" horiz-adv-x="625" 
d="M350 500v-100h-200v-400h-100v500h300zM450 -100h-100v500h100v-500zM600 -100v-100h-150v100h150z" />
    <glyph glyph-name="uni0274" unicode="&#x274;" horiz-adv-x="600" 
d="M250 400h-100v-400h-100v550h200v-150zM550 550v-550h-200v150h100v400h100zM350 150h-100v250h100v-250z" />
    <glyph glyph-name="uni0275" unicode="&#x275;" 
d="M150 400v100h200v-100h-200zM450 400v-300h-100v100h-200v-100h-100v300h100v-100h200v100h100zM350 100v-100h-200v100h200z" />
    <glyph glyph-name="uni0276" unicode="&#x276;" horiz-adv-x="750" 
d="M150 450v100h200v-100h-200zM700 550v-100h-250v100h250zM150 100h-100v350h100v-350zM350 450h100v-125h250v-100h-250v-125h-100v350zM350 100v-100h-200v100h200zM450 0v100h250v-100h-250z" />
    <glyph glyph-name="uni0278" unicode="&#x278;" horiz-adv-x="700" 
d="M550 100v-100h-150v-200h-100v200h-150v100h150v350h-150v100h150v200h100v-200h150v-100h-150v-350h150zM150 100h-100v350h100v-350zM650 450v-350h-100v350h100z" />
    <glyph glyph-name="uni0279" unicode="&#x279;" horiz-adv-x="375" 
d="M325 500v-500h-300v100h200v400h100z" />
    <glyph glyph-name="uni027A" unicode="&#x27a;" horiz-adv-x="375" 
d="M325 800v-800h-300v100h200v700h100z" />
    <glyph glyph-name="uni027B" unicode="&#x27b;" 
d="M325 -100h-100v100h-200v100h200v400h100v-600zM475 -100v-100h-150v100h150z" />
    <glyph glyph-name="uni027D" unicode="&#x27d;" horiz-adv-x="375" 
d="M350 500v-100h-200v-500h-100v600h300zM150 -200v100h150v-100h-150z" />
    <glyph glyph-name="uni027E" unicode="&#x27e;" horiz-adv-x="375" 
d="M350 500v-100h-200v100h200zM50 400h100v-400h-100v400z" />
    <glyph glyph-name="uni0280" unicode="&#x280;" 
d="M350 300v-100h-200v-200h-100v550h300v-100h-200v-150h200zM450 450v-150h-100v150h100zM350 200h100v-200h-100v200z" />
    <glyph glyph-name="uni0281" unicode="&#x281;" 
d="M350 350v-100h-200v-150h200v-100h-300v550h100v-200h200zM450 550v-200h-100v200h100zM350 250h100v-150h-100v150z" />
    <glyph glyph-name="uni0282" unicode="&#x282;" horiz-adv-x="450" 
d="M125 400v100h250v-100h-250zM125 400v-100h-100v100h100zM325 300v-100h-200v100h200zM425 200v-100h-100v100h100zM325 100v-100h-150v-100h-100v200h250zM175 -200v100h150v-100h-150z" />
    <glyph glyph-name="uni0283" unicode="&#x283;" horiz-adv-x="450" 
d="M425 800v-100h-150v100h150zM175 700h100v-800h-100v800zM175 -100v-100h-150v100h150z" />
    <glyph glyph-name="uni0284" unicode="&#x284;" horiz-adv-x="475" 
d="M450 800v-100h-150v100h150zM200 700h100v-500h100v-100h-100v-200h-100v200h-100v100h100v500zM200 -100v-100h-150v100h150z" />
    <glyph glyph-name="uni0288" unicode="&#x288;" horiz-adv-x="400" 
d="M225 -100h-100v500h-100v100h100v100h100v-100h100v-100h-100v-500zM375 -100v-100h-150v100h150z" />
    <glyph glyph-name="uni0289" unicode="&#x289;" horiz-adv-x="650" 
d="M625 350v-100h-100v-250h-300v100h200v150h-200v-150h-100v150h-100v100h100v150h100v-150h200v150h100v-150h100z" />
    <glyph glyph-name="uni028A" unicode="&#x28a;" horiz-adv-x="650" 
d="M175 550v-100h-150v100h150zM625 550v-100h-150v100h150zM275 350h-100v100h100v-100zM375 450h100v-100h-100v100zM175 100h-100v250h100v-250zM475 350h100v-250h-100v250zM475 100v-100h-300v100h300z" />
    <glyph glyph-name="uni028B" unicode="&#x28b;" horiz-adv-x="600" 
d="M150 200h-100v300h100v-300zM450 500v-100h-150v100h150zM550 400v-200h-100v200h100zM250 200v-100h-100v100h100zM350 200h100v-100h-100v100zM250 100h100v-100h-100v100z" />
    <glyph glyph-name="uni028C" unicode="&#x28c;" horiz-adv-x="600" 
d="M350 500v-100h-100v100h100zM150 400h100v-100h-100v100zM450 400v-100h-100v100h100zM50 300h100v-300h-100v300zM550 300v-300h-100v300h100z" />
    <glyph glyph-name="uni028D" unicode="&#x28d;" horiz-adv-x="800" 
d="M350 500v-100h-200v100h200zM750 500v-500h-100v400h-200v100h300zM50 400h100v-400h-100v400zM350 400h100v-400h-100v400z" />
    <glyph glyph-name="uni028E" unicode="&#x28e;" 
d="M150 600v100h250v-100h-250zM350 400v-100h-200v-300h-100v600h100v-200h200zM450 300v-300h-100v300h100z" />
    <glyph glyph-name="uni028F" unicode="&#x28f;" 
d="M150 350h-100v200h100v-200zM450 550v-550h-100v250h-200v100h200v200h100z" />
    <glyph glyph-name="uni0290" unicode="&#x290;" horiz-adv-x="575" 
d="M400 300h-100v100h-250v100h350v-200zM150 200v100h150v-100h-150zM400 -100h-100v100h-250v200h100v-100h250v-200zM550 -100v-100h-150v100h150z" />
    <glyph glyph-name="uni0291" unicode="&#x291;" horiz-adv-x="675" 
d="M400 300h-100v100h-250v100h350v-200zM150 200v100h150v-100h-150zM550 200h-100v100h100v-100zM450 100h100v-100h-150v-200h-100v200h-250v200h100v-100h200v100h100v-100zM650 200v-100h-100v100h100z" />
    <glyph glyph-name="uni0292" unicode="&#x292;" 
d="M450 500v-200h-100v100h-300v100h400zM250 300h100v-200h-200v100h100v100zM350 100h100v-200h-100v200zM350 -100v-100h-300v100h300z" />
    <glyph glyph-name="uni0294" unicode="&#x294;" 
d="M350 750v-100h-200v100h200zM50 650h100v-100h-100v100zM450 650v-200h-100v200h100zM250 450h100v-150h-100v150zM150 300h100v-300h-100v300z" />
    <glyph glyph-name="uni0295" unicode="&#x295;" 
d="M350 750v-100h-200v100h200zM50 650h100v-200h-100v200zM450 650v-100h-100v100h100zM150 450h100v-150h-100v150zM250 300h100v-300h-100v300z" />
    <glyph glyph-name="uni0298" unicode="&#x298;" horiz-adv-x="600" 
d="M150 650v100h300v-100h-300zM150 100h-100v550h100v-550zM550 650v-550h-100v550h100zM250 425h100v-100h-100v100zM450 100v-100h-300v100h300z" />
    <glyph glyph-name="uni0299" unicode="&#x299;" 
d="M350 350v-100h-200v-150h200v-100h-300v550h300v-100h-200v-100h200zM450 450v-100h-100v100h100zM350 250h100v-150h-100v150z" />
    <glyph glyph-name="uni029B" unicode="&#x29b;" 
d="M450 700v-150h-100v150h100zM350 550v-100h-200v100h200zM50 450h100v-350h-100v350zM450 100h-100v150h-100v100h200v-250zM150 0v100h200v-100h-200z" />
    <glyph glyph-name="uni029C" unicode="&#x29c;" 
d="M450 550v-550h-100v250h-200v-250h-100v550h100v-200h200v200h100z" />
    <glyph glyph-name="uni029D" unicode="&#x29d;" 
d="M375 550h-100v100h100v-100zM475 100v-100h-100v-100h-100v100h-150v100h150v400h100v-400h100zM125 0v-100h-100v100h100zM275 -100v-100h-150v100h150z" />
    <glyph glyph-name="uni029F" unicode="&#x29f;" horiz-adv-x="375" 
d="M350 100v-100h-300v550h100v-450h200z" />
    <glyph glyph-name="uni02A1" unicode="&#x2a1;" 
d="M350 750v-100h-200v100h200zM50 650h100v-100h-100v100zM450 650v-200h-100v200h100zM250 450h100v-150h-100v150zM150 300h100v-100h150v-100h-150v-100h-100v100h-100v100h100v100z" />
    <glyph glyph-name="uni02A2" unicode="&#x2a2;" 
d="M350 750v-100h-200v100h200zM50 650h100v-200h-100v200zM450 650v-100h-100v100h100zM150 450h100v-150h-100v150zM250 200v100h100v-100h100v-100h-100v-100h-100v100h-150v100h150z" />
    <glyph glyph-name="uni02A4" unicode="&#x2a4;" horiz-adv-x="900" 
d="M850 500v-200h-100v100h-300v-400h-300v100h200v300h-200v100h200v300h100v-300h400zM150 100h-100v300h100v-300zM650 300h100v-200h-200v100h100v100zM750 100h100v-200h-100v200zM750 -100v-100h-300v100h300z" />
    <glyph glyph-name="uni02A7" unicode="&#x2a7;" horiz-adv-x="700" 
d="M675 800v-100h-150v100h150zM425 700h100v-800h-100v500h-200v-400h-100v400h-100v100h100v100h100v-100h200v200zM425 -100v-100h-150v100h150z" />
    <glyph glyph-name="uni02BC" unicode="&#x2bc;" horiz-adv-x="100" 
d="M100 750v-200h-100v200h100z" />
    <glyph glyph-name="circumflex" unicode="&#x2c6;" horiz-adv-x="300" 
d="M200 750v-100h-100v100h100zM0 650h100v-100h-100v100zM300 650v-100h-100v100h100z" />
    <glyph glyph-name="caron" unicode="&#x2c7;" horiz-adv-x="300" 
d="M100 750v-100h-100v100h100zM300 750v-100h-100v100h100zM100 650h100v-100h-100v100z" />
    <glyph glyph-name="breve" unicode="&#x2d8;" horiz-adv-x="400" 
d="M100 750v-100h-100v100h100zM400 750v-100h-100v100h100zM300 650v-100h-200v100h200z" />
    <glyph glyph-name="dotaccent" unicode="&#x2d9;" horiz-adv-x="100" 
d="M100 650v-100h-100v100h100z" />
    <glyph glyph-name="ring" unicode="&#x2da;" horiz-adv-x="300" 
d="M200 750h-100v100h100v-100zM100 750v-100h-100v100h100zM300 750v-100h-100v100h100zM100 650h100v-100h-100v100z" />
    <glyph glyph-name="ogonek" unicode="&#x2db;" horiz-adv-x="200" 
d="M200 0v-100h-100v100h100zM0 -100h100v-100h-100v100zM100 -300v100h100v-100h-100z" />
    <glyph glyph-name="tilde" unicode="&#x2dc;" horiz-adv-x="400" 
d="M200 750v-100h-100v100h100zM400 750v-100h-100v100h100zM0 650h100v-100h-100v100zM200 650h100v-100h-100v100z" />
    <glyph glyph-name="hungarumlaut" unicode="&#x2dd;" horiz-adv-x="300" 
d="M0 750h100v-200h-100v200zM300 750v-200h-100v200h100z" />
    <glyph glyph-name="gravecomb" unicode="&#x300;" horiz-adv-x="0" 
d="M-100 750v-100h-100v100h100zM0 650v-100h-100v100h100z" />
    <glyph glyph-name="acutecomb" unicode="&#x301;" horiz-adv-x="0" 
d="M0 750v-100h-100v100h100zM-200 650h100v-100h-100v100z" />
    <glyph glyph-name="uni0302" unicode="&#x302;" horiz-adv-x="0" 
d="M-100 750v-100h-100v100h100zM-300 650h100v-100h-100v100zM0 650v-100h-100v100h100z" />
    <glyph glyph-name="tildecomb" unicode="&#x303;" horiz-adv-x="0" 
d="M-200 750v-100h-100v100h100zM0 750v-100h-100v100h100zM-400 650h100v-100h-100v100zM-200 650h100v-100h-100v100z" />
    <glyph glyph-name="uni0304" unicode="&#x304;" horiz-adv-x="0" 
d="M0 650v-100h-300v100h300z" />
    <glyph glyph-name="uni0306" unicode="&#x306;" horiz-adv-x="0" 
d="M-300 750v-100h-100v100h100zM0 750v-100h-100v100h100zM-100 650v-100h-200v100h200z" />
    <glyph glyph-name="uni0307" unicode="&#x307;" horiz-adv-x="0" 
d="M0 650v-100h-100v100h100z" />
    <glyph glyph-name="uni0308" unicode="&#x308;" horiz-adv-x="0" 
d="M-300 650h100v-100h-100v100zM0 650v-100h-100v100h100z" />
    <glyph glyph-name="hookabovecomb" unicode="&#x309;" horiz-adv-x="0" 
d="M0 750v-200h-100v100h-100v100h200z" />
    <glyph glyph-name="uni030A" unicode="&#x30a;" horiz-adv-x="0" 
d="M-100 750h-100v100h100v-100zM-200 750v-100h-100v100h100zM0 750v-100h-100v100h100zM-200 650h100v-100h-100v100z" />
    <glyph glyph-name="uni030B" unicode="&#x30b;" horiz-adv-x="0" 
d="M-300 750h100v-200h-100v200zM0 750v-200h-100v200h100z" />
    <glyph glyph-name="uni030C" unicode="&#x30c;" horiz-adv-x="0" 
d="M-200 750v-100h-100v100h100zM0 750v-100h-100v100h100zM-200 650h100v-100h-100v100z" />
    <glyph glyph-name="uni0312" unicode="&#x312;" horiz-adv-x="0" 
d="M0 850v-100h-100v100h100zM-200 750h100v-150h-100v150z" />
    <glyph glyph-name="uni031B" unicode="&#x31b;" horiz-adv-x="0" 
d="M0 800v-150h-100v150h100zM-200 650h100v-100h-100v100z" />
    <glyph glyph-name="dotbelowcomb" unicode="&#x323;" horiz-adv-x="0" 
d="M0 -50v-100h-100v100h100z" />
    <glyph glyph-name="uni0326" unicode="&#x326;" horiz-adv-x="0" 
d="M0 -50v-150h-100v150h100zM-200 -200h100v-100h-100v100z" />
    <glyph glyph-name="uni0327" unicode="&#x327;" horiz-adv-x="0" 
d="M-100 0v-100h-100v100h100zM0 -100v-100h-100v100h100zM-200 -200h100v-100h-100v100z" />
    <glyph glyph-name="uni0328" unicode="&#x328;" horiz-adv-x="0" 
d="M0 0v-100h-100v100h100zM-200 -100h100v-100h-100v100zM-100 -300v100h100v-100h-100z" />
    <glyph glyph-name="uni0331" unicode="&#x331;" horiz-adv-x="0" 
d="M0 -50v-100h-300v100h300z" />
    <glyph glyph-name="uni0335" unicode="&#x335;" horiz-adv-x="0" 
d="M-50 450v-100h-400v100h400z" />
    <glyph glyph-name="uni0336" unicode="&#x336;" horiz-adv-x="0" 
d="M-50 450v-100h-500v100h500z" />
    <glyph glyph-name="uni0337" unicode="&#x337;" horiz-adv-x="0" 
d="M-50 500v-150h-100v150h100zM-250 350h100v-200h-100v200zM-350 150h100v-150h-100v150z" />
    <glyph glyph-name="uni0338" unicode="&#x338;" horiz-adv-x="0" 
d="M-50 750v-150h-100v150h100zM-250 600h100v-150h-100v150zM-350 450h100v-150h-100v150zM-450 300h100v-150h-100v150zM-550 150h100v-150h-100v150z" />
    <glyph glyph-name="tonos" unicode="&#x384;" horiz-adv-x="200" 
d="M200 750v-100h-100v100h100zM0 650h100v-100h-100v100z" />
    <glyph glyph-name="dieresistonos" unicode="&#x385;" horiz-adv-x="300" 
d="M300 900v-100h-100v100h100zM100 800h100v-100h-100v100zM0 650h100v-100h-100v100zM200 650h100v-100h-100v100z" />
    <glyph glyph-name="Alphatonos" unicode="&#x386;" horiz-adv-x="650" 
d="M250 825h-100v100h100v-100zM150 725h-100v100h100v-100zM200 650v100h300v-100h-300zM600 650v-650h-100v250h-300v-250h-100v650h100v-300h300v300h100z" />
    <glyph glyph-name="Epsilontonos" unicode="&#x388;" horiz-adv-x="625" 
d="M225 825h-100v100h100v-100zM25 825h100v-100h-100v100zM575 750v-100h-300v-200h300v-100h-300v-250h300v-100h-400v750h400z" />
    <glyph glyph-name="Etatonos" unicode="&#x389;" horiz-adv-x="725" 
d="M225 825h-100v100h100v-100zM25 825h100v-100h-100v100zM675 750v-750h-100v350h-300v-350h-100v750h100v-300h300v300h100z" />
    <glyph glyph-name="Iotatonos" unicode="&#x38a;" horiz-adv-x="325" 
d="M225 825h-100v100h100v-100zM25 825h100v-100h-100v100zM275 750v-750h-100v750h100z" />
    <glyph glyph-name="Omicrontonos" unicode="&#x38c;" horiz-adv-x="650" 
d="M250 825h-100v100h100v-100zM150 725h-100v100h100v-100zM200 650v100h300v-100h-300zM200 100h-100v550h100v-550zM600 650v-550h-100v550h100zM500 100v-100h-300v100h300z" />
    <glyph glyph-name="Upsilontonos" unicode="&#x38e;" horiz-adv-x="725" 
d="M225 825h-100v100h100v-100zM25 825h100v-100h-100v100zM275 450h-100v300h100v-300zM625 750v-750h-100v350h-250v100h250v300h100z" />
    <glyph glyph-name="Omegatonos" unicode="&#x38f;" horiz-adv-x="750" 
d="M275 825h-100v100h100v-100zM175 725h-100v100h100v-100zM525 750v-100h-300v100h300zM125 650h100v-150h-100v150zM625 500h-100v150h100v-150zM25 500h100v-150h-100v150zM725 500v-150h-100v150h100zM125 350h100v-150h-100v150zM525 350h100v-150h-100v150zM225 100
v100h100v-200h-250v100h150zM425 200h100v-100h150v-100h-250v200z" />
    <glyph glyph-name="iotadieresistonos" unicode="&#x390;" horiz-adv-x="350" 
d="M325 900v-100h-100v100h100zM125 800h100v-100h-100v100zM125 550h-100v100h100v-100zM225 650h100v-100h-100v100zM225 100h-100v400h100v-400zM225 100h100v-100h-100v100z" />
    <glyph glyph-name="Alpha" unicode="&#x391;" horiz-adv-x="600" 
d="M150 650v100h300v-100h-300zM550 650v-650h-100v250h-300v-250h-100v650h100v-300h300v300h100z" />
    <glyph glyph-name="Beta" unicode="&#x392;" horiz-adv-x="600" 
d="M450 450v-100h-300v-250h300v-100h-400v750h400v-100h-300v-200h300zM550 650v-200h-100v200h100zM450 350h100v-250h-100v250z" />
    <glyph glyph-name="Gamma" unicode="&#x393;" horiz-adv-x="475" 
d="M450 750v-100h-300v-650h-100v750h400z" />
    <glyph glyph-name="uni0394" unicode="&#x394;" horiz-adv-x="600" 
d="M350 550h-100v200h100v-200zM250 300h-100v250h100v-250zM350 550h100v-250h-100v250zM550 300v-300h-500v300h100v-200h300v200h100z" />
    <glyph glyph-name="Epsilon" unicode="&#x395;" 
d="M450 750v-100h-300v-200h300v-100h-300v-250h300v-100h-400v750h400z" />
    <glyph glyph-name="Zeta" unicode="&#x396;" horiz-adv-x="600" 
d="M550 750v-200h-100v100h-400v100h500zM350 550h100v-100h-100v100zM250 450h100v-150h-100v150zM150 300h100v-100h-100v100zM50 200h100v-100h400v-100h-500v200z" />
    <glyph glyph-name="Eta" unicode="&#x397;" horiz-adv-x="600" 
d="M550 750v-750h-100v350h-300v-350h-100v750h100v-300h300v300h100z" />
    <glyph glyph-name="Theta" unicode="&#x398;" horiz-adv-x="600" 
d="M150 650v100h300v-100h-300zM150 100h-100v550h100v-550zM550 650v-550h-100v550h100zM400 425v-100h-200v100h200zM450 100v-100h-300v100h300z" />
    <glyph glyph-name="Iota" unicode="&#x399;" horiz-adv-x="200" 
d="M150 750v-750h-100v750h100z" />
    <glyph glyph-name="Kappa" unicode="&#x39a;" horiz-adv-x="550" 
d="M400 450v-100h-250v-350h-100v750h100v-300h250zM500 750v-300h-100v300h100zM400 350h100v-350h-100v350z" />
    <glyph glyph-name="Lambda" unicode="&#x39b;" horiz-adv-x="600" 
d="M350 600h-100v150h100v-150zM150 600h100v-150h-100v150zM450 450h-100v150h100v-150zM50 450h100v-450h-100v450zM550 450v-450h-100v450h100z" />
    <glyph glyph-name="Mu" unicode="&#x39c;" horiz-adv-x="800" 
d="M250 450h-100v-450h-100v750h100v-150h100v-150zM750 750v-750h-100v450h-100v150h100v150h100zM350 250h-100v200h100v-200zM450 450h100v-200h-100v200zM350 250h100v-150h-100v150z" />
    <glyph glyph-name="Nu" unicode="&#x39d;" horiz-adv-x="600" 
d="M250 475h-100v-475h-100v750h100v-125h100v-150zM550 750v-750h-100v125h-100v150h100v475h100zM350 275h-100v200h100v-200z" />
    <glyph glyph-name="Xi" unicode="&#x39e;" horiz-adv-x="550" 
d="M500 750v-100h-450v100h450zM100 350v100h350v-100h-350zM500 100v-100h-450v100h450z" />
    <glyph glyph-name="Omicron" unicode="&#x39f;" horiz-adv-x="600" 
d="M150 650v100h300v-100h-300zM150 100h-100v550h100v-550zM550 650v-550h-100v550h100zM450 100v-100h-300v100h300z" />
    <glyph glyph-name="Pi" unicode="&#x3a0;" horiz-adv-x="600" 
d="M550 750v-750h-100v650h-300v-650h-100v750h500z" />
    <glyph glyph-name="Rho" unicode="&#x3a1;" horiz-adv-x="600" 
d="M450 450v-100h-300v-350h-100v750h400v-100h-300v-200h300zM550 650v-200h-100v200h100z" />
    <glyph glyph-name="Sigma" unicode="&#x3a3;" horiz-adv-x="550" 
d="M500 750v-100h-350v-100h-100v200h450zM150 450v100h100v-100h-100zM250 450h100v-150h-100v150zM150 300h100v-100h-100v100zM50 200h100v-100h350v-100h-450v200z" />
    <glyph glyph-name="Tau" unicode="&#x3a4;" horiz-adv-x="550" 
d="M525 750v-100h-200v-650h-100v650h-200v100h500z" />
    <glyph glyph-name="Upsilon" unicode="&#x3a5;" horiz-adv-x="550" 
d="M150 450h-100v300h100v-300zM500 750v-750h-100v350h-250v100h250v300h100z" />
    <glyph glyph-name="Phi" unicode="&#x3a6;" horiz-adv-x="700" 
d="M550 200v-100h-150v-100h-100v100h-150v100h150v350h-150v100h150v100h100v-100h150v-100h-150v-350h150zM150 200h-100v350h100v-350zM650 550v-350h-100v350h100z" />
    <glyph glyph-name="Chi" unicode="&#x3a7;" horiz-adv-x="600" 
d="M150 450h-100v300h100v-300zM550 750v-300h-100v300h100zM450 450v-100h-300v100h300zM50 350h100v-350h-100v350zM450 350h100v-350h-100v350z" />
    <glyph glyph-name="Psi" unicode="&#x3a8;" horiz-adv-x="700" 
d="M150 300h-100v450h100v-450zM550 300v-100h-150v-200h-100v200h-150v100h150v450h100v-450h150zM650 750v-450h-100v450h100z" />
    <glyph glyph-name="uni03A9" unicode="&#x3a9;" horiz-adv-x="750" 
d="M525 750v-100h-300v100h300zM125 650h100v-150h-100v150zM625 500h-100v150h100v-150zM25 500h100v-150h-100v150zM725 500v-150h-100v150h100zM125 350h100v-150h-100v150zM525 350h100v-150h-100v150zM225 100v100h100v-200h-250v100h150zM425 200h100v-100h150v-100
h-250v200z" />
    <glyph glyph-name="Iotadieresis" unicode="&#x3aa;" horiz-adv-x="350" 
d="M125 775h-100v100h100v-100zM325 875v-100h-100v100h100zM125 750h100v-750h-100v750z" />
    <glyph glyph-name="Upsilondieresis" unicode="&#x3ab;" horiz-adv-x="600" 
d="M250 775h-100v100h100v-100zM450 775h-100v100h100v-100zM150 450h-100v300h100v-300zM500 750v-750h-100v350h-250v100h250v300h100z" />
    <glyph glyph-name="alphatonos" unicode="&#x3ac;" 
d="M400 650h-100v100h100v-100zM300 550h-100v100h100v-100zM150 400v100h200v-100h-200zM150 100h-100v300h100v-300zM450 400v-400h-300v100h200v300h100z" />
    <glyph glyph-name="epsilontonos" unicode="&#x3ad;" horiz-adv-x="450" 
d="M400 750v-100h-100v100h100zM200 650h100v-100h-100v100zM400 500v-100h-250v100h250zM50 400h100v-100h-100v100zM150 200v100h200v-100h-200zM50 200h100v-100h-100v100zM150 0v100h250v-100h-250z" />
    <glyph glyph-name="etatonos" unicode="&#x3ae;" 
d="M450 750v-100h-100v100h100zM250 650h100v-100h-100v100zM350 500v-100h-200v-400h-100v500h300zM350 400h100v-600h-100v600z" />
    <glyph glyph-name="iotatonos" unicode="&#x3af;" horiz-adv-x="275" 
d="M250 750v-100h-100v100h100zM50 650h100v-100h-100v100zM150 100h-100v400h100v-400zM150 100h100v-100h-100v100z" />
    <glyph glyph-name="upsilondieresistonos" unicode="&#x3b0;" 
d="M400 800h-100v100h100v-100zM300 700h-100v100h100v-100zM200 550h-100v100h100v-100zM300 650h100v-100h-100v100zM150 100h-100v400h100v-400zM450 500v-400h-100v400h100zM350 100v-100h-200v100h200z" />
    <glyph glyph-name="alpha" unicode="&#x3b1;" 
d="M150 400v100h200v-100h-200zM150 100h-100v300h100v-300zM450 400v-400h-300v100h200v300h100z" />
    <glyph glyph-name="beta" unicode="&#x3b2;" 
d="M150 600v100h200v-100h-200zM350 100v-100h-200v-200h-100v800h100v-500h200zM450 600v-200h-100v200h100zM250 400h100v-100h-100v100zM350 300h100v-200h-100v200z" />
    <glyph glyph-name="gamma" unicode="&#x3b3;" horiz-adv-x="600" 
d="M150 300h-100v200h100v-200zM550 500v-200h-100v200h100zM250 150h-100v150h100v-150zM350 300h100v-150h-100v150zM250 150h100v-100h-100v100zM250 -100h-100v150h100v-150zM350 50h100v-150h-100v150zM250 -100h100v-100h-100v100z" />
    <glyph glyph-name="delta" unicode="&#x3b4;" 
d="M150 600v100h250v-100h-250zM150 100h-100v500h100v-100h200v-100h-200v-300zM450 400v-300h-100v300h100zM350 100v-100h-200v100h200z" />
    <glyph glyph-name="epsilon" unicode="&#x3b5;" horiz-adv-x="450" 
d="M400 500v-100h-250v100h250zM50 400h100v-100h-100v100zM150 200v100h200v-100h-200zM50 200h100v-100h-100v100zM150 0v100h250v-100h-250z" />
    <glyph glyph-name="zeta" unicode="&#x3b6;" 
d="M450 700v-200h-100v100h-250v100h350zM350 500v-100h-200v100h200zM50 400h100v-300h-100v300zM150 0v100h200v-100h-200zM350 -100v100h100v-100h-100zM250 -100h100v-100h-100v100z" />
    <glyph glyph-name="eta" unicode="&#x3b7;" 
d="M350 500v-100h-200v-400h-100v500h300zM450 400v-600h-100v600h100z" />
    <glyph glyph-name="theta" unicode="&#x3b8;" 
d="M150 600v100h200v-100h-200zM450 600v-500h-100v200h-200v-200h-100v500h100v-200h200v200h100zM350 100v-100h-200v100h200z" />
    <glyph glyph-name="iota" unicode="&#x3b9;" horiz-adv-x="275" 
d="M150 100h-100v400h100v-400zM250 100v-100h-100v100h100z" />
    <glyph glyph-name="kappa" unicode="&#x3ba;" horiz-adv-x="450" 
d="M300 300v-100h-150v-200h-100v500h100v-200h150zM400 500v-200h-100v200h100zM300 200h100v-200h-100v200z" />
    <glyph glyph-name="lambda" unicode="&#x3bb;" horiz-adv-x="600" 
d="M250 500h-100v200h100v-200zM350 500v-100h-100v100h100zM150 400h100v-200h-100v200zM450 200h-100v200h100v-200zM50 200h100v-200h-100v200zM550 200v-200h-100v200h100z" />
    <glyph glyph-name="uni03BC" unicode="&#x3bc;" horiz-adv-x="575" 
d="M350 100v-100h-200v-200h-100v700h100v-400h200zM450 100h-100v400h100v-400zM550 100v-100h-100v100h100z" />
    <glyph glyph-name="nu" unicode="&#x3bd;" horiz-adv-x="600" 
d="M150 200h-100v300h100v-300zM550 500v-300h-100v300h100zM250 200v-100h-100v100h100zM350 200h100v-100h-100v100zM250 100h100v-100h-100v100z" />
    <glyph glyph-name="xi" unicode="&#x3be;" 
d="M450 700v-200h-100v100h-250v100h350zM350 500v-100h-200v100h200zM50 400h100v-100h-100v100zM150 200v100h200v-100h-200zM50 200h100v-100h-100v100zM150 0v100h200v-100h-200zM350 -100v100h100v-100h-100zM250 -100h100v-100h-100v100z" />
    <glyph glyph-name="omicron" unicode="&#x3bf;" 
d="M150 400v100h200v-100h-200zM150 100h-100v300h100v-300zM450 400v-300h-100v300h100zM350 100v-100h-200v100h200z" />
    <glyph glyph-name="pi" unicode="&#x3c0;" horiz-adv-x="675" 
d="M625 500v-100h-100v-300h-100v300h-200v-400h-100v400h-100v100h600zM525 0v100h100v-100h-100z" />
    <glyph glyph-name="rho" unicode="&#x3c1;" 
d="M150 400v100h200v-100h-200zM350 100v-100h-200v-200h-100v600h100v-300h200zM450 400v-300h-100v300h100z" />
    <glyph glyph-name="uni03C2" unicode="&#x3c2;" 
d="M450 500v-100h-300v100h300zM50 400h100v-300h-100v300zM150 0v100h200v-100h-200zM350 -100v100h100v-100h-100zM350 -100v-100h-200v100h200z" />
    <glyph glyph-name="sigma" unicode="&#x3c3;" horiz-adv-x="625" 
d="M600 500v-100h-150v-300h-100v300h-200v100h450zM150 100h-100v300h100v-300zM350 100v-100h-200v100h200z" />
    <glyph glyph-name="tau" unicode="&#x3c4;" horiz-adv-x="475" 
d="M425 500v-100h-150v-300h-100v300h-150v100h400zM275 0v100h150v-100h-150z" />
    <glyph glyph-name="upsilon" unicode="&#x3c5;" 
d="M150 100h-100v400h100v-400zM450 500v-400h-100v400h100zM350 100v-100h-200v100h200z" />
    <glyph glyph-name="phi" unicode="&#x3c6;" horiz-adv-x="600" 
d="M450 400h-100v100h100v-100zM150 100h-100v350h100v-350zM350 100h100v-100h-100v-200h-100v200h-100v100h100v300h100v-300zM550 400v-300h-100v300h100z" />
    <glyph glyph-name="chi" unicode="&#x3c7;" 
d="M150 300h-100v200h100v-200zM450 500v-200h-100v200h100zM350 300v-100h-200v100h200zM50 200h100v-200h-100v200zM350 200h100v-200h-100v200z" />
    <glyph glyph-name="psi" unicode="&#x3c8;" horiz-adv-x="700" 
d="M150 100h-100v400h100v-400zM550 100v-100h-150v-200h-100v200h-150v100h150v400h100v-400h150zM650 500v-400h-100v400h100z" />
    <glyph glyph-name="omega" unicode="&#x3c9;" horiz-adv-x="700" 
d="M250 350h-100v150h100v-150zM550 350h-100v150h100v-150zM150 100h-100v250h100v-250zM650 350v-250h-100v250h100zM400 100h-100v200h100v-200zM300 100v-100h-150v100h150zM550 100v-100h-150v100h150z" />
    <glyph glyph-name="iotadieresis" unicode="&#x3ca;" horiz-adv-x="350" 
d="M125 550h-100v100h100v-100zM325 650v-100h-100v100h100zM225 100h-100v400h100v-400zM225 100h100v-100h-100v100z" />
    <glyph glyph-name="upsilondieresis" unicode="&#x3cb;" 
d="M200 550h-100v100h100v-100zM400 550h-100v100h100v-100zM150 100h-100v400h100v-400zM450 500v-400h-100v400h100zM350 100v-100h-200v100h200z" />
    <glyph glyph-name="omicrontonos" unicode="&#x3cc;" 
d="M400 650h-100v100h100v-100zM300 550h-100v100h100v-100zM150 400v100h200v-100h-200zM150 100h-100v300h100v-300zM450 400v-300h-100v300h100zM350 100v-100h-200v100h200z" />
    <glyph glyph-name="upsilontonos" unicode="&#x3cd;" 
d="M400 650h-100v100h100v-100zM300 550h-100v100h100v-100zM150 100h-100v400h100v-400zM450 500v-400h-100v400h100zM350 100v-100h-200v100h200z" />
    <glyph glyph-name="omegatonos" unicode="&#x3ce;" horiz-adv-x="700" 
d="M500 650h-100v100h100v-100zM400 550h-100v100h100v-100zM250 350h-100v150h100v-150zM550 350h-100v150h100v-150zM150 100h-100v250h100v-250zM650 350v-250h-100v250h100zM400 100h-100v200h100v-200zM300 100v-100h-150v100h150zM550 100v-100h-150v100h150z" />
    <glyph glyph-name="uni1E04" unicode="&#x1e04;" horiz-adv-x="600" 
d="M450 450v-100h-300v-250h300v-100h-400v750h400v-100h-300v-200h300zM550 650v-200h-100v200h100zM450 350h100v-250h-100v250zM225 -50h100v-100h-100v100z" />
    <glyph glyph-name="uni1E05" unicode="&#x1e05;" 
d="M350 100v-100h-300v800h100v-300h200v-100h-200v-300h200zM450 400v-300h-100v300h100zM200 -50h100v-100h-100v100z" />
    <glyph glyph-name="uni1E0C" unicode="&#x1e0c;" horiz-adv-x="600" 
d="M450 100v-100h-400v750h400v-100h-300v-550h300zM550 650v-550h-100v550h100zM250 -50h100v-100h-100v100z" />
    <glyph glyph-name="uni1E0D" unicode="&#x1e0d;" 
d="M450 800v-800h-300v100h200v300h-200v100h200v300h100zM150 100h-100v300h100v-300zM200 -50h100v-100h-100v100z" />
    <glyph glyph-name="uni1E0E" unicode="&#x1e0e;" horiz-adv-x="600" 
d="M450 100v-100h-400v750h400v-100h-300v-550h300zM550 650v-550h-100v550h100zM550 -50v-100h-500v100h500z" />
    <glyph glyph-name="uni1E0F" unicode="&#x1e0f;" 
d="M450 800v-800h-300v100h200v300h-200v100h200v300h100zM150 100h-100v300h100v-300zM450 -50v-100h-400v100h400z" />
    <glyph glyph-name="uni1E12" unicode="&#x1e12;" horiz-adv-x="600" 
d="M450 100v-100h-400v750h400v-100h-300v-550h300zM550 650v-550h-100v550h100zM350 -50v-100h-100v100h100zM150 -150h100v-100h-100v100zM350 -150h100v-100h-100v100z" />
    <glyph glyph-name="uni1E13" unicode="&#x1e13;" 
d="M450 800v-800h-300v100h200v300h-200v100h200v300h100zM150 100h-100v300h100v-300zM300 -50v-100h-100v100h100zM100 -150h100v-100h-100v100zM300 -150h100v-100h-100v100z" />
    <glyph glyph-name="uni1E24" unicode="&#x1e24;" horiz-adv-x="600" 
d="M550 750v-750h-100v350h-300v-350h-100v750h100v-300h300v300h100zM250 -50h100v-100h-100v100z" />
    <glyph glyph-name="uni1E25" unicode="&#x1e25;" 
d="M350 500v-100h-200v-400h-100v800h100v-300h200zM450 400v-400h-100v400h100zM200 -50h100v-100h-100v100z" />
    <glyph glyph-name="uni1E2E" unicode="&#x1e2e;" horiz-adv-x="350" 
d="M325 1150v-100h-100v100h100zM125 1050h100v-100h-100v100zM125 800h-100v100h100v-100zM225 900h100v-100h-100v100zM125 750h100v-750h-100v750z" />
    <glyph glyph-name="uni1E2F" unicode="&#x1e2f;" horiz-adv-x="350" 
d="M325 900v-100h-100v100h100zM125 800h100v-100h-100v100zM125 550h-100v100h100v-100zM225 650h100v-100h-100v100zM125 500h100v-500h-100v500z" />
    <glyph glyph-name="uni1E36" unicode="&#x1e36;" horiz-adv-x="475" 
d="M450 100v-100h-400v750h100v-650h300zM200 -50h100v-100h-100v100z" />
    <glyph glyph-name="uni1E37" unicode="&#x1e37;" horiz-adv-x="200" 
d="M150 800v-800h-100v800h100zM50 -50h100v-100h-100v100z" />
    <glyph glyph-name="uni1E3C" unicode="&#x1e3c;" horiz-adv-x="475" 
d="M450 100v-100h-400v750h100v-650h300zM300 -50v-100h-100v100h100zM100 -150h100v-100h-100v100zM300 -150h100v-100h-100v100z" />
    <glyph glyph-name="uni1E3D" unicode="&#x1e3d;" horiz-adv-x="350" 
d="M225 0h-100v800h100v-800zM225 -50v-100h-100v100h100zM25 -150h100v-100h-100v100zM325 -150v-100h-100v100h100z" />
    <glyph glyph-name="uni1E3E" unicode="&#x1e3e;" horiz-adv-x="800" 
d="M550 900h-100v100h100v-100zM450 800h-100v100h100v-100zM250 450h-100v-450h-100v750h100v-150h100v-150zM750 750v-750h-100v450h-100v150h100v150h100zM350 250h-100v200h100v-200zM450 450h100v-200h-100v200zM350 250h100v-150h-100v150z" />
    <glyph glyph-name="uni1E3F" unicode="&#x1e3f;" horiz-adv-x="800" 
d="M550 650h-100v100h100v-100zM450 550h-100v100h100v-100zM350 500v-100h-200v-400h-100v500h300zM650 500v-100h-200v100h200zM350 400h100v-400h-100v400zM750 400v-400h-100v400h100z" />
    <glyph glyph-name="uni1E44" unicode="&#x1e44;" horiz-adv-x="600" 
d="M350 800h-100v100h100v-100zM250 475h-100v-475h-100v750h100v-125h100v-150zM550 750v-750h-100v125h-100v150h100v475h100zM350 275h-100v200h100v-200z" />
    <glyph glyph-name="uni1E45" unicode="&#x1e45;" 
d="M300 550h-100v100h100v-100zM350 500v-100h-200v-400h-100v500h300zM450 400v-400h-100v400h100z" />
    <glyph glyph-name="uni1E46" unicode="&#x1e46;" horiz-adv-x="600" 
d="M250 475h-100v-475h-100v750h100v-125h100v-150zM550 750v-750h-100v125h-100v150h100v475h100zM350 275h-100v200h100v-200zM250 -50h100v-100h-100v100z" />
    <glyph glyph-name="uni1E47" unicode="&#x1e47;" 
d="M350 500v-100h-200v-400h-100v500h300zM450 400v-400h-100v400h100zM200 -50h100v-100h-100v100z" />
    <glyph glyph-name="uni1E4A" unicode="&#x1e4a;" horiz-adv-x="600" 
d="M250 475h-100v-475h-100v750h100v-125h100v-150zM550 750v-750h-100v125h-100v150h100v475h100zM350 275h-100v200h100v-200zM350 -50v-100h-100v100h100zM150 -150h100v-100h-100v100zM350 -150h100v-100h-100v100z" />
    <glyph glyph-name="uni1E4B" unicode="&#x1e4b;" 
d="M350 500v-100h-200v-400h-100v500h300zM450 400v-400h-100v400h100zM300 -50v-100h-100v100h100zM100 -150h100v-100h-100v100zM300 -150h100v-100h-100v100z" />
    <glyph glyph-name="uni1E4C" unicode="&#x1e4c;" horiz-adv-x="600" 
d="M300 1050h-100v100h100v-100zM200 950h-100v100h100v-100zM350 1000v-100h-100v100h100zM550 1000v-100h-100v100h100zM150 900h100v-100h-100v100zM350 900h100v-100h-100v100zM150 650v100h300v-100h-300zM150 100h-100v550h100v-550zM450 650h100v-550h-100v550z
M450 100v-100h-300v100h300z" />
    <glyph glyph-name="uni1E4D" unicode="&#x1e4d;" horiz-adv-x="525" 
d="M250 800h-100v100h100v-100zM150 700h-100v100h100v-100zM300 750v-100h-100v100h100zM500 750v-100h-100v100h100zM100 650h100v-100h-100v100zM300 650h100v-100h-100v100zM150 400v100h200v-100h-200zM150 100h-100v300h100v-300zM350 400h100v-300h-100v300zM350 100
v-100h-200v100h200z" />
    <glyph glyph-name="uni1E50" unicode="&#x1e50;" horiz-adv-x="600" 
d="M250 1050h-100v100h100v-100zM250 950v100h100v-100h-100zM150 800v100h300v-100h-300zM150 650v100h300v-100h-300zM150 100h-100v550h100v-550zM550 650v-550h-100v550h100zM450 100v-100h-300v100h300z" />
    <glyph glyph-name="uni1E51" unicode="&#x1e51;" 
d="M200 800h-100v100h100v-100zM200 700v100h100v-100h-100zM100 550v100h300v-100h-300zM150 400v100h200v-100h-200zM150 100h-100v300h100v-300zM450 400v-300h-100v300h100zM350 100v-100h-200v100h200z" />
    <glyph glyph-name="uni1E52" unicode="&#x1e52;" horiz-adv-x="600" 
d="M450 1050h-100v100h100v-100zM350 950h-100v100h100v-100zM150 800v100h300v-100h-300zM150 650v100h300v-100h-300zM150 100h-100v550h100v-550zM550 650v-550h-100v550h100zM450 100v-100h-300v100h300z" />
    <glyph glyph-name="uni1E53" unicode="&#x1e53;" 
d="M400 800h-100v100h100v-100zM300 700h-100v100h100v-100zM100 550v100h300v-100h-300zM150 400v100h200v-100h-200zM150 100h-100v300h100v-300zM450 400v-300h-100v300h100zM350 100v-100h-200v100h200z" />
    <glyph glyph-name="uni1E62" unicode="&#x1e62;" horiz-adv-x="600" 
d="M150 650v100h350v-100h-350zM150 450h-100v200h100v-200zM450 450v-100h-300v100h300zM550 350v-250h-100v250h100zM450 100v-100h-350v100h350zM250 -50h100v-100h-100v100z" />
    <glyph glyph-name="uni1E63" unicode="&#x1e63;" horiz-adv-x="450" 
d="M125 400v100h250v-100h-250zM125 400v-100h-100v100h100zM325 300v-100h-200v100h200zM425 200v-100h-100v100h100zM325 100v-100h-250v100h250zM175 -50h100v-100h-100v100z" />
    <glyph glyph-name="uni1E6C" unicode="&#x1e6c;" horiz-adv-x="550" 
d="M525 750v-100h-200v-650h-100v650h-200v100h500zM225 -50h100v-100h-100v100z" />
    <glyph glyph-name="uni1E6D" unicode="&#x1e6d;" horiz-adv-x="350" 
d="M325 500v-100h-100v-400h-100v400h-100v100h100v100h100v-100h100zM125 -50h100v-100h-100v100z" />
    <glyph glyph-name="uni1E6E" unicode="&#x1e6e;" horiz-adv-x="550" 
d="M525 750v-100h-200v-650h-100v650h-200v100h500zM525 -50v-100h-500v100h500z" />
    <glyph glyph-name="uni1E6F" unicode="&#x1e6f;" horiz-adv-x="400" 
d="M350 500v-100h-100v-400h-100v400h-100v100h100v100h100v-100h100zM350 -50v-100h-300v100h300z" />
    <glyph glyph-name="uni1E70" unicode="&#x1e70;" horiz-adv-x="550" 
d="M525 750v-100h-200v-650h-100v650h-200v100h500zM325 -50v-100h-100v100h100zM125 -150h100v-100h-100v100zM325 -150h100v-100h-100v100z" />
    <glyph glyph-name="uni1E71" unicode="&#x1e71;" horiz-adv-x="350" 
d="M325 500v-100h-100v-400h-100v400h-100v100h100v100h100v-100h100zM225 -50v-100h-100v100h100zM25 -150h100v-100h-100v100zM225 -150h100v-100h-100v100z" />
    <glyph glyph-name="Wgrave" unicode="&#x1e80;" horiz-adv-x="700" 
d="M300 900h-100v100h100v-100zM300 800v100h100v-100h-100zM150 100h-100v650h100v-650zM650 750v-650h-100v650h100zM400 100h-100v150h100v-150zM300 100v-100h-150v100h150zM550 100v-100h-150v100h150z" />
    <glyph glyph-name="wgrave" unicode="&#x1e81;" horiz-adv-x="800" 
d="M350 650h-100v100h100v-100zM350 550v100h100v-100h-100zM150 100h-100v400h100v-400zM450 100h-100v400h100v-400zM750 500v-500h-300v100h200v400h100zM350 100v-100h-200v100h200z" />
    <glyph glyph-name="Wacute" unicode="&#x1e82;" horiz-adv-x="700" 
d="M500 900h-100v100h100v-100zM400 800h-100v100h100v-100zM150 100h-100v650h100v-650zM650 750v-650h-100v650h100zM400 100h-100v150h100v-150zM300 100v-100h-150v100h150zM550 100v-100h-150v100h150z" />
    <glyph glyph-name="wacute" unicode="&#x1e83;" horiz-adv-x="800" 
d="M550 650h-100v100h100v-100zM450 550h-100v100h100v-100zM150 100h-100v400h100v-400zM450 100h-100v400h100v-400zM750 500v-500h-300v100h200v400h100zM350 100v-100h-200v100h200z" />
    <glyph glyph-name="Wdieresis" unicode="&#x1e84;" horiz-adv-x="700" 
d="M300 800h-100v100h100v-100zM500 800h-100v100h100v-100zM150 100h-100v650h100v-650zM650 750v-650h-100v650h100zM400 100h-100v150h100v-150zM300 100v-100h-150v100h150zM550 100v-100h-150v100h150z" />
    <glyph glyph-name="wdieresis" unicode="&#x1e85;" horiz-adv-x="800" 
d="M350 550h-100v100h100v-100zM550 550h-100v100h100v-100zM150 100h-100v400h100v-400zM450 100h-100v400h100v-400zM750 500v-500h-300v100h200v400h100zM350 100v-100h-200v100h200z" />
    <glyph glyph-name="uni1E92" unicode="&#x1e92;" horiz-adv-x="600" 
d="M550 750v-200h-100v100h-400v100h500zM350 550h100v-100h-100v100zM250 450h100v-150h-100v150zM150 300h100v-100h-100v100zM50 200h100v-100h400v-100h-500v200zM250 -50h100v-100h-100v100z" />
    <glyph glyph-name="uni1E93" unicode="&#x1e93;" horiz-adv-x="450" 
d="M400 500v-200h-100v100h-250v100h350zM300 300v-100h-150v100h150zM50 200h100v-100h250v-100h-350v200zM175 -50h100v-100h-100v100z" />
    <glyph glyph-name="uni1EA0" unicode="&#x1ea0;" horiz-adv-x="600" 
d="M150 650v100h300v-100h-300zM550 650v-650h-100v250h-300v-250h-100v650h100v-300h300v300h100zM250 -50h100v-100h-100v100z" />
    <glyph glyph-name="uni1EA1" unicode="&#x1ea1;" horiz-adv-x="475" 
d="M325 500v-100h-250v100h250zM425 400v-400h-300v100h200v100h-200v100h200v100h100zM125 200v-100h-100v100h100zM175 -50h100v-100h-100v100z" />
    <glyph glyph-name="uni1EA2" unicode="&#x1ea2;" horiz-adv-x="600" 
d="M250 900h-100v100h200v-200h-100v100zM150 650v100h300v-100h-300zM550 650v-650h-100v250h-300v-250h-100v650h100v-300h300v300h100z" />
    <glyph glyph-name="uni1EA3" unicode="&#x1ea3;" horiz-adv-x="475" 
d="M175 650h-100v100h200v-200h-100v100zM325 500v-100h-250v100h250zM425 400v-400h-300v100h200v100h-200v100h200v100h100zM125 200v-100h-100v100h100z" />
    <glyph glyph-name="uni1EA4" unicode="&#x1ea4;" horiz-adv-x="600" 
d="M525 1050h-100v100h100v-100zM425 950h-100v100h100v-100zM275 900h-100v100h100v-100zM175 800h-100v100h100v-100zM275 800v100h100v-100h-100zM150 650v100h300v-100h-300zM550 650v-650h-100v250h-300v-250h-100v650h100v-300h300v300h100z" />
    <glyph glyph-name="uni1EA5" unicode="&#x1ea5;" 
d="M475 900v-100h-100v100h100zM275 800h100v-100h-100v100zM225 650h-100v100h100v-100zM125 550h-100v100h100v-100zM225 550v100h100v-100h-100zM325 500v-100h-250v100h250zM325 400h100v-400h-300v100h200v100h-200v100h200v100zM125 200v-100h-100v100h100z" />
    <glyph glyph-name="uni1EA6" unicode="&#x1ea6;" horiz-adv-x="600" 
d="M400 1050h-100v100h100v-100zM400 950v100h100v-100h-100zM300 900h-100v100h100v-100zM200 800h-100v100h100v-100zM300 800v100h100v-100h-100zM150 650v100h300v-100h-300zM550 650v-650h-100v250h-300v-250h-100v650h100v-300h300v300h100z" />
    <glyph glyph-name="uni1EA7" unicode="&#x1ea7;" horiz-adv-x="475" 
d="M325 900v-100h-100v100h100zM425 800v-100h-100v100h100zM225 650h-100v100h100v-100zM125 550h-100v100h100v-100zM225 550v100h100v-100h-100zM325 500v-100h-250v100h250zM325 400h100v-400h-300v100h200v100h-200v100h200v100zM125 200v-100h-100v100h100z" />
    <glyph glyph-name="uni1EA8" unicode="&#x1ea8;" horiz-adv-x="600" 
d="M400 1050h-100v100h200v-200h-100v100zM300 900h-100v100h100v-100zM200 800h-100v100h100v-100zM300 800v100h100v-100h-100zM150 650v100h300v-100h-300zM550 650v-650h-100v250h-300v-250h-100v650h100v-300h300v300h100z" />
    <glyph glyph-name="uni1EA9" unicode="&#x1ea9;" horiz-adv-x="475" 
d="M425 900v-200h-100v100h-100v100h200zM225 650h-100v100h100v-100zM125 550h-100v100h100v-100zM225 550v100h100v-100h-100zM325 500v-100h-250v100h250zM325 400h100v-400h-300v100h200v100h-200v100h200v100zM125 200v-100h-100v100h100z" />
    <glyph glyph-name="uni1EAA" unicode="&#x1eaa;" horiz-adv-x="600" 
d="M300 1000h-100v100h100v-100zM500 1000h-100v100h100v-100zM200 800h-100v200h100v-200zM300 1000h100v-200h-100v200zM150 650v100h300v-100h-300zM550 650v-650h-100v250h-300v-250h-100v650h100v-300h300v300h100z" />
    <glyph glyph-name="uni1EAB" unicode="&#x1eab;" horiz-adv-x="475" 
d="M225 850v-100h-100v100h100zM425 850v-100h-100v100h100zM25 750h100v-200h-100v200zM225 750h100v-200h-100v200zM325 500v-100h-250v100h250zM325 400h100v-400h-300v100h200v100h-200v100h200v100zM125 200v-100h-100v100h100z" />
    <glyph glyph-name="uni1EAC" unicode="&#x1eac;" horiz-adv-x="600" 
d="M350 900h-100v100h100v-100zM250 800h-100v100h100v-100zM350 800v100h100v-100h-100zM150 650v100h300v-100h-300zM550 650v-650h-100v250h-300v-250h-100v650h100v-300h300v300h100zM250 -50h100v-100h-100v100z" />
    <glyph glyph-name="uni1EAD" unicode="&#x1ead;" horiz-adv-x="475" 
d="M275 650h-100v100h100v-100zM175 550h-100v100h100v-100zM275 550v100h100v-100h-100zM325 500v-100h-250v100h250zM425 400v-400h-300v100h200v100h-200v100h200v100h100zM125 200v-100h-100v100h100zM175 -50h100v-100h-100v100z" />
    <glyph glyph-name="uni1EAE" unicode="&#x1eae;" horiz-adv-x="600" 
d="M450 1050h-100v100h100v-100zM350 950h-100v100h100v-100zM200 900h-100v100h100v-100zM500 900h-100v100h100v-100zM200 800v100h200v-100h-200zM150 650v100h300v-100h-300zM550 650v-650h-100v250h-300v-250h-100v650h100v-300h300v300h100z" />
    <glyph glyph-name="uni1EAF" unicode="&#x1eaf;" horiz-adv-x="475" 
d="M375 800h-100v100h100v-100zM275 700h-100v100h100v-100zM125 750v-100h-100v100h100zM425 750v-100h-100v100h100zM325 650v-100h-200v100h200zM325 500v-100h-250v100h250zM325 400h100v-400h-300v100h200v100h-200v100h200v100zM125 200v-100h-100v100h100z" />
    <glyph glyph-name="uni1EB0" unicode="&#x1eb0;" horiz-adv-x="600" 
d="M250 1050h-100v100h100v-100zM250 950v100h100v-100h-100zM200 900h-100v100h100v-100zM500 900h-100v100h100v-100zM200 800v100h200v-100h-200zM150 650v100h300v-100h-300zM550 650v-650h-100v250h-300v-250h-100v650h100v-300h300v300h100z" />
    <glyph glyph-name="uni1EB1" unicode="&#x1eb1;" horiz-adv-x="475" 
d="M175 800h-100v100h100v-100zM175 700v100h100v-100h-100zM125 750v-100h-100v100h100zM425 750v-100h-100v100h100zM325 650v-100h-200v100h200zM325 500v-100h-250v100h250zM325 400h100v-400h-300v100h200v100h-200v100h200v100zM125 200v-100h-100v100h100z" />
    <glyph glyph-name="uni1EB2" unicode="&#x1eb2;" horiz-adv-x="600" 
d="M250 1050h-100v100h200v-200h-100v100zM200 900h-100v100h100v-100zM500 900h-100v100h100v-100zM200 800v100h200v-100h-200zM150 650v100h300v-100h-300zM550 650v-650h-100v250h-300v-250h-100v650h100v-300h300v300h100z" />
    <glyph glyph-name="uni1EB3" unicode="&#x1eb3;" horiz-adv-x="475" 
d="M175 800h-100v100h200v-200h-100v100zM125 750v-100h-100v100h100zM425 750v-100h-100v100h100zM325 650v-100h-200v100h200zM325 500v-100h-250v100h250zM325 400h100v-400h-300v100h200v100h-200v100h200v100zM125 200v-100h-100v100h100z" />
    <glyph glyph-name="uni1EB4" unicode="&#x1eb4;" horiz-adv-x="600" 
d="M300 1050h-100v100h100v-100zM500 1050h-100v100h100v-100zM200 950h-100v100h100v-100zM300 950v100h100v-100h-100zM550 1000v-100h-100v100h100zM450 900v-100h-300v100h300zM150 650v100h300v-100h-300zM450 650h100v-650h-100v250h-300v-250h-100v650h100v-300h300
v300z" />
    <glyph glyph-name="uni1EB5" unicode="&#x1eb5;" 
d="M225 800h-100v100h100v-100zM425 800h-100v100h100v-100zM125 700h-100v100h100v-100zM225 700v100h100v-100h-100zM475 750v-100h-100v100h100zM375 650v-100h-300v100h300zM325 500v-100h-250v100h250zM325 400h100v-400h-300v100h200v100h-200v100h200v100zM125 200
v-100h-100v100h100z" />
    <glyph glyph-name="uni1EB6" unicode="&#x1eb6;" horiz-adv-x="600" 
d="M200 900h-100v100h100v-100zM500 900h-100v100h100v-100zM200 800v100h200v-100h-200zM150 650v100h300v-100h-300zM550 650v-650h-100v250h-300v-250h-100v650h100v-300h300v300h100zM250 -50h100v-100h-100v100z" />
    <glyph glyph-name="uni1EB7" unicode="&#x1eb7;" horiz-adv-x="475" 
d="M125 750v-100h-100v100h100zM425 750v-100h-100v100h100zM325 650v-100h-200v100h200zM325 500v-100h-250v100h250zM325 400h100v-400h-300v100h200v100h-200v100h200v100zM125 200v-100h-100v100h100zM175 -50h100v-100h-100v100z" />
    <glyph glyph-name="uni1EB8" unicode="&#x1eb8;" 
d="M450 750v-100h-300v-200h300v-100h-300v-250h300v-100h-400v750h400zM200 -50h100v-100h-100v100z" />
    <glyph glyph-name="uni1EB9" unicode="&#x1eb9;" 
d="M150 400v100h200v-100h-200zM450 400v-200h-300v-100h-100v300h100v-100h200v100h100zM150 0v100h250v-100h-250zM200 -50h100v-100h-100v100z" />
    <glyph glyph-name="uni1EBA" unicode="&#x1eba;" 
d="M200 900h-100v100h200v-200h-100v100zM450 750v-100h-300v-200h300v-100h-300v-250h300v-100h-400v750h400z" />
    <glyph glyph-name="uni1EBB" unicode="&#x1ebb;" 
d="M200 650h-100v100h200v-200h-100v100zM150 400v100h200v-100h-200zM450 400v-200h-300v-100h-100v300h100v-100h200v100h100zM150 0v100h250v-100h-250z" />
    <glyph glyph-name="uni1EBC" unicode="&#x1ebc;" 
d="M250 1000v-100h-100v100h100zM450 1000v-100h-100v100h100zM50 900h100v-100h-100v100zM250 900h100v-100h-100v100zM450 750v-100h-300v-200h300v-100h-300v-250h300v-100h-400v750h400z" />
    <glyph glyph-name="uni1EBD" unicode="&#x1ebd;" 
d="M250 750v-100h-100v100h100zM450 750v-100h-100v100h100zM50 650h100v-100h-100v100zM250 650h100v-100h-100v100zM150 400v100h200v-100h-200zM350 400h100v-200h-300v-100h-100v300h100v-100h200v100zM150 0v100h250v-100h-250z" />
    <glyph glyph-name="uni1EBE" unicode="&#x1ebe;" 
d="M475 1150v-100h-100v100h100zM275 1050h100v-100h-100v100zM225 900h-100v100h100v-100zM125 800h-100v100h100v-100zM225 800v100h100v-100h-100zM450 750v-100h-300v-200h300v-100h-300v-250h300v-100h-400v750h400z" />
    <glyph glyph-name="uni1EBF" unicode="&#x1ebf;" horiz-adv-x="575" 
d="M550 900v-100h-100v100h100zM350 800h100v-100h-100v100zM300 650h-100v100h100v-100zM200 550h-100v100h100v-100zM300 550v100h100v-100h-100zM150 400v100h200v-100h-200zM350 400h100v-200h-300v-100h-100v300h100v-100h200v100zM150 0v100h250v-100h-250z" />
    <glyph glyph-name="uni1EC0" unicode="&#x1ec0;" 
d="M350 1150v-100h-100v100h100zM450 1050v-100h-100v100h100zM250 900h-100v100h100v-100zM150 800h-100v100h100v-100zM250 800v100h100v-100h-100zM450 750v-100h-300v-200h300v-100h-300v-250h300v-100h-400v750h400z" />
    <glyph glyph-name="uni1EC1" unicode="&#x1ec1;" horiz-adv-x="525" 
d="M400 900v-100h-100v100h100zM500 800v-100h-100v100h100zM300 650h-100v100h100v-100zM200 550h-100v100h100v-100zM300 550v100h100v-100h-100zM150 400v100h200v-100h-200zM350 400h100v-200h-300v-100h-100v300h100v-100h200v100zM150 0v100h250v-100h-250z" />
    <glyph glyph-name="uni1EC2" unicode="&#x1ec2;" 
d="M450 1150v-200h-100v100h-100v100h200zM250 900h-100v100h100v-100zM150 800h-100v100h100v-100zM250 800v100h100v-100h-100zM450 750v-100h-300v-200h300v-100h-300v-250h300v-100h-400v750h400z" />
    <glyph glyph-name="uni1EC3" unicode="&#x1ec3;" horiz-adv-x="525" 
d="M500 900v-200h-100v100h-100v100h200zM300 650h-100v100h100v-100zM200 550h-100v100h100v-100zM300 550v100h100v-100h-100zM150 400v100h200v-100h-200zM350 400h100v-200h-300v-100h-100v300h100v-100h200v100zM150 0v100h250v-100h-250z" />
    <glyph glyph-name="uni1EC4" unicode="&#x1ec4;" 
d="M250 1100v-100h-100v100h100zM450 1100v-100h-100v100h100zM50 1000h100v-200h-100v200zM250 1000h100v-200h-100v200zM450 750v-100h-300v-200h300v-100h-300v-250h300v-100h-400v750h400z" />
    <glyph glyph-name="uni1EC5" unicode="&#x1ec5;" horiz-adv-x="525" 
d="M300 850v-100h-100v100h100zM500 850v-100h-100v100h100zM100 750h100v-200h-100v200zM300 750h100v-200h-100v200zM150 400v100h200v-100h-200zM350 400h100v-200h-300v-100h-100v300h100v-100h200v100zM150 0v100h250v-100h-250z" />
    <glyph glyph-name="uni1EC6" unicode="&#x1ec6;" 
d="M300 900h-100v100h100v-100zM200 800h-100v100h100v-100zM300 800v100h100v-100h-100zM450 750v-100h-300v-200h300v-100h-300v-250h300v-100h-400v750h400zM200 -50h100v-100h-100v100z" />
    <glyph glyph-name="uni1EC7" unicode="&#x1ec7;" 
d="M300 650h-100v100h100v-100zM200 550h-100v100h100v-100zM300 550v100h100v-100h-100zM150 400v100h200v-100h-200zM450 400v-200h-300v-100h-100v300h100v-100h200v100h100zM150 0v100h250v-100h-250zM200 -50h100v-100h-100v100z" />
    <glyph glyph-name="uni1EC8" unicode="&#x1ec8;" horiz-adv-x="275" 
d="M225 1000v-200h-100v100h-100v100h200zM125 750h100v-750h-100v750z" />
    <glyph glyph-name="uni1EC9" unicode="&#x1ec9;" horiz-adv-x="275" 
d="M225 750v-200h-100v100h-100v100h200zM125 500h100v-500h-100v500z" />
    <glyph glyph-name="uni1ECA" unicode="&#x1eca;" horiz-adv-x="200" 
d="M150 750v-750h-100v750h100zM50 -50h100v-100h-100v100z" />
    <glyph glyph-name="uni1ECB" unicode="&#x1ecb;" horiz-adv-x="200" 
d="M150 650v-100h-100v100h100zM50 500h100v-500h-100v500zM50 -50h100v-100h-100v100z" />
    <glyph glyph-name="uni1ECC" unicode="&#x1ecc;" horiz-adv-x="600" 
d="M150 650v100h300v-100h-300zM150 100h-100v550h100v-550zM550 650v-550h-100v550h100zM450 100v-100h-300v100h300zM250 -50h100v-100h-100v100z" />
    <glyph glyph-name="uni1ECD" unicode="&#x1ecd;" 
d="M150 400v100h200v-100h-200zM150 100h-100v300h100v-300zM450 400v-300h-100v300h100zM350 100v-100h-200v100h200zM200 -50h100v-100h-100v100z" />
    <glyph glyph-name="uni1ECE" unicode="&#x1ece;" horiz-adv-x="600" 
d="M250 900h-100v100h200v-200h-100v100zM150 650v100h300v-100h-300zM150 100h-100v550h100v-550zM550 650v-550h-100v550h100zM450 100v-100h-300v100h300z" />
    <glyph glyph-name="uni1ECF" unicode="&#x1ecf;" 
d="M200 650h-100v100h200v-200h-100v100zM150 400v100h200v-100h-200zM150 100h-100v300h100v-300zM450 400v-300h-100v300h100zM350 100v-100h-200v100h200z" />
    <glyph glyph-name="uni1ED0" unicode="&#x1ed0;" horiz-adv-x="600" 
d="M525 1050h-100v100h100v-100zM425 950h-100v100h100v-100zM275 900h-100v100h100v-100zM175 800h-100v100h100v-100zM275 800v100h100v-100h-100zM150 650v100h300v-100h-300zM150 100h-100v550h100v-550zM550 650v-550h-100v550h100zM450 100v-100h-300v100h300z" />
    <glyph glyph-name="uni1ED1" unicode="&#x1ed1;" horiz-adv-x="575" 
d="M550 900v-100h-100v100h100zM350 800h100v-100h-100v100zM300 650h-100v100h100v-100zM200 550h-100v100h100v-100zM300 550v100h100v-100h-100zM150 400v100h200v-100h-200zM150 100h-100v300h100v-300zM350 400h100v-300h-100v300zM350 100v-100h-200v100h200z" />
    <glyph glyph-name="uni1ED2" unicode="&#x1ed2;" horiz-adv-x="600" 
d="M400 1050h-100v100h100v-100zM400 950v100h100v-100h-100zM300 900h-100v100h100v-100zM200 800h-100v100h100v-100zM300 800v100h100v-100h-100zM150 650v100h300v-100h-300zM150 100h-100v550h100v-550zM550 650v-550h-100v550h100zM450 100v-100h-300v100h300z" />
    <glyph glyph-name="uni1ED3" unicode="&#x1ed3;" horiz-adv-x="525" 
d="M400 900v-100h-100v100h100zM500 800v-100h-100v100h100zM300 650h-100v100h100v-100zM200 550h-100v100h100v-100zM300 550v100h100v-100h-100zM150 400v100h200v-100h-200zM150 100h-100v300h100v-300zM350 400h100v-300h-100v300zM350 100v-100h-200v100h200z" />
    <glyph glyph-name="uni1ED4" unicode="&#x1ed4;" horiz-adv-x="600" 
d="M400 1050h-100v100h200v-200h-100v100zM300 900h-100v100h100v-100zM200 800h-100v100h100v-100zM300 800v100h100v-100h-100zM150 650v100h300v-100h-300zM150 100h-100v550h100v-550zM550 650v-550h-100v550h100zM450 100v-100h-300v100h300z" />
    <glyph glyph-name="uni1ED5" unicode="&#x1ed5;" horiz-adv-x="525" 
d="M500 900v-200h-100v100h-100v100h200zM300 650h-100v100h100v-100zM200 550h-100v100h100v-100zM300 550v100h100v-100h-100zM150 400v100h200v-100h-200zM150 100h-100v300h100v-300zM350 400h100v-300h-100v300zM350 100v-100h-200v100h200z" />
    <glyph glyph-name="uni1ED6" unicode="&#x1ed6;" horiz-adv-x="600" 
d="M300 1000h-100v100h100v-100zM500 1000h-100v100h100v-100zM200 800h-100v200h100v-200zM300 1000h100v-200h-100v200zM150 650v100h300v-100h-300zM150 100h-100v550h100v-550zM550 650v-550h-100v550h100zM450 100v-100h-300v100h300z" />
    <glyph glyph-name="uni1ED7" unicode="&#x1ed7;" horiz-adv-x="525" 
d="M300 850v-100h-100v100h100zM500 850v-100h-100v100h100zM100 750h100v-200h-100v200zM300 750h100v-200h-100v200zM150 400v100h200v-100h-200zM150 100h-100v300h100v-300zM350 400h100v-300h-100v300zM350 100v-100h-200v100h200z" />
    <glyph glyph-name="uni1ED8" unicode="&#x1ed8;" horiz-adv-x="600" 
d="M350 900h-100v100h100v-100zM250 800h-100v100h100v-100zM350 800v100h100v-100h-100zM150 650v100h300v-100h-300zM150 100h-100v550h100v-550zM550 650v-550h-100v550h100zM450 100v-100h-300v100h300zM250 -50h100v-100h-100v100z" />
    <glyph glyph-name="uni1ED9" unicode="&#x1ed9;" 
d="M300 650h-100v100h100v-100zM200 550h-100v100h100v-100zM300 550v100h100v-100h-100zM150 400v100h200v-100h-200zM150 100h-100v300h100v-300zM450 400v-300h-100v300h100zM350 100v-100h-200v100h200zM200 -50h100v-100h-100v100z" />
    <glyph glyph-name="uni1EDA" unicode="&#x1eda;" horiz-adv-x="725" 
d="M450 900h-100v100h100v-100zM350 800h-100v100h100v-100zM150 650v100h300v-100h-300zM700 750v-100h-150v100h150zM150 100h-100v550h100v-550zM450 650h100v-550h-100v550zM450 100v-100h-300v100h300z" />
    <glyph glyph-name="uni1EDB" unicode="&#x1edb;" 
d="M400 650h-100v100h100v-100zM300 550h-100v100h100v-100zM450 600v-100h-100v100h100zM350 500v-100h-200v100h200zM150 100h-100v300h100v-300zM350 400h100v-300h-100v300zM350 100v-100h-200v100h200z" />
    <glyph glyph-name="uni1EDC" unicode="&#x1edc;" horiz-adv-x="725" 
d="M250 900h-100v100h100v-100zM250 800v100h100v-100h-100zM150 650v100h300v-100h-300zM700 750v-100h-150v100h150zM150 100h-100v550h100v-550zM450 650h100v-550h-100v550zM450 100v-100h-300v100h300z" />
    <glyph glyph-name="uni1EDD" unicode="&#x1edd;" 
d="M200 650h-100v100h100v-100zM200 550v100h100v-100h-100zM450 600v-100h-100v100h100zM350 500v-100h-200v100h200zM150 100h-100v300h100v-300zM350 400h100v-300h-100v300zM350 100v-100h-200v100h200z" />
    <glyph glyph-name="uni1EDE" unicode="&#x1ede;" horiz-adv-x="725" 
d="M250 900h-100v100h200v-200h-100v100zM150 650v100h300v-100h-300zM700 750v-100h-150v100h150zM150 100h-100v550h100v-550zM450 650h100v-550h-100v550zM450 100v-100h-300v100h300z" />
    <glyph glyph-name="uni1EDF" unicode="&#x1edf;" 
d="M200 650h-100v100h200v-200h-100v100zM450 600v-100h-100v100h100zM350 500v-100h-200v100h200zM150 100h-100v300h100v-300zM350 400h100v-300h-100v300zM350 100v-100h-200v100h200z" />
    <glyph glyph-name="uni1EE0" unicode="&#x1ee0;" horiz-adv-x="725" 
d="M350 900h-100v100h100v-100zM550 900h-100v100h100v-100zM250 800h-100v100h100v-100zM350 800v100h100v-100h-100zM150 650v100h300v-100h-300zM700 750v-100h-150v100h150zM150 100h-100v550h100v-550zM450 650h100v-550h-100v550zM450 100v-100h-300v100h300z" />
    <glyph glyph-name="uni1EE1" unicode="&#x1ee1;" horiz-adv-x="525" 
d="M225 650h-100v100h100v-100zM425 650h-100v100h100v-100zM125 550h-100v100h100v-100zM225 550v100h100v-100h-100zM475 600v-100h-100v100h100zM375 500v-100h-200v100h200zM175 100h-100v300h100v-300zM375 400h100v-300h-100v300zM375 100v-100h-200v100h200z" />
    <glyph glyph-name="uni1EE2" unicode="&#x1ee2;" horiz-adv-x="725" 
d="M150 650v100h300v-100h-300zM700 750v-100h-150v100h150zM150 100h-100v550h100v-550zM450 650h100v-550h-100v550zM450 100v-100h-300v100h300zM250 -50h100v-100h-100v100z" />
    <glyph glyph-name="uni1EE3" unicode="&#x1ee3;" 
d="M450 650v-150h-100v150h100zM350 500v-100h-200v100h200zM150 100h-100v300h100v-300zM350 400h100v-300h-100v300zM350 100v-100h-200v100h200zM200 -50h100v-100h-100v100z" />
    <glyph glyph-name="uni1EE4" unicode="&#x1ee4;" horiz-adv-x="600" 
d="M150 100h-100v650h100v-650zM550 750v-650h-100v650h100zM450 100v-100h-300v100h300zM250 -50h100v-100h-100v100z" />
    <glyph glyph-name="uni1EE5" unicode="&#x1ee5;" 
d="M150 100h-100v400h100v-400zM450 500v-500h-300v100h200v400h100zM200 -50h100v-100h-100v100z" />
    <glyph glyph-name="uni1EE6" unicode="&#x1ee6;" horiz-adv-x="600" 
d="M250 900h-100v100h200v-200h-100v100zM150 100h-100v650h100v-650zM550 750v-650h-100v650h100zM450 100v-100h-300v100h300z" />
    <glyph glyph-name="uni1EE7" unicode="&#x1ee7;" 
d="M200 650h-100v100h200v-200h-100v100zM150 100h-100v400h100v-400zM450 500v-500h-300v100h200v400h100z" />
    <glyph glyph-name="uni1EE8" unicode="&#x1ee8;" horiz-adv-x="725" 
d="M475 900h-100v100h100v-100zM375 800h-100v100h100v-100zM150 100h-100v650h100v-650zM700 750v-100h-150v100h150zM450 650h100v-550h-100v550zM450 100v-100h-300v100h300z" />
    <glyph glyph-name="uni1EE9" unicode="&#x1ee9;" horiz-adv-x="575" 
d="M350 650h-100v100h100v-100zM250 550h-100v100h100v-100zM550 650v-150h-100v150h100zM150 100h-100v400h100v-400zM350 500h100v-500h-300v100h200v400z" />
    <glyph glyph-name="uni1EEA" unicode="&#x1eea;" horiz-adv-x="725" 
d="M275 900h-100v100h100v-100zM275 800v100h100v-100h-100zM150 100h-100v650h100v-650zM700 750v-100h-150v100h150zM450 650h100v-550h-100v550zM450 100v-100h-300v100h300z" />
    <glyph glyph-name="uni1EEB" unicode="&#x1eeb;" horiz-adv-x="575" 
d="M200 650h-100v100h100v-100zM200 550v100h100v-100h-100zM550 650v-150h-100v150h100zM150 100h-100v400h100v-400zM350 500h100v-500h-300v100h200v400z" />
    <glyph glyph-name="uni1EEC" unicode="&#x1eec;" horiz-adv-x="725" 
d="M275 900h-100v100h200v-200h-100v100zM150 100h-100v650h100v-650zM700 750v-100h-150v100h150zM450 650h100v-550h-100v550zM450 100v-100h-300v100h300z" />
    <glyph glyph-name="uni1EED" unicode="&#x1eed;" horiz-adv-x="575" 
d="M200 650h-100v100h200v-200h-100v100zM550 650v-150h-100v150h100zM150 100h-100v400h100v-400zM350 500h100v-500h-300v100h200v400z" />
    <glyph glyph-name="uni1EEE" unicode="&#x1eee;" horiz-adv-x="725" 
d="M350 900h-100v100h100v-100zM550 900h-100v100h100v-100zM250 800h-100v100h100v-100zM350 800v100h100v-100h-100zM150 100h-100v650h100v-650zM700 750v-100h-150v100h150zM450 650h100v-550h-100v550zM450 100v-100h-300v100h300z" />
    <glyph glyph-name="uni1EEF" unicode="&#x1eef;" horiz-adv-x="575" 
d="M250 650h-100v100h100v-100zM450 650h-100v100h100v-100zM150 550h-100v100h100v-100zM250 550v100h100v-100h-100zM550 600v-100h-100v100h100zM150 100h-100v400h100v-400zM350 500h100v-500h-300v100h200v400z" />
    <glyph glyph-name="uni1EF0" unicode="&#x1ef0;" horiz-adv-x="725" 
d="M150 100h-100v650h100v-650zM700 750v-100h-150v100h150zM450 650h100v-550h-100v550zM450 100v-100h-300v100h300zM250 -50h100v-100h-100v100z" />
    <glyph glyph-name="uni1EF1" unicode="&#x1ef1;" horiz-adv-x="575" 
d="M550 650v-150h-100v150h100zM150 100h-100v400h100v-400zM350 500h100v-500h-300v100h200v400zM200 -50h100v-100h-100v100z" />
    <glyph glyph-name="Ygrave" unicode="&#x1ef2;" horiz-adv-x="550" 
d="M225 900h-100v100h100v-100zM225 800v100h100v-100h-100zM150 450h-100v300h100v-300zM500 750v-750h-100v350h-250v100h250v300h100z" />
    <glyph glyph-name="ygrave" unicode="&#x1ef3;" 
d="M200 650h-100v100h100v-100zM200 550v100h100v-100h-100zM150 200h-100v300h100v-300zM450 500v-600h-100v200h-200v100h200v300h100zM350 -100v-100h-250v100h250z" />
    <glyph glyph-name="uni1EF4" unicode="&#x1ef4;" horiz-adv-x="550" 
d="M150 450h-100v300h100v-300zM500 750v-750h-100v350h-250v100h250v300h100zM225 -50h100v-100h-100v100z" />
    <glyph glyph-name="uni1EF5" unicode="&#x1ef5;" horiz-adv-x="625" 
d="M150 200h-100v300h100v-300zM350 500h100v-600h-100v200h-200v100h200v300zM350 -100v-100h-250v100h250zM600 -100v-100h-100v100h100z" />
    <glyph glyph-name="uni1EF6" unicode="&#x1ef6;" horiz-adv-x="550" 
d="M225 900h-100v100h200v-200h-100v100zM150 450h-100v300h100v-300zM500 750v-750h-100v350h-250v100h250v300h100z" />
    <glyph glyph-name="uni1EF7" unicode="&#x1ef7;" 
d="M200 650h-100v100h200v-200h-100v100zM150 200h-100v300h100v-300zM450 500v-600h-100v200h-200v100h200v300h100zM350 -100v-100h-250v100h250z" />
    <glyph glyph-name="uni1EF8" unicode="&#x1ef8;" horiz-adv-x="550" 
d="M275 900h-100v100h100v-100zM475 900h-100v100h100v-100zM175 800h-100v100h100v-100zM275 800v100h100v-100h-100zM150 450h-100v300h100v-300zM500 750v-750h-100v350h-250v100h250v300h100z" />
    <glyph glyph-name="uni1EF9" unicode="&#x1ef9;" 
d="M250 750v-100h-100v100h100zM450 750v-100h-100v100h100zM50 650h100v-100h-100v100zM250 650h100v-100h-100v100zM150 200h-100v300h100v-300zM350 500h100v-600h-100v200h-200v100h200v300zM350 -100v-100h-250v100h250z" />
    <glyph glyph-name="endash" unicode="&#x2013;" horiz-adv-x="600" 
d="M550 350v-100h-500v100h500z" />
    <glyph glyph-name="emdash" unicode="&#x2014;" horiz-adv-x="800" 
d="M750 350v-100h-700v100h700z" />
    <glyph glyph-name="quoteleft" unicode="&#x2018;" horiz-adv-x="150" 
d="M125 700v-200h-100v200h100z" />
    <glyph glyph-name="quoteright" unicode="&#x2019;" horiz-adv-x="150" 
d="M125 700v-200h-100v200h100z" />
    <glyph glyph-name="quotesinglbase" unicode="&#x201a;" horiz-adv-x="150" 
d="M125 100v-200h-100v200h100z" />
    <glyph glyph-name="quotedblleft" unicode="&#x201c;" horiz-adv-x="400" 
d="M25 700h100v-200h-100v200zM375 700v-200h-100v200h100z" />
    <glyph glyph-name="quotedblright" unicode="&#x201d;" horiz-adv-x="400" 
d="M25 700h100v-200h-100v200zM375 700v-200h-100v200h100z" />
    <glyph glyph-name="quotedblbase" unicode="&#x201e;" horiz-adv-x="400" 
d="M25 100h100v-200h-100v200zM375 100v-200h-100v200h100z" />
    <glyph glyph-name="dagger" unicode="&#x2020;" horiz-adv-x="450" 
d="M425 600v-100h-150v-350h-100v350h-150v100h150v150h100v-150h150z" />
    <glyph glyph-name="daggerdbl" unicode="&#x2021;" horiz-adv-x="450" 
d="M425 600v-100h-150v-100h150v-100h-150v-150h-100v150h-150v100h150v100h-150v100h150v150h100v-150h150z" />
    <glyph glyph-name="bullet" unicode="&#x2022;" horiz-adv-x="250" 
d="M200 400v-150h-150v150h150z" />
    <glyph glyph-name="ellipsis" unicode="&#x2026;" horiz-adv-x="650" 
d="M75 100h100v-100h-100v100zM275 100h100v-100h-100v100zM575 100v-100h-100v100h100z" />
    <glyph glyph-name="perthousand" unicode="&#x2030;" horiz-adv-x="1150" 
d="M250 650h-100v100h100v-100zM650 600h-100v150h100v-150zM150 500h-100v150h100v-150zM250 650h100v-150h-100v150zM550 450h-100v150h100v-150zM150 500h100v-100h-100v100zM450 300h-100v150h100v-150zM650 250h-100v100h100v-100zM1000 250h-100v100h100v-100z
M250 300h100v-150h-100v150zM550 100h-100v150h100v-150zM650 250h100v-150h-100v150zM900 100h-100v150h100v-150zM1100 250v-150h-100v150h100zM150 150h100v-150h-100v150zM550 100h100v-100h-100v100zM900 100h100v-100h-100v100z" />
    <glyph glyph-name="guilsinglleft" unicode="&#x2039;" horiz-adv-x="400" 
d="M350 500v-100h-100v100h100zM150 400h100v-100h-100v100zM50 300h100v-100h-100v100zM150 100v100h100v-100h-100zM250 0v100h100v-100h-100z" />
    <glyph glyph-name="guilsinglright" unicode="&#x203a;" horiz-adv-x="400" 
d="M150 500v-100h-100v100h100zM250 400v-100h-100v100h100zM350 300v-100h-100v100h100zM150 200h100v-100h-100v100zM50 100h100v-100h-100v100z" />
    <glyph glyph-name="fraction" unicode="&#x2044;" horiz-adv-x="600" 
d="M550 750v-150h-100v150h100zM350 600h100v-150h-100v150zM250 450h100v-150h-100v150zM150 300h100v-150h-100v150zM50 150h100v-150h-100v150z" />
    <glyph glyph-name="uni2070" unicode="&#x2070;" horiz-adv-x="400" 
d="M350 900v-500h-300v500h300zM250 800h-100v-300h100v300z" />
    <glyph glyph-name="uni2074" unicode="&#x2074;" horiz-adv-x="350" 
d="M300 700v-300h-100v200h-150v300h100v-200h150z" />
    <glyph glyph-name="uni2075" unicode="&#x2075;" horiz-adv-x="350" 
d="M300 900v-100h-150v-100h150v-300h-250v100h150v100h-150v300h250z" />
    <glyph glyph-name="uni2076" unicode="&#x2076;" horiz-adv-x="400" 
d="M350 700v-300h-300v500h250v-100h-150v-100h200zM250 600h-100v-100h100v100z" />
    <glyph glyph-name="uni2077" unicode="&#x2077;" horiz-adv-x="350" 
d="M300 900v-500h-100v400h-150v100h250z" />
    <glyph glyph-name="uni2078" unicode="&#x2078;" horiz-adv-x="400" 
d="M350 900v-500h-300v500h300zM250 800h-100v-100h100v100zM250 600h-100v-100h100v100z" />
    <glyph glyph-name="uni2079" unicode="&#x2079;" horiz-adv-x="400" 
d="M350 900v-500h-250v100h150v100h-200v300h300zM250 800h-100v-100h100v100z" />
    <glyph glyph-name="Euro" unicode="&#x20ac;" horiz-adv-x="600" 
d="M550 750v-100h-300v100h300zM150 650h100v-125h200v-100h-200v-100h200v-100h-200v-125h-100v125h-100v100h100v100h-100v100h100v125zM250 0v100h300v-100h-300z" />
    <glyph glyph-name="trademark" unicode="&#x2122;" horiz-adv-x="925" 
d="M325 750v-100h-100v-400h-100v400h-100v100h300zM575 650v-100h-100v-300h-100v500h100v-100h100zM875 750v-500h-100v300h-100v100h100v100h100zM575 550h100v-150h-100v150z" />
    <glyph glyph-name="uni2150" unicode="&#x2150;" horiz-adv-x="1050" 
d="M250 250h-100v300h-100v100h100v100h100v-500zM750 600h-100v150h100v-150zM550 600h100v-150h-100v150zM1000 500v-500h-100v400h-150v100h250zM450 450h100v-150h-100v150zM350 300h100v-150h-100v150zM250 150h100v-150h-100v150z" />
    <glyph glyph-name="uni2151" unicode="&#x2151;" horiz-adv-x="1100" 
d="M250 250h-100v300h-100v100h100v100h100v-500zM750 600h-100v150h100v-150zM550 600h100v-150h-100v150zM1050 500v-500h-250v100h150v100h-200v300h300zM450 450h100v-150h-100v150zM950 400h-100v-100h100v100zM350 300h100v-150h-100v150zM250 150h100v-150h-100v150z
" />
    <glyph glyph-name="uni2152" unicode="&#x2152;" horiz-adv-x="1350" 
d="M250 250h-100v300h-100v100h100v100h100v-500zM750 600h-100v150h100v-150zM550 600h100v-150h-100v150zM850 500h100v-500h-100v300h-100v100h100v100zM1300 500v-500h-300v500h300zM450 450h100v-150h-100v150zM1200 400h-100v-300h100v300zM350 300h100v-150h-100v150
zM250 150h100v-150h-100v150z" />
    <glyph glyph-name="uni2153" unicode="&#x2153;" horiz-adv-x="1050" 
d="M250 250h-100v300h-100v100h100v100h100v-500zM750 600h-100v150h100v-150zM550 600h100v-150h-100v150zM1000 500v-500h-250v100h150v100h-100v100h100v100h-150v100h250zM450 450h100v-150h-100v150zM350 300h100v-150h-100v150zM250 150h100v-150h-100v150z" />
    <glyph glyph-name="uni2154" unicode="&#x2154;" horiz-adv-x="1100" 
d="M300 250h-250v300h150v100h-150v100h250v-300h-150v-100h150v-100zM800 600h-100v150h100v-150zM600 600h100v-150h-100v150zM1050 500v-500h-250v100h150v100h-100v100h100v100h-150v100h250zM500 450h100v-150h-100v150zM400 300h100v-150h-100v150zM300 150h100v-150
h-100v150z" />
    <glyph glyph-name="uni2155" unicode="&#x2155;" horiz-adv-x="1050" 
d="M250 250h-100v300h-100v100h100v100h100v-500zM750 600h-100v150h100v-150zM550 600h100v-150h-100v150zM1000 500v-100h-150v-100h150v-300h-250v100h150v100h-150v300h250zM450 450h100v-150h-100v150zM350 300h100v-150h-100v150zM250 150h100v-150h-100v150z" />
    <glyph glyph-name="uni2156" unicode="&#x2156;" horiz-adv-x="1100" 
d="M300 250h-250v300h150v100h-150v100h250v-300h-150v-100h150v-100zM800 600h-100v150h100v-150zM600 600h100v-150h-100v150zM1050 500v-100h-150v-100h150v-300h-250v100h150v100h-150v300h250zM500 450h100v-150h-100v150zM400 300h100v-150h-100v150zM300 150h100
v-150h-100v150z" />
    <glyph glyph-name="uni2157" unicode="&#x2157;" horiz-adv-x="1100" 
d="M300 250h-250v100h150v100h-100v100h100v100h-150v100h250v-500zM800 600h-100v150h100v-150zM600 600h100v-150h-100v150zM1050 500v-100h-150v-100h150v-300h-250v100h150v100h-150v300h250zM500 450h100v-150h-100v150zM400 300h100v-150h-100v150zM300 150h100v-150
h-100v150z" />
    <glyph glyph-name="uni2158" unicode="&#x2158;" horiz-adv-x="1100" 
d="M300 250h-100v200h-150v300h100v-200h150v-300zM800 600h-100v150h100v-150zM600 600h100v-150h-100v150zM1050 500v-100h-150v-100h150v-300h-250v100h150v100h-150v300h250zM500 450h100v-150h-100v150zM400 300h100v-150h-100v150zM300 150h100v-150h-100v150z" />
    <glyph glyph-name="uni2159" unicode="&#x2159;" horiz-adv-x="1100" 
d="M250 250h-100v300h-100v100h100v100h100v-500zM750 600h-100v150h100v-150zM550 600h100v-150h-100v150zM1050 300v-300h-300v500h250v-100h-150v-100h200zM450 450h100v-150h-100v150zM350 300h100v-150h-100v150zM950 200h-100v-100h100v100zM250 150h100v-150h-100
v150z" />
    <glyph glyph-name="uni215A" unicode="&#x215a;" horiz-adv-x="1150" 
d="M300 250h-250v100h150v100h-150v300h250v-100h-150v-100h150v-300zM800 600h-100v150h100v-150zM600 600h100v-150h-100v150zM1100 300v-300h-300v500h250v-100h-150v-100h200zM500 450h100v-150h-100v150zM400 300h100v-150h-100v150zM1000 200h-100v-100h100v100z
M300 150h100v-150h-100v150z" />
    <glyph glyph-name="oneeighth" unicode="&#x215b;" horiz-adv-x="1100" 
d="M250 250h-100v300h-100v100h100v100h100v-500zM750 600h-100v150h100v-150zM550 600h100v-150h-100v150zM1050 500v-500h-300v500h300zM450 450h100v-150h-100v150zM950 400h-100v-100h100v100zM350 300h100v-150h-100v150zM950 200h-100v-100h100v100zM250 150h100v-150
h-100v150z" />
    <glyph glyph-name="threeeighths" unicode="&#x215c;" horiz-adv-x="1150" 
d="M300 250h-250v100h150v100h-100v100h100v100h-150v100h250v-500zM800 600h-100v150h100v-150zM600 600h100v-150h-100v150zM1100 500v-500h-300v500h300zM500 450h100v-150h-100v150zM1000 400h-100v-100h100v100zM400 300h100v-150h-100v150zM1000 200h-100v-100h100
v100zM300 150h100v-150h-100v150z" />
    <glyph glyph-name="fiveeighths" unicode="&#x215d;" horiz-adv-x="1150" 
d="M300 250h-250v100h150v100h-150v300h250v-100h-150v-100h150v-300zM800 600h-100v150h100v-150zM600 600h100v-150h-100v150zM1100 500v-500h-300v500h300zM500 450h100v-150h-100v150zM1000 400h-100v-100h100v100zM400 300h100v-150h-100v150zM1000 200h-100v-100h100
v100zM300 150h100v-150h-100v150z" />
    <glyph glyph-name="seveneighths" unicode="&#x215e;" horiz-adv-x="1150" 
d="M300 250h-100v400h-150v100h250v-500zM800 600h-100v150h100v-150zM600 600h100v-150h-100v150zM1100 500v-500h-300v500h300zM500 450h100v-150h-100v150zM1000 400h-100v-100h100v100zM400 300h100v-150h-100v150zM1000 200h-100v-100h100v100zM300 150h100v-150h-100
v150z" />
    <glyph glyph-name="uni215F" unicode="&#x215f;" horiz-adv-x="800" 
d="M250 250h-100v300h-100v100h100v100h100v-500zM750 750v-150h-100v150h100zM550 600h100v-150h-100v150zM450 450h100v-150h-100v150zM350 300h100v-150h-100v150zM250 150h100v-150h-100v150z" />
    <glyph glyph-name="uni2189" unicode="&#x2189;" horiz-adv-x="1150" 
d="M350 250h-300v500h300v-500zM850 600h-100v150h100v-150zM150 350h100v300h-100v-300zM650 600h100v-150h-100v150zM1100 500v-500h-250v100h150v100h-100v100h100v100h-150v100h250zM550 450h100v-150h-100v150zM450 300h100v-150h-100v150zM350 150h100v-150h-100v150z
" />
    <glyph glyph-name="arrowleft" unicode="&#x2190;" horiz-adv-x="850" 
d="M350 525h-100v100h100v-100zM250 425h-100v100h100v-100zM150 425v-100h-100v100h100zM800 425v-100h-500v100h500zM250 325v-100h-100v100h100zM250 225h100v-100h-100v100z" />
    <glyph glyph-name="arrowup" unicode="&#x2191;" horiz-adv-x="600" 
d="M350 750v-100h-100v100h100zM150 650h100v-100h-100v100zM450 650v-100h-100v100h100zM50 550h100v-100h-100v100zM550 550v-100h-100v100h100zM250 500h100v-500h-100v500z" />
    <glyph glyph-name="arrowright" unicode="&#x2192;" horiz-adv-x="850" 
d="M600 625v-100h-100v100h100zM700 525v-100h-100v100h100zM550 325h-500v100h500v-100zM800 425v-100h-100v100h100zM600 325h100v-100h-100v100zM500 225h100v-100h-100v100z" />
    <glyph glyph-name="arrowdown" unicode="&#x2193;" horiz-adv-x="600" 
d="M350 250h-100v500h100v-500zM150 300v-100h-100v100h100zM550 300v-100h-100v100h100zM250 200v-100h-100v100h100zM350 200h100v-100h-100v100zM250 100h100v-100h-100v100z" />
    <glyph glyph-name="arrowboth" unicode="&#x2194;" horiz-adv-x="850" 
d="M350 450h-100v100h100v-100zM600 550v-100h-100v100h100zM250 350h-100v100h100v-100zM700 450v-100h-100v100h100zM150 350v-100h-100v100h100zM550 250h-250v100h250v-100zM800 350v-100h-100v100h100zM250 250v-100h-100v100h100zM600 250h100v-100h-100v100zM250 150
h100v-100h-100v100zM500 150h100v-100h-100v100z" />
    <glyph glyph-name="arrowupdn" unicode="&#x2195;" horiz-adv-x="600" 
d="M350 750v-100h-100v100h100zM150 650h100v-100h-100v100zM450 650v-100h-100v100h100zM50 550h100v-100h-100v100zM550 550v-100h-100v100h100zM350 250h-100v250h100v-250zM150 300v-100h-100v100h100zM450 300h100v-100h-100v100zM250 200v-100h-100v100h100zM350 200
h100v-100h-100v100zM250 100h100v-100h-100v100z" />
    <glyph glyph-name="uni2196" unicode="&#x2196;" horiz-adv-x="700" 
d="M150 550v-250h-100v350h350v-100h-250zM350 450v-100h-100v100h100zM450 350v-100h-100v100h100zM550 250v-100h-100v100h100zM650 150v-100h-100v100h100z" />
    <glyph glyph-name="uni2197" unicode="&#x2197;" horiz-adv-x="700" 
d="M650 650v-350h-100v250h-250v100h350zM350 450h100v-100h-100v100zM250 350h100v-100h-100v100zM150 250h100v-100h-100v100zM50 150h100v-100h-100v100z" />
    <glyph glyph-name="uni2198" unicode="&#x2198;" horiz-adv-x="700" 
d="M150 650v-100h-100v100h100zM250 550v-100h-100v100h100zM250 350v100h100v-100h-100zM650 400v-350h-350v100h250v250h100zM350 250v100h100v-100h-100z" />
    <glyph glyph-name="uni2199" unicode="&#x2199;" horiz-adv-x="700" 
d="M650 650v-100h-100v100h100zM450 550h100v-100h-100v100zM350 450h100v-100h-100v100zM400 150v-100h-350v350h100v-250h250zM250 350h100v-100h-100v100z" />
    <glyph glyph-name="partialdiff" unicode="&#x2202;" 
d="M350 750v-100h-250v100h250zM450 650v-550h-100v250h-200v100h200v200h100zM150 100h-100v250h100v-250zM350 100v-100h-200v100h200z" />
    <glyph glyph-name="emptyset" unicode="&#x2205;" 
d="M150 650v100h200v-100h-200zM150 100h-100v550h100v-550zM450 650v-550h-100v550h100zM200 450h100v-150h-100v150zM350 100v-100h-200v100h200z" />
    <glyph glyph-name="product" unicode="&#x220f;" horiz-adv-x="650" 
d="M625 750v-100h-100v-750h-100v750h-200v-750h-100v750h-100v100h600z" />
    <glyph glyph-name="summation" unicode="&#x2211;" horiz-adv-x="525" 
d="M500 750v-100h-350v-100h-100v200h450zM150 550h100v-150h-100v150zM250 400h100v-150h-100v150zM150 250h100v-150h-100v150zM50 100h100v-100h350v-100h-450v200z" />
    <glyph glyph-name="minus" unicode="&#x2212;" 
d="M450 400v-100h-400v100h400z" />
    <glyph glyph-name="radical" unicode="&#x221a;" horiz-adv-x="800" 
d="M775 750v-100h-250v-300h-100v400h350zM125 350v-100h-100v100h100zM325 350h100v-300h-100v300zM225 50h-100v200h100v-200zM225 50h100v-150h-100v150z" />
    <glyph glyph-name="infinity" unicode="&#x221e;" horiz-adv-x="900" 
d="M150 400v100h250v-100h-250zM500 400v100h250v-100h-250zM150 200h-100v200h100v-200zM500 200h-100v200h100v-200zM850 400v-200h-100v200h100zM400 200v-100h-250v100h250zM750 200v-100h-250v100h250z" />
    <glyph glyph-name="integral" unicode="&#x222b;" horiz-adv-x="450" 
d="M425 750v-100h-150v100h150zM175 650h100v-650h-100v650zM175 0v-100h-150v100h150z" />
    <glyph glyph-name="approxequal" unicode="&#x2248;" horiz-adv-x="550" 
d="M525 650v-100h-100v100h100zM425 550v-100h-300v100h300zM25 450h100v-100h-100v100zM425 400h100v-100h-100v100zM425 300v-100h-300v100h300zM25 200h100v-100h-100v100z" />
    <glyph glyph-name="notequal" unicode="&#x2260;" horiz-adv-x="600" 
d="M550 500v-100h-200v-100h200v-100h-300v-100h-100v100h-100v100h200v100h-200v100h300v100h100v-100h100z" />
    <glyph glyph-name="lessequal" unicode="&#x2264;" horiz-adv-x="600" 
d="M550 600v-100h-350v100h350zM200 500v-100h-150v100h150zM200 300v100h350v-100h-350zM550 200v-100h-500v100h500z" />
    <glyph glyph-name="greaterequal" unicode="&#x2265;" horiz-adv-x="600" 
d="M400 600v-100h-350v100h350zM550 500v-100h-150v100h150zM400 400v-100h-350v100h350zM550 200v-100h-500v100h500z" />
    <glyph glyph-name="lozenge" unicode="&#x25ca;" horiz-adv-x="600" 
d="M350 600h-100v150h100v-150zM250 450h-100v150h100v-150zM350 600h100v-150h-100v150zM150 300h-100v150h100v-150zM550 450v-150h-100v150h100zM250 150h-100v150h100v-150zM350 300h100v-150h-100v150zM250 150h100v-150h-100v150z" />
    <glyph glyph-name="uni2C64" unicode="&#x2c64;" horiz-adv-x="600" 
d="M450 450v-100h-300v-450h-100v850h400v-100h-300v-200h300zM550 650v-200h-100v200h100zM450 350h100v-350h-100v350zM150 -200v100h150v-100h-150z" />
    <glyph glyph-name="uni2C6D" unicode="&#x2c6d;" horiz-adv-x="600" 
d="M550 750v-750h-400v100h300v550h-300v100h400zM150 100h-100v550h100v-550z" />
    <glyph glyph-name="uni2C72" unicode="&#x2c72;" horiz-adv-x="825" 
d="M150 100h-100v650h100v-650zM800 750v-100h-150v100h150zM550 650h100v-550h-100v550zM400 100h-100v150h100v-150zM300 100v-100h-150v100h150zM550 100v-100h-150v100h150z" />
    <glyph glyph-name="uni2C73" unicode="&#x2c73;" horiz-adv-x="925" 
d="M150 100h-100v400h100v-400zM450 100h-100v400h100v-400zM900 500v-100h-150v100h150zM650 400h100v-400h-300v100h200v300zM350 100v-100h-200v100h200z" />
    <glyph glyph-name="uniA78B" unicode="&#xa78b;" horiz-adv-x="200" 
d="M150 750v-550h-100v550h100z" />
    <glyph glyph-name="uniA78C" unicode="&#xa78c;" horiz-adv-x="200" 
d="M150 750v-400h-100v400h100z" />
    <glyph glyph-name="uniA78D" unicode="&#xa78d;" horiz-adv-x="600" 
d="M550 750v-750h-100v300h-400v450h100v-350h300v350h100z" />
    <glyph glyph-name="uniA7AA" unicode="&#xa7aa;" horiz-adv-x="725" 
d="M175 750v-100h-150v100h150zM675 750v-750h-100v350h-300v-350h-100v650h100v-200h300v300h100z" />
    <glyph glyph-name="uniAB53" unicode="&#xab53;" horiz-adv-x="650" 
d="M225 350h-100v200h100v-200zM625 550v-100h-100v100h100zM425 450h100v-100h-100v100zM425 350v-100h-200v100h200zM125 250h100v-150h-100v150zM425 250h100v-250h-100v250zM25 100h100v-100h-100v100z" />
    <glyph glyph-name="i.loclTRK" horiz-adv-x="200" 
d="M150 650v-100h-100v100h100zM50 500h100v-500h-100v500z" />
    <glyph glyph-name="a.sc" horiz-adv-x="400" 
d="M250 400h-100v100h100v-100zM350 400v-400h-100v175h-100v-175h-100v400h100v-125h100v125h100z" />
    <glyph glyph-name="ae.sc" horiz-adv-x="600" 
d="M250 400h-100v100h100v-100zM550 500v-100h-200v100h200zM250 400h100v-100h200v-100h-200v-100h200v-100h-300v175h-100v-175h-100v400h100v-125h100v125z" />
    <glyph glyph-name="b.sc" horiz-adv-x="375" 
d="M150 300h100v-100h-100v-100h100v-100h-200v500h200v-100h-100v-100zM350 400v-100h-100v100h100zM250 100v100h100v-100h-100z" />
    <glyph glyph-name="c.sc" horiz-adv-x="375" 
d="M350 500v-100h-200v100h200zM50 400h100v-300h-100v300zM150 0v100h200v-100h-200z" />
    <glyph glyph-name="d.sc" horiz-adv-x="400" 
d="M150 100h100v-100h-200v500h200v-100h-100v-300zM350 400v-300h-100v300h100z" />
    <glyph glyph-name="eth.sc" horiz-adv-x="475" 
d="M225 100h100v-100h-200v200h-100v100h100v200h200v-100h-100v-300zM425 400v-300h-100v300h100z" />
    <glyph glyph-name="dcroat.sc" horiz-adv-x="475" 
d="M225 100h100v-100h-200v200h-100v100h100v200h200v-100h-100v-300zM425 400v-300h-100v300h100z" />
    <glyph glyph-name="e.sc" horiz-adv-x="400" 
d="M350 500v-100h-200v-100h200v-100h-200v-100h200v-100h-300v500h300z" />
    <glyph glyph-name="uni025B.sc" horiz-adv-x="375" 
d="M325 500v-100h-200v100h200zM25 400h100v-100h-100v100zM125 200v100h200v-100h-200zM25 200h100v-100h-100v100zM125 0v100h200v-100h-200z" />
    <glyph glyph-name="uni0258.sc" horiz-adv-x="400" 
d="M350 500v-500h-300v100h200v100h-200v100h200v100h-200v100h300z" />
    <glyph glyph-name="f.sc" horiz-adv-x="375" 
d="M350 500v-100h-200v-100h200v-100h-200v-200h-100v500h300z" />
    <glyph glyph-name="g.sc" horiz-adv-x="400" 
d="M350 500v-100h-200v100h200zM50 400h100v-300h-100v300zM150 0v100h100v100h100v-200h-200z" />
    <glyph glyph-name="h.sc" horiz-adv-x="400" 
d="M350 500v-500h-100v200h-100v-200h-100v500h100v-200h100v200h100z" />
    <glyph glyph-name="hbar.sc" horiz-adv-x="550" 
d="M525 400v-100h-100v-300h-100v100h-100v-100h-100v300h-100v100h100v100h100v-100h100v100h100v-100h100zM325 300h-100v-100h100v100z" />
    <glyph glyph-name="uni0265.sc" horiz-adv-x="400" 
d="M350 500v-500h-100v200h-200v300h100v-200h100v200h100z" />
    <glyph glyph-name="i.sc" horiz-adv-x="200" 
d="M150 500v-500h-100v500h100z" />
    <glyph glyph-name="uni0268.sc" horiz-adv-x="350" 
d="M325 300v-100h-100v-200h-100v200h-100v100h100v200h100v-200h100z" />
    <glyph glyph-name="j.sc" horiz-adv-x="325" 
d="M275 500v-400h-100v400h100zM175 100v-100h-150v100h150z" />
    <glyph glyph-name="k.sc" horiz-adv-x="400" 
d="M150 300h100v-100h-100v-200h-100v500h100v-200zM350 500v-200h-100v200h100zM250 200h100v-200h-100v200z" />
    <glyph glyph-name="l.sc" horiz-adv-x="375" 
d="M350 100v-100h-300v500h100v-400h200z" />
    <glyph glyph-name="lslash.sc" horiz-adv-x="450" 
d="M425 100v-100h-300v200h-100v100h100v200h100v-200h100v-100h-100v-100h200z" />
    <glyph glyph-name="m.sc" horiz-adv-x="600" 
d="M250 400v-100h-100v-300h-100v500h100v-100h100zM550 500v-500h-100v300h-100v100h100v100h100zM250 300h100v-150h-100v150z" />
    <glyph glyph-name="n.sc" 
d="M250 250h-100v-250h-100v500h100v-100h100v-150zM450 500v-500h-100v100h-100v150h100v250h100z" />
    <glyph glyph-name="o.sc" horiz-adv-x="400" 
d="M250 400h-100v100h100v-100zM150 100h-100v300h100v-300zM350 400v-300h-100v300h100zM150 100h100v-100h-100v100z" />
    <glyph glyph-name="uni0254.sc" horiz-adv-x="400" 
d="M250 500v-100h-100v100h100zM50 400h100v-100h-100v100zM350 400v-300h-100v300h100zM150 200v-100h-100v100h100zM150 100h100v-100h-100v100z" />
    <glyph glyph-name="oslash.sc" horiz-adv-x="400" 
d="M250 400h-100v100h100v-100zM350 400v-300h-100v100h-100v-100h-100v300h100v-100h100v100h100zM150 100h100v-100h-100v100z" />
    <glyph glyph-name="oe.sc" horiz-adv-x="600" 
d="M250 400h-100v100h100v-100zM550 500v-100h-200v100h200zM150 100h-100v300h100v-300zM250 400h100v-100h200v-100h-200v-100h-100v300zM150 100h100v-100h-100v100zM350 0v100h200v-100h-200z" />
    <glyph glyph-name="p.sc" horiz-adv-x="375" 
d="M150 300h100v-100h-100v-200h-100v500h200v-100h-100v-100zM350 400v-100h-100v100h100z" />
    <glyph glyph-name="thorn.sc" horiz-adv-x="375" 
d="M150 200h100v-100h-100v-100h-100v500h100v-100h100v-100h-100v-100zM350 300v-100h-100v100h100z" />
    <glyph glyph-name="q.sc" horiz-adv-x="400" 
d="M250 400h-100v100h100v-100zM150 100h-100v300h100v-300zM350 400v-300h-100v300h100zM150 100h100v-100h-100v100zM250 -100v100h100v-100h-100z" />
    <glyph glyph-name="r.sc" horiz-adv-x="400" 
d="M150 300h100v-100h-100v-200h-100v500h200v-100h-100v-100zM350 400v-100h-100v100h100zM250 200h100v-200h-100v200z" />
    <glyph glyph-name="s.sc" horiz-adv-x="350" 
d="M325 500v-100h-200v100h200zM25 400h100v-100h-100v100zM125 200v100h100v-100h-100zM225 100v100h100v-100h-100zM225 100v-100h-200v100h200z" />
    <glyph glyph-name="t.sc" horiz-adv-x="350" 
d="M325 500v-100h-100v-400h-100v400h-100v100h300z" />
    <glyph glyph-name="tbar.sc" horiz-adv-x="350" 
d="M325 500v-100h-100v-100h100v-100h-100v-200h-100v200h-100v100h100v100h-100v100h300z" />
    <glyph glyph-name="u.sc" horiz-adv-x="400" 
d="M350 500v-500h-300v500h100v-400h100v400h100z" />
    <glyph glyph-name="uni0289.sc" horiz-adv-x="550" 
d="M525 300v-100h-100v-200h-300v200h-100v100h100v200h100v-200h100v200h100v-200h100zM325 200h-100v-100h100v100z" />
    <glyph glyph-name="v.sc" horiz-adv-x="400" 
d="M150 100h-100v400h100v-400zM350 500v-400h-100v400h100zM150 100h100v-100h-100v100z" />
    <glyph glyph-name="uni028C.sc" horiz-adv-x="400" 
d="M250 500v-100h-100v100h100zM50 400h100v-400h-100v400zM350 400v-400h-100v400h100z" />
    <glyph glyph-name="w.sc" horiz-adv-x="600" 
d="M150 100h-100v400h100v-400zM550 500v-400h-100v400h100zM350 100h-100v200h100v-200zM150 100h100v-100h-100v100zM350 100h100v-100h-100v100z" />
    <glyph glyph-name="x.sc" horiz-adv-x="400" 
d="M150 300h-100v200h100v-200zM350 500v-200h-100v200h100zM150 300h100v-100h-100v100zM50 200h100v-200h-100v200zM250 200h100v-200h-100v200z" />
    <glyph glyph-name="y.sc" horiz-adv-x="350" 
d="M125 250h-100v250h100v-250zM325 500v-250h-100v250h100zM125 250h100v-250h-100v250z" />
    <glyph glyph-name="z.sc" horiz-adv-x="400" 
d="M350 500v-200h-100v100h-200v100h300zM150 300h100v-100h-100v100zM50 200h100v-100h200v-100h-300v200z" />
    <glyph glyph-name="zero.zero" 
d="M450 650v-550h-100v300h-100v250h-100v100h200v-100h100zM250 100h100v-100h-200v100h-100v550h100v-250h100v-300z" />
    <glyph glyph-name="zero.subs" horiz-adv-x="400" 
d="M350 300v-500h-300v500h300zM250 200h-100v-300h100v300z" />
    <glyph glyph-name="one.subs" horiz-adv-x="300" 
d="M250 300v-500h-100v300h-100v100h100v100h100z" />
    <glyph glyph-name="two.subs" horiz-adv-x="350" 
d="M300 300v-300h-150v-100h150v-100h-250v300h150v100h-150v100h250z" />
    <glyph glyph-name="three.subs" horiz-adv-x="350" 
d="M300 300v-500h-250v100h150v100h-100v100h100v100h-150v100h250z" />
    <glyph glyph-name="four.subs" horiz-adv-x="350" 
d="M300 100v-300h-100v200h-150v300h100v-200h150z" />
    <glyph glyph-name="five.subs" horiz-adv-x="350" 
d="M300 300v-100h-150v-100h150v-300h-250v100h150v100h-150v300h250z" />
    <glyph glyph-name="six.subs" horiz-adv-x="400" 
d="M350 100v-300h-300v500h250v-100h-150v-100h200zM250 0h-100v-100h100v100z" />
    <glyph glyph-name="seven.subs" horiz-adv-x="350" 
d="M300 300v-500h-100v400h-150v100h250z" />
    <glyph glyph-name="eight.subs" horiz-adv-x="400" 
d="M350 300v-500h-300v500h300zM250 200h-100v-100h100v100zM250 0h-100v-100h100v100z" />
    <glyph glyph-name="nine.subs" horiz-adv-x="400" 
d="M350 300v-500h-250v100h150v100h-200v300h300zM250 200h-100v-100h100v100z" />
    <glyph glyph-name="zero.dnom" horiz-adv-x="400" 
d="M350 350v-500h-300v500h300zM250 250h-100v-300h100v300z" />
    <glyph glyph-name="one.dnom" horiz-adv-x="300" 
d="M250 350v-500h-100v300h-100v100h100v100h100z" />
    <glyph glyph-name="two.dnom" horiz-adv-x="350" 
d="M300 350v-300h-150v-100h150v-100h-250v300h150v100h-150v100h250z" />
    <glyph glyph-name="three.dnom" horiz-adv-x="350" 
d="M300 350v-500h-250v100h150v100h-100v100h100v100h-150v100h250z" />
    <glyph glyph-name="four.dnom" horiz-adv-x="350" 
d="M300 150v-300h-100v200h-150v300h100v-200h150z" />
    <glyph glyph-name="five.dnom" horiz-adv-x="350" 
d="M300 350v-100h-150v-100h150v-300h-250v100h150v100h-150v300h250z" />
    <glyph glyph-name="six.dnom" horiz-adv-x="400" 
d="M350 150v-300h-300v500h250v-100h-150v-100h200zM250 50h-100v-100h100v100z" />
    <glyph glyph-name="seven.dnom" horiz-adv-x="350" 
d="M300 350v-500h-100v400h-150v100h250z" />
    <glyph glyph-name="eight.dnom" horiz-adv-x="400" 
d="M350 350v-500h-300v500h300zM250 250h-100v-100h100v100zM250 50h-100v-100h100v100z" />
    <glyph glyph-name="nine.dnom" horiz-adv-x="400" 
d="M350 350v-500h-250v100h150v100h-200v300h300zM250 250h-100v-100h100v100z" />
    <glyph glyph-name="zero.numr" horiz-adv-x="400" 
d="M350 750v-500h-300v500h300zM250 650h-100v-300h100v300z" />
    <glyph glyph-name="one.numr" horiz-adv-x="300" 
d="M250 750v-500h-100v300h-100v100h100v100h100z" />
    <glyph glyph-name="two.numr" horiz-adv-x="350" 
d="M300 750v-300h-150v-100h150v-100h-250v300h150v100h-150v100h250z" />
    <glyph glyph-name="three.numr" horiz-adv-x="350" 
d="M300 750v-500h-250v100h150v100h-100v100h100v100h-150v100h250z" />
    <glyph glyph-name="four.numr" horiz-adv-x="350" 
d="M300 550v-300h-100v200h-150v300h100v-200h150z" />
    <glyph glyph-name="five.numr" horiz-adv-x="350" 
d="M300 750v-100h-150v-100h150v-300h-250v100h150v100h-150v300h250z" />
    <glyph glyph-name="six.numr" horiz-adv-x="400" 
d="M350 550v-300h-300v500h250v-100h-150v-100h200zM250 450h-100v-100h100v100z" />
    <glyph glyph-name="seven.numr" horiz-adv-x="350" 
d="M300 750v-500h-100v400h-150v100h250z" />
    <glyph glyph-name="eight.numr" horiz-adv-x="400" 
d="M350 750v-500h-300v500h300zM250 650h-100v-100h100v100zM250 450h-100v-100h100v100z" />
    <glyph glyph-name="nine.numr" horiz-adv-x="400" 
d="M350 750v-500h-250v100h150v100h-200v300h300zM250 650h-100v-100h100v100z" />
    <glyph glyph-name="zero.sc" horiz-adv-x="400" 
d="M350 500v-500h-300v500h300zM250 400h-100v-300h100v300z" />
    <glyph glyph-name="one.sc" horiz-adv-x="300" 
d="M250 500v-500h-100v300h-100v100h100v100h100z" />
    <glyph glyph-name="two.sc" horiz-adv-x="350" 
d="M300 500v-300h-150v-100h150v-100h-250v300h150v100h-150v100h250z" />
    <glyph glyph-name="three.sc" horiz-adv-x="350" 
d="M300 500v-500h-250v100h150v100h-100v100h100v100h-150v100h250z" />
    <glyph glyph-name="four.sc" horiz-adv-x="350" 
d="M300 300v-300h-100v200h-150v300h100v-200h150z" />
    <glyph glyph-name="five.sc" horiz-adv-x="350" 
d="M300 500v-100h-150v-100h150v-300h-250v100h150v100h-150v300h250z" />
    <glyph glyph-name="six.sc" horiz-adv-x="400" 
d="M350 300v-300h-300v500h250v-100h-150v-100h200zM250 200h-100v-100h100v100z" />
    <glyph glyph-name="seven.sc" horiz-adv-x="350" 
d="M300 500v-500h-100v400h-150v100h250z" />
    <glyph glyph-name="eight.sc" horiz-adv-x="400" 
d="M350 500v-500h-300v500h300zM250 400h-100v-100h100v100zM250 200h-100v-100h100v100z" />
    <glyph glyph-name="nine.sc" horiz-adv-x="400" 
d="M350 500v-500h-250v100h150v100h-200v300h300zM250 400h-100v-100h100v100z" />
    <glyph glyph-name="uni03000304" horiz-adv-x="0" 
d="M-150 800h-100v100h100v-100zM-150 700v100h100v-100h-100zM0 650v-100h-300v100h300z" />
    <glyph glyph-name="uni03010304" horiz-adv-x="0" 
d="M-50 800h-100v100h100v-100zM-150 700h-100v100h100v-100zM0 650v-100h-300v100h300z" />
    <glyph glyph-name="uni03040300" horiz-adv-x="0" 
d="M-150 800h-100v100h100v-100zM-150 700v100h100v-100h-100zM0 650v-100h-300v100h300z" />
    <glyph glyph-name="uni03040301" horiz-adv-x="0" 
d="M-50 800h-100v100h100v-100zM-150 700h-100v100h100v-100zM0 650v-100h-300v100h300z" />
    <glyph glyph-name="uni03060301" horiz-adv-x="0" 
d="M-50 800h-100v100h100v-100zM-150 700h-100v100h100v-100zM-300 750v-100h-100v100h100zM0 750v-100h-100v100h100zM-100 650v-100h-200v100h200z" />
    <glyph glyph-name="uni03060300" horiz-adv-x="0" 
d="M-250 800h-100v100h100v-100zM-250 700v100h100v-100h-100zM-300 750v-100h-100v100h100zM0 750v-100h-100v100h100zM-100 650v-100h-200v100h200z" />
    <glyph glyph-name="uni03060309" horiz-adv-x="0" 
d="M-250 800h-100v100h200v-200h-100v100zM-300 750v-100h-100v100h100zM0 750v-100h-100v100h100zM-100 650v-100h-200v100h200z" />
    <glyph glyph-name="uni03060303" horiz-adv-x="0" 
d="M-250 800h-100v100h100v-100zM-50 800h-100v100h100v-100zM-350 700h-100v100h100v-100zM-250 700v100h100v-100h-100zM0 750v-100h-100v100h100zM-100 650v-100h-300v100h300z" />
    <glyph glyph-name="uni03020301" horiz-adv-x="0" 
d="M0 900v-100h-100v100h100zM-200 800h100v-100h-100v100zM-250 750v-100h-100v100h100zM-450 650h100v-100h-100v100zM-250 650h100v-100h-100v100z" />
    <glyph glyph-name="uni03020300" horiz-adv-x="0" 
d="M-100 900v-100h-100v100h100zM0 800v-100h-100v100h100zM-200 750v-100h-100v100h100zM-400 650h100v-100h-100v100zM-200 650h100v-100h-100v100z" />
    <glyph glyph-name="uni03020309" horiz-adv-x="0" 
d="M0 900v-200h-100v100h-100v100h200zM-200 750v-100h-100v100h100zM-400 650h100v-100h-100v100zM-200 650h100v-100h-100v100z" />
    <glyph glyph-name="uni03020303" horiz-adv-x="0" 
d="M-200 850v-100h-100v100h100zM0 850v-100h-100v100h100zM-400 750h100v-200h-100v200zM-200 750h100v-200h-100v200z" />
    </font>
</defs>
</svg>
